<svg version="1.1" viewBox="0.0 0.0 691.0 350.0" fill="none" stroke="none" stroke-linecap="square" stroke-miterlimit="10" width="691" height="350" xmlns:xlink="http://www.w3.org/1999/xlink" xmlns="http://www.w3.org/2000/svg"><path fill="#ffffff" d="M0 0L691.0 0L691.0 350.0L0 350.0L0 0Z" fill-rule="nonzero"/><path stroke="#333333" stroke-width="1.0" stroke-linecap="butt" d="M194.5 17.5L194.5 270.5" fill-rule="nonzero"/><path stroke="#cccccc" stroke-width="1.0" stroke-linecap="butt" d="M314.5 17.5L314.5 270.5" fill-rule="nonzero"/><path stroke="#cccccc" stroke-width="1.0" stroke-linecap="butt" d="M434.5 17.5L434.5 270.5" fill-rule="nonzero"/><path stroke="#cccccc" stroke-width="1.0" stroke-linecap="butt" d="M553.5 17.5L553.5 270.5" fill-rule="nonzero"/><path stroke="#cccccc" stroke-width="1.0" stroke-linecap="butt" d="M673.5 17.5L673.5 270.5" fill-rule="nonzero"/><path stroke="#000000" stroke-width="1.0" stroke-linecap="butt" d="M673.5 270.5L194.5 270.5" fill-rule="nonzero"/><clipPath id="id_0"><path d="M194.5 17.5L673.5 17.5L673.5 270.5L194.5 270.5L194.5 17.5Z" clip-rule="nonzero"/></clipPath><path stroke="#000000" stroke-width="2.0" stroke-linecap="butt" stroke-opacity="0.0" clip-path="url(#id_0)" d="M194.0 255.0L194.0 224.0L624.0 224.0C625.10455 224.0 626.0 224.89543 626.0 226.0L626.0 253.0C626.0 254.10457 625.10455 255.0 624.0 255.0Z" fill-rule="nonzero"/><path fill="#4f81bd" clip-path="url(#id_0)" d="M194.0 255.0L194.0 224.0L624.0 224.0C625.10455 224.0 626.0 224.89543 626.0 226.0L626.0 253.0C626.0 254.10457 625.10455 255.0 624.0 255.0Z" fill-rule="nonzero"/><path stroke="#000000" stroke-width="2.0" stroke-linecap="butt" stroke-opacity="0.0" clip-path="url(#id_0)" d="M194.0 207.0L194.0 176.0L552.0 176.0C553.10455 176.0 554.0 176.89543 554.0 178.0L554.0 205.0C554.0 206.10457 553.10455 207.0 552.0 207.0Z" fill-rule="nonzero"/><path fill="#4f81bd" clip-path="url(#id_0)" d="M194.0 207.0L194.0 176.0L552.0 176.0C553.10455 176.0 554.0 176.89543 554.0 178.0L554.0 205.0C554.0 206.10457 553.10455 207.0 552.0 207.0Z" fill-rule="nonzero"/><path stroke="#000000" stroke-width="2.0" stroke-linecap="butt" stroke-opacity="0.0" clip-path="url(#id_0)" d="M194.0 160.0L194.0 129.0L576.0 129.0C577.10455 129.0 578.0 129.89543 578.0 131.0L578.0 158.0C578.0 159.10457 577.10455 160.0 576.0 160.0Z" fill-rule="nonzero"/><path fill="#4f81bd" clip-path="url(#id_0)" d="M194.0 160.0L194.0 129.0L576.0 129.0C577.10455 129.0 578.0 129.89543 578.0 131.0L578.0 158.0C578.0 159.10457 577.10455 160.0 576.0 160.0Z" fill-rule="nonzero"/><path stroke="#000000" stroke-width="2.0" stroke-linecap="butt" stroke-opacity="0.0" clip-path="url(#id_0)" d="M194.0 113.0L194.0 82.0L600.0 82.0C601.10455 82.0 602.0 82.89543 602.0 84.0L602.0 111.0C602.0 112.10457 601.10455 113.0 600.0 113.0Z" fill-rule="nonzero"/><path fill="#4f81bd" clip-path="url(#id_0)" d="M194.0 113.0L194.0 82.0L600.0 82.0C601.10455 82.0 602.0 82.89543 602.0 84.0L602.0 111.0C602.0 112.10457 601.10455 113.0 600.0 113.0Z" fill-rule="nonzero"/><path stroke="#000000" stroke-width="2.0" stroke-linecap="butt" stroke-opacity="0.0" clip-path="url(#id_0)" d="M194.0 65.0L194.0 34.0L648.0 34.0C649.10455 34.0 650.0 34.89543 650.0 36.0L650.0 63.0C650.0 64.10457 649.10455 65.0 648.0 65.0Z" fill-rule="nonzero"/><path fill="#4f81bd" clip-path="url(#id_0)" d="M194.0 65.0L194.0 34.0L648.0 34.0C649.10455 34.0 650.0 34.89543 650.0 36.0L650.0 63.0C650.0 64.10457 649.10455 65.0 648.0 65.0Z" fill-rule="nonzero"/><path stroke="#000000" stroke-width="1.0" stroke-linecap="butt" d="M194.5 282.5L194.5 270.5" fill-rule="nonzero"/><path stroke="#000000" stroke-width="1.0" stroke-linecap="butt" d="M314.5 282.5L314.5 270.5" fill-rule="nonzero"/><path stroke="#000000" stroke-width="1.0" stroke-linecap="butt" d="M434.5 282.5L434.5 270.5" fill-rule="nonzero"/><path stroke="#000000" stroke-width="1.0" stroke-linecap="butt" d="M553.5 282.5L553.5 270.5" fill-rule="nonzero"/><path stroke="#000000" stroke-width="1.0" stroke-linecap="butt" d="M673.5 282.5L673.5 270.5" fill-rule="nonzero"/><path stroke="#000000" stroke-width="1.0" stroke-linecap="butt" d="M182.5 238.5L194.5 238.5" fill-rule="nonzero"/><path stroke="#000000" stroke-width="1.0" stroke-linecap="butt" d="M182.5 191.5L194.5 191.5" fill-rule="nonzero"/><path stroke="#000000" stroke-width="1.0" stroke-linecap="butt" d="M182.5 144.5L194.5 144.5" fill-rule="nonzero"/><path stroke="#000000" stroke-width="1.0" stroke-linecap="butt" d="M182.5 96.5L194.5 96.5" fill-rule="nonzero"/><path stroke="#000000" stroke-width="1.0" stroke-linecap="butt" d="M182.5 49.5L194.5 49.5" fill-rule="nonzero"/><path fill="#000000" d="M300.875 329.5L300.875 320.90625L303.65625 320.90625Q305.23438 320.90625 305.71875 321.03125Q306.45312 321.23438 306.95312 321.89062Q307.45312 322.53125 307.45312 323.54688Q307.45312 324.34375 307.15625 324.89062Q306.875 325.42188 306.4375 325.73438Q306.0 326.03125 305.53125 326.14062Q304.92188 326.26562 303.73438 326.26562L302.60938 326.26562L302.60938 329.5L300.875 329.5ZM302.60938 322.35938L302.60938 324.79688L303.5625 324.79688Q304.57812 324.79688 304.92188 324.67188Q305.28125 324.53125 305.46875 324.25Q305.67188 323.95312 305.67188 323.57812Q305.67188 323.10938 305.39062 322.8125Q305.10938 322.5 304.6875 322.42188Q304.39062 322.35938 303.45312 322.35938L302.60938 322.35938ZM312.46875 327.51562L314.10938 327.79688Q313.79688 328.70312 313.10938 329.17188Q312.42188 329.64062 311.40625 329.64062Q309.78125 329.64062 309.0 328.57812Q308.375 327.73438 308.375 326.4375Q308.375 324.89062 309.1875 324.01562Q310.0 323.14062 311.23438 323.14062Q312.625 323.14062 313.42188 324.0625Q314.23438 324.96875 314.1875 326.85938L310.0625 326.85938Q310.09375 327.59375 310.46875 328.0Q310.84375 328.40625 311.42188 328.40625Q311.79688 328.40625 312.0625 328.20312Q312.32812 327.98438 312.46875 327.51562ZM312.5625 325.85938Q312.54688 325.14062 312.1875 324.76562Q311.84375 324.39062 311.32812 324.39062Q310.79688 324.39062 310.4375 324.78125Q310.09375 325.1875 310.09375 325.85938L312.5625 325.85938ZM317.4375 329.5L315.79688 329.5L315.79688 323.28125L317.32812 323.28125L317.32812 324.15625Q317.71875 323.53125 318.03125 323.34375Q318.34375 323.14062 318.73438 323.14062Q319.29688 323.14062 319.82812 323.45312L319.3125 324.875Q318.89062 324.60938 318.54688 324.60938Q318.1875 324.60938 317.95312 324.8125Q317.71875 325.0 317.57812 325.5Q317.4375 325.98438 317.4375 327.57812L317.4375 329.5ZM326.28125 325.10938L324.67188 325.40625Q324.57812 324.92188 324.28125 324.6875Q324.0 324.4375 323.54688 324.4375Q322.92188 324.4375 322.54688 324.85938Q322.1875 325.28125 322.1875 326.28125Q322.1875 327.39062 322.5625 327.84375Q322.9375 328.29688 323.5625 328.29688Q324.03125 328.29688 324.32812 328.03125Q324.625 327.76562 324.75 327.10938L326.375 327.39062Q326.125 328.5 325.40625 329.07812Q324.6875 329.64062 323.48438 329.64062Q322.125 329.64062 321.3125 328.78125Q320.5 327.92188 320.5 326.39062Q320.5 324.85938 321.3125 324.0Q322.125 323.14062 323.51562 323.14062Q324.65625 323.14062 325.32812 323.625Q326.0 324.10938 326.28125 325.10938ZM331.46875 327.51562L333.10938 327.79688Q332.79688 328.70312 332.10938 329.17188Q331.42188 329.64062 330.40625 329.64062Q328.78125 329.64062 328.0 328.57812Q327.375 327.73438 327.375 326.4375Q327.375 324.89062 328.1875 324.01562Q329.0 323.14062 330.23438 323.14062Q331.625 323.14062 332.42188 324.0625Q333.23438 324.96875 333.1875 326.85938L329.0625 326.85938Q329.09375 327.59375 329.46875 328.0Q329.84375 328.40625 330.42188 328.40625Q330.79688 328.40625 331.0625 328.20312Q331.32812 327.98438 331.46875 327.51562ZM331.5625 325.85938Q331.54688 325.14062 331.1875 324.76562Q330.84375 324.39062 330.32812 324.39062Q329.79688 324.39062 329.4375 324.78125Q329.09375 325.1875 329.09375 325.85938L331.5625 325.85938ZM340.51562 329.5L338.875 329.5L338.875 326.32812Q338.875 325.3125 338.76562 325.01562Q338.67188 324.71875 338.42188 324.5625Q338.1875 324.39062 337.85938 324.39062Q337.42188 324.39062 337.07812 324.625Q336.75 324.85938 336.625 325.25Q336.5 325.64062 336.5 326.6875L336.5 329.5L334.84375 329.5L334.84375 323.28125L336.375 323.28125L336.375 324.1875Q337.1875 323.14062 338.4375 323.14062Q338.96875 323.14062 339.42188 323.34375Q339.875 323.53125 340.10938 323.84375Q340.34375 324.14062 340.42188 324.53125Q340.51562 324.90625 340.51562 325.625L340.51562 329.5ZM344.71875 323.28125L344.71875 324.59375L343.59375 324.59375L343.59375 327.09375Q343.59375 327.85938 343.625 327.98438Q343.65625 328.10938 343.76562 328.20312Q343.89062 328.28125 344.04688 328.28125Q344.28125 328.28125 344.70312 328.10938L344.84375 329.39062Q344.28125 329.64062 343.54688 329.64062Q343.10938 329.64062 342.75 329.5Q342.39062 329.34375 342.21875 329.10938Q342.0625 328.85938 341.98438 328.46875Q341.9375 328.17188 341.9375 327.29688L341.9375 324.59375L341.1875 324.59375L341.1875 323.28125L341.9375 323.28125L341.9375 322.04688L343.59375 321.07812L343.59375 323.28125L344.71875 323.28125ZM347.09375 325.17188L345.59375 324.90625Q345.84375 324.0 346.45312 323.57812Q347.07812 323.14062 348.29688 323.14062Q349.39062 323.14062 349.92188 323.40625Q350.46875 323.65625 350.6875 324.0625Q350.90625 324.45312 350.90625 325.53125L350.89062 327.45312Q350.89062 328.28125 350.96875 328.67188Q351.04688 329.04688 351.26562 329.5L349.64062 329.5Q349.57812 329.32812 349.48438 329.01562Q349.4375 328.85938 349.42188 328.8125Q349.0 329.23438 348.51562 329.4375Q348.04688 329.64062 347.5 329.64062Q346.53125 329.64062 345.96875 329.125Q345.42188 328.59375 345.42188 327.79688Q345.42188 327.26562 345.67188 326.85938Q345.9375 326.45312 346.39062 326.23438Q346.84375 326.0 347.70312 325.84375Q348.84375 325.625 349.29688 325.4375L349.29688 325.28125Q349.29688 324.79688 349.0625 324.59375Q348.82812 324.39062 348.17188 324.39062Q347.73438 324.39062 347.48438 324.5625Q347.25 324.73438 347.09375 325.17188ZM349.29688 326.51562Q348.98438 326.60938 348.29688 326.76562Q347.60938 326.90625 347.39062 327.04688Q347.07812 327.28125 347.07812 327.625Q347.07812 327.96875 347.32812 328.23438Q347.59375 328.48438 347.98438 328.48438Q348.4375 328.48438 348.84375 328.1875Q349.14062 327.96875 349.23438 327.64062Q349.29688 327.4375 349.29688 326.84375L349.29688 326.51562ZM352.70312 329.90625L354.59375 330.14062Q354.64062 330.46875 354.8125 330.59375Q355.04688 330.76562 355.54688 330.76562Q356.1875 330.76562 356.51562 330.57812Q356.73438 330.4375 356.84375 330.15625Q356.92188 329.95312 356.92188 329.40625L356.92188 328.48438Q356.17188 329.5 355.04688 329.5Q353.79688 329.5 353.0625 328.4375Q352.5 327.59375 352.5 326.35938Q352.5 324.78125 353.25 323.96875Q354.0 323.14062 355.125 323.14062Q356.26562 323.14062 357.01562 324.15625L357.01562 323.28125L358.5625 323.28125L358.5625 328.85938Q358.5625 329.96875 358.375 330.5Q358.20312 331.04688 357.875 331.35938Q357.54688 331.67188 357.0 331.84375Q356.45312 332.03125 355.60938 332.03125Q354.03125 332.03125 353.35938 331.48438Q352.70312 330.9375 352.70312 330.10938Q352.70312 330.03125 352.70312 329.90625ZM354.1875 326.26562Q354.1875 327.25 354.5625 327.71875Q354.95312 328.17188 355.51562 328.17188Q356.10938 328.17188 356.53125 327.70312Q356.95312 327.21875 356.95312 326.29688Q356.95312 325.32812 356.54688 324.85938Q356.15625 324.39062 355.54688 324.39062Q354.95312 324.39062 354.5625 324.85938Q354.1875 325.3125 354.1875 326.26562ZM363.46875 327.51562L365.10938 327.79688Q364.79688 328.70312 364.10938 329.17188Q363.42188 329.64062 362.40625 329.64062Q360.78125 329.64062 360.0 328.57812Q359.375 327.73438 359.375 326.4375Q359.375 324.89062 360.1875 324.01562Q361.0 323.14062 362.23438 323.14062Q363.625 323.14062 364.42188 324.0625Q365.23438 324.96875 365.1875 326.85938L361.0625 326.85938Q361.09375 327.59375 361.46875 328.0Q361.84375 328.40625 362.42188 328.40625Q362.79688 328.40625 363.0625 328.20312Q363.32812 327.98438 363.46875 327.51562ZM363.5625 325.85938Q363.54688 325.14062 363.1875 324.76562Q362.84375 324.39062 362.32812 324.39062Q361.79688 324.39062 361.4375 324.78125Q361.09375 325.1875 361.09375 325.85938L363.5625 325.85938ZM369.48438 326.29688Q369.48438 325.48438 369.89062 324.71875Q370.29688 323.9375 371.03125 323.54688Q371.76562 323.14062 372.6875 323.14062Q374.09375 323.14062 375.0 324.0625Q375.90625 324.96875 375.90625 326.375Q375.90625 327.78125 374.98438 328.71875Q374.07812 329.64062 372.70312 329.64062Q371.84375 329.64062 371.0625 329.25Q370.29688 328.85938 369.89062 328.125Q369.48438 327.375 369.48438 326.29688ZM371.17188 326.39062Q371.17188 327.3125 371.60938 327.8125Q372.04688 328.29688 372.6875 328.29688Q373.34375 328.29688 373.76562 327.8125Q374.20312 327.3125 374.20312 326.375Q374.20312 325.46875 373.76562 324.98438Q373.34375 324.48438 372.6875 324.48438Q372.04688 324.48438 371.60938 324.98438Q371.17188 325.46875 371.17188 326.39062ZM376.14062 323.28125L377.0625 323.28125L377.0625 322.8125Q377.0625 322.01562 377.21875 321.64062Q377.39062 321.25 377.82812 321.01562Q378.28125 320.76562 378.96875 320.76562Q379.67188 320.76562 380.34375 320.96875L380.125 322.125Q379.73438 322.03125 379.375 322.03125Q379.01562 322.03125 378.85938 322.20312Q378.70312 322.35938 378.70312 322.84375L378.70312 323.28125L379.9375 323.28125L379.9375 324.57812L378.70312 324.57812L378.70312 329.5L377.0625 329.5L377.0625 324.57812L376.14062 324.57812L376.14062 323.28125ZM387.95312 329.5L387.95312 328.5625Q387.625 329.0625 387.0625 329.35938Q386.51562 329.64062 385.89062 329.64062Q385.26562 329.64062 384.76562 329.375Q384.26562 329.09375 384.04688 328.59375Q383.82812 328.09375 383.82812 327.21875L383.82812 323.28125L385.46875 323.28125L385.46875 326.14062Q385.46875 327.45312 385.5625 327.75Q385.65625 328.04688 385.89062 328.21875Q386.14062 328.39062 386.5 328.39062Q386.92188 328.39062 387.25 328.15625Q387.59375 327.92188 387.71875 327.57812Q387.84375 327.23438 387.84375 325.90625L387.84375 323.28125L389.48438 323.28125L389.48438 329.5L387.95312 329.5ZM390.28125 327.71875L391.9375 327.46875Q392.04688 327.95312 392.35938 328.20312Q392.6875 328.45312 393.26562 328.45312Q393.90625 328.45312 394.21875 328.21875Q394.4375 328.04688 394.4375 327.78125Q394.4375 327.59375 394.32812 327.46875Q394.20312 327.34375 393.78125 327.25Q391.78125 326.8125 391.25 326.45312Q390.51562 325.9375 390.51562 325.04688Q390.51562 324.23438 391.14062 323.6875Q391.78125 323.14062 393.125 323.14062Q394.40625 323.14062 395.03125 323.5625Q395.65625 323.96875 395.89062 324.78125L394.32812 325.0625Q394.23438 324.70312 393.95312 324.51562Q393.67188 324.3125 393.15625 324.3125Q392.51562 324.3125 392.23438 324.5Q392.04688 324.625 392.04688 324.82812Q392.04688 325.01562 392.20312 325.14062Q392.42188 325.29688 393.73438 325.59375Q395.0625 325.89062 395.57812 326.32812Q396.09375 326.76562 396.09375 327.54688Q396.09375 328.40625 395.375 329.03125Q394.67188 329.64062 393.26562 329.64062Q392.0 329.64062 391.25 329.125Q390.51562 328.60938 390.28125 327.71875ZM401.46875 327.51562L403.10938 327.79688Q402.79688 328.70312 402.10938 329.17188Q401.42188 329.64062 400.40625 329.64062Q398.78125 329.64062 398.0 328.57812Q397.375 327.73438 397.375 326.4375Q397.375 324.89062 398.1875 324.01562Q399.0 323.14062 400.23438 323.14062Q401.625 323.14062 402.42188 324.0625Q403.23438 324.96875 403.1875 326.85938L399.0625 326.85938Q399.09375 327.59375 399.46875 328.0Q399.84375 328.40625 400.42188 328.40625Q400.79688 328.40625 401.0625 328.20312Q401.32812 327.98438 401.46875 327.51562ZM401.5625 325.85938Q401.54688 325.14062 401.1875 324.76562Q400.84375 324.39062 400.32812 324.39062Q399.79688 324.39062 399.4375 324.78125Q399.09375 325.1875 399.09375 325.85938L401.5625 325.85938ZM406.4375 329.5L404.79688 329.5L404.79688 323.28125L406.32812 323.28125L406.32812 324.15625Q406.71875 323.53125 407.03125 323.34375Q407.34375 323.14062 407.73438 323.14062Q408.29688 323.14062 408.82812 323.45312L408.3125 324.875Q407.89062 324.60938 407.54688 324.60938Q407.1875 324.60938 406.95312 324.8125Q406.71875 325.0 406.57812 325.5Q406.4375 325.98438 406.4375 327.57812L406.4375 329.5ZM409.28125 327.71875L410.9375 327.46875Q411.04688 327.95312 411.35938 328.20312Q411.6875 328.45312 412.26562 328.45312Q412.90625 328.45312 413.21875 328.21875Q413.4375 328.04688 413.4375 327.78125Q413.4375 327.59375 413.32812 327.46875Q413.20312 327.34375 412.78125 327.25Q410.78125 326.8125 410.25 326.45312Q409.51562 325.9375 409.51562 325.04688Q409.51562 324.23438 410.14062 323.6875Q410.78125 323.14062 412.125 323.14062Q413.40625 323.14062 414.03125 323.5625Q414.65625 323.96875 414.89062 324.78125L413.32812 325.0625Q413.23438 324.70312 412.95312 324.51562Q412.67188 324.3125 412.15625 324.3125Q411.51562 324.3125 411.23438 324.5Q411.04688 324.625 411.04688 324.82812Q411.04688 325.01562 411.20312 325.14062Q411.42188 325.29688 412.73438 325.59375Q414.0625 325.89062 414.57812 326.32812Q415.09375 326.76562 415.09375 327.54688Q415.09375 328.40625 414.375 329.03125Q413.67188 329.64062 412.26562 329.64062Q411.0 329.64062 410.25 329.125Q409.51562 328.60938 409.28125 327.71875ZM421.09375 325.17188L419.59375 324.90625Q419.84375 324.0 420.45312 323.57812Q421.07812 323.14062 422.29688 323.14062Q423.39062 323.14062 423.92188 323.40625Q424.46875 323.65625 424.6875 324.0625Q424.90625 324.45312 424.90625 325.53125L424.89062 327.45312Q424.89062 328.28125 424.96875 328.67188Q425.04688 329.04688 425.26562 329.5L423.64062 329.5Q423.57812 329.32812 423.48438 329.01562Q423.4375 328.85938 423.42188 328.8125Q423.0 329.23438 422.51562 329.4375Q422.04688 329.64062 421.5 329.64062Q420.53125 329.64062 419.96875 329.125Q419.42188 328.59375 419.42188 327.79688Q419.42188 327.26562 419.67188 326.85938Q419.9375 326.45312 420.39062 326.23438Q420.84375 326.0 421.70312 325.84375Q422.84375 325.625 423.29688 325.4375L423.29688 325.28125Q423.29688 324.79688 423.0625 324.59375Q422.82812 324.39062 422.17188 324.39062Q421.73438 324.39062 421.48438 324.5625Q421.25 324.73438 421.09375 325.17188ZM423.29688 326.51562Q422.98438 326.60938 422.29688 326.76562Q421.60938 326.90625 421.39062 327.04688Q421.07812 327.28125 421.07812 327.625Q421.07812 327.96875 421.32812 328.23438Q421.59375 328.48438 421.98438 328.48438Q422.4375 328.48438 422.84375 328.1875Q423.14062 327.96875 423.23438 327.64062Q423.29688 327.4375 423.29688 326.84375L423.29688 326.51562ZM426.70312 329.90625L428.59375 330.14062Q428.64062 330.46875 428.8125 330.59375Q429.04688 330.76562 429.54688 330.76562Q430.1875 330.76562 430.51562 330.57812Q430.73438 330.4375 430.84375 330.15625Q430.92188 329.95312 430.92188 329.40625L430.92188 328.48438Q430.17188 329.5 429.04688 329.5Q427.79688 329.5 427.0625 328.4375Q426.5 327.59375 426.5 326.35938Q426.5 324.78125 427.25 323.96875Q428.0 323.14062 429.125 323.14062Q430.26562 323.14062 431.01562 324.15625L431.01562 323.28125L432.5625 323.28125L432.5625 328.85938Q432.5625 329.96875 432.375 330.5Q432.20312 331.04688 431.875 331.35938Q431.54688 331.67188 431.0 331.84375Q430.45312 332.03125 429.60938 332.03125Q428.03125 332.03125 427.35938 331.48438Q426.70312 330.9375 426.70312 330.10938Q426.70312 330.03125 426.70312 329.90625ZM428.1875 326.26562Q428.1875 327.25 428.5625 327.71875Q428.95312 328.17188 429.51562 328.17188Q430.10938 328.17188 430.53125 327.70312Q430.95312 327.21875 430.95312 326.29688Q430.95312 325.32812 430.54688 324.85938Q430.15625 324.39062 429.54688 324.39062Q428.95312 324.39062 428.5625 324.85938Q428.1875 325.3125 428.1875 326.26562ZM435.4375 329.5L433.79688 329.5L433.79688 323.28125L435.32812 323.28125L435.32812 324.15625Q435.71875 323.53125 436.03125 323.34375Q436.34375 323.14062 436.73438 323.14062Q437.29688 323.14062 437.82812 323.45312L437.3125 324.875Q436.89062 324.60938 436.54688 324.60938Q436.1875 324.60938 435.95312 324.8125Q435.71875 325.0 435.57812 325.5Q435.4375 325.98438 435.4375 327.57812L435.4375 329.5ZM442.46875 327.51562L444.10938 327.79688Q443.79688 328.70312 443.10938 329.17188Q442.42188 329.64062 441.40625 329.64062Q439.78125 329.64062 439.0 328.57812Q438.375 327.73438 438.375 326.4375Q438.375 324.89062 439.1875 324.01562Q440.0 323.14062 441.23438 323.14062Q442.625 323.14062 443.42188 324.0625Q444.23438 324.96875 444.1875 326.85938L440.0625 326.85938Q440.09375 327.59375 440.46875 328.0Q440.84375 328.40625 441.42188 328.40625Q441.79688 328.40625 442.0625 328.20312Q442.32812 327.98438 442.46875 327.51562ZM442.5625 325.85938Q442.54688 325.14062 442.1875 324.76562Q441.84375 324.39062 441.32812 324.39062Q440.79688 324.39062 440.4375 324.78125Q440.09375 325.1875 440.09375 325.85938L442.5625 325.85938ZM449.46875 327.51562L451.10938 327.79688Q450.79688 328.70312 450.10938 329.17188Q449.42188 329.64062 448.40625 329.64062Q446.78125 329.64062 446.0 328.57812Q445.375 327.73438 445.375 326.4375Q445.375 324.89062 446.1875 324.01562Q447.0 323.14062 448.23438 323.14062Q449.625 323.14062 450.42188 324.0625Q451.23438 324.96875 451.1875 326.85938L447.0625 326.85938Q447.09375 327.59375 447.46875 328.0Q447.84375 328.40625 448.42188 328.40625Q448.79688 328.40625 449.0625 328.20312Q449.32812 327.98438 449.46875 327.51562ZM449.5625 325.85938Q449.54688 325.14062 449.1875 324.76562Q448.84375 324.39062 448.32812 324.39062Q447.79688 324.39062 447.4375 324.78125Q447.09375 325.1875 447.09375 325.85938L449.5625 325.85938ZM458.5625 329.5L457.04688 329.5L457.04688 328.57812Q456.65625 329.125 456.14062 329.39062Q455.625 329.64062 455.09375 329.64062Q454.01562 329.64062 453.25 328.78125Q452.5 327.90625 452.5 326.35938Q452.5 324.78125 453.23438 323.96875Q453.98438 323.14062 455.125 323.14062Q456.15625 323.14062 456.92188 324.0L456.92188 320.90625L458.5625 320.90625L458.5625 329.5ZM454.17188 326.25Q454.17188 327.25 454.45312 327.6875Q454.84375 328.34375 455.5625 328.34375Q456.125 328.34375 456.51562 327.85938Q456.92188 327.375 456.92188 326.40625Q456.92188 325.34375 456.53125 324.875Q456.15625 324.39062 455.54688 324.39062Q454.96875 324.39062 454.5625 324.85938Q454.17188 325.32812 454.17188 326.25ZM464.01562 329.5L462.04688 323.28125L463.65625 323.28125L464.8125 327.35938L465.89062 323.28125L467.48438 323.28125L468.51562 327.35938L469.70312 323.28125L471.32812 323.28125L469.32812 329.5L467.75 329.5L466.67188 325.5L465.625 329.5L464.01562 329.5ZM472.85938 322.4375L472.85938 320.90625L474.51562 320.90625L474.51562 322.4375L472.85938 322.4375ZM472.85938 329.5L472.85938 323.28125L474.51562 323.28125L474.51562 329.5L472.85938 329.5ZM478.71875 323.28125L478.71875 324.59375L477.59375 324.59375L477.59375 327.09375Q477.59375 327.85938 477.625 327.98438Q477.65625 328.10938 477.76562 328.20312Q477.89062 328.28125 478.04688 328.28125Q478.28125 328.28125 478.70312 328.10938L478.84375 329.39062Q478.28125 329.64062 477.54688 329.64062Q477.10938 329.64062 476.75 329.5Q476.39062 329.34375 476.21875 329.10938Q476.0625 328.85938 475.98438 328.46875Q475.9375 328.17188 475.9375 327.29688L475.9375 324.59375L475.1875 324.59375L475.1875 323.28125L475.9375 323.28125L475.9375 322.04688L477.59375 321.07812L477.59375 323.28125L478.71875 323.28125ZM481.5 320.90625L481.5 324.0625Q482.29688 323.14062 483.40625 323.14062Q483.96875 323.14062 484.42188 323.35938Q484.89062 323.5625 485.125 323.89062Q485.35938 324.21875 485.4375 324.625Q485.51562 325.01562 485.51562 325.84375L485.51562 329.5L483.875 329.5L483.875 326.21875Q483.875 325.23438 483.78125 324.96875Q483.6875 324.70312 483.45312 324.54688Q483.21875 324.39062 482.85938 324.39062Q482.45312 324.39062 482.125 324.59375Q481.79688 324.79688 481.64062 325.20312Q481.5 325.59375 481.5 326.375L481.5 329.5L479.85938 329.5L479.85938 320.90625L481.5 320.90625ZM492.71875 323.28125L492.71875 324.59375L491.59375 324.59375L491.59375 327.09375Q491.59375 327.85938 491.625 327.98438Q491.65625 328.10938 491.76562 328.20312Q491.89062 328.28125 492.04688 328.28125Q492.28125 328.28125 492.70312 328.10938L492.84375 329.39062Q492.28125 329.64062 491.54688 329.64062Q491.10938 329.64062 490.75 329.5Q490.39062 329.34375 490.21875 329.10938Q490.0625 328.85938 489.98438 328.46875Q489.9375 328.17188 489.9375 327.29688L489.9375 324.59375L489.1875 324.59375L489.1875 323.28125L489.9375 323.28125L489.9375 322.04688L491.59375 321.07812L491.59375 323.28125L492.71875 323.28125ZM495.5 320.90625L495.5 324.0625Q496.29688 323.14062 497.40625 323.14062Q497.96875 323.14062 498.42188 323.35938Q498.89062 323.5625 499.125 323.89062Q499.35938 324.21875 499.4375 324.625Q499.51562 325.01562 499.51562 325.84375L499.51562 329.5L497.875 329.5L497.875 326.21875Q497.875 325.23438 497.78125 324.96875Q497.6875 324.70312 497.45312 324.54688Q497.21875 324.39062 496.85938 324.39062Q496.45312 324.39062 496.125 324.59375Q495.79688 324.79688 495.64062 325.20312Q495.5 325.59375 495.5 326.375L495.5 329.5L493.85938 329.5L493.85938 320.90625L495.5 320.90625ZM504.46875 327.51562L506.10938 327.79688Q505.79688 328.70312 505.10938 329.17188Q504.42188 329.64062 503.40625 329.64062Q501.78125 329.64062 501.0 328.57812Q500.375 327.73438 500.375 326.4375Q500.375 324.89062 501.1875 324.01562Q502.0 323.14062 503.23438 323.14062Q504.625 323.14062 505.42188 324.0625Q506.23438 324.96875 506.1875 326.85938L502.0625 326.85938Q502.09375 327.59375 502.46875 328.0Q502.84375 328.40625 503.42188 328.40625Q503.79688 328.40625 504.0625 328.20312Q504.32812 327.98438 504.46875 327.51562ZM504.5625 325.85938Q504.54688 325.14062 504.1875 324.76562Q503.84375 324.39062 503.32812 324.39062Q502.79688 324.39062 502.4375 324.78125Q502.09375 325.1875 502.09375 325.85938L504.5625 325.85938ZM510.28125 327.71875L511.9375 327.46875Q512.0469 327.95312 512.3594 328.20312Q512.6875 328.45312 513.2656 328.45312Q513.90625 328.45312 514.21875 328.21875Q514.4375 328.04688 514.4375 327.78125Q514.4375 327.59375 514.3281 327.46875Q514.2031 327.34375 513.78125 327.25Q511.78125 326.8125 511.25 326.45312Q510.51562 325.9375 510.51562 325.04688Q510.51562 324.23438 511.14062 323.6875Q511.78125 323.14062 513.125 323.14062Q514.40625 323.14062 515.03125 323.5625Q515.65625 323.96875 515.8906 324.78125L514.3281 325.0625Q514.2344 324.70312 513.9531 324.51562Q513.6719 324.3125 513.15625 324.3125Q512.5156 324.3125 512.2344 324.5Q512.0469 324.625 512.0469 324.82812Q512.0469 325.01562 512.2031 325.14062Q512.4219 325.29688 513.7344 325.59375Q515.0625 325.89062 515.5781 326.32812Q516.09375 326.76562 516.09375 327.54688Q516.09375 328.40625 515.375 329.03125Q514.6719 329.64062 513.2656 329.64062Q512.0 329.64062 511.25 329.125Q510.51562 328.60938 510.28125 327.71875ZM520.71875 323.28125L520.71875 324.59375L519.59375 324.59375L519.59375 327.09375Q519.59375 327.85938 519.625 327.98438Q519.65625 328.10938 519.7656 328.20312Q519.8906 328.28125 520.0469 328.28125Q520.28125 328.28125 520.7031 328.10938L520.84375 329.39062Q520.28125 329.64062 519.5469 329.64062Q519.1094 329.64062 518.75 329.5Q518.3906 329.34375 518.21875 329.10938Q518.0625 328.85938 517.9844 328.46875Q517.9375 328.17188 517.9375 327.29688L517.9375 324.59375L517.1875 324.59375L517.1875 323.28125L517.9375 323.28125L517.9375 322.04688L519.59375 321.07812L519.59375 323.28125L520.71875 323.28125ZM523.09375 325.17188L521.59375 324.90625Q521.84375 324.0 522.4531 323.57812Q523.0781 323.14062 524.2969 323.14062Q525.3906 323.14062 525.9219 323.40625Q526.46875 323.65625 526.6875 324.0625Q526.90625 324.45312 526.90625 325.53125L526.8906 327.45312Q526.8906 328.28125 526.96875 328.67188Q527.0469 329.04688 527.2656 329.5L525.6406 329.5Q525.5781 329.32812 525.4844 329.01562Q525.4375 328.85938 525.4219 328.8125Q525.0 329.23438 524.5156 329.4375Q524.0469 329.64062 523.5 329.64062Q522.53125 329.64062 521.96875 329.125Q521.4219 328.59375 521.4219 327.79688Q521.4219 327.26562 521.6719 326.85938Q521.9375 326.45312 522.3906 326.23438Q522.84375 326.0 523.7031 325.84375Q524.84375 325.625 525.2969 325.4375L525.2969 325.28125Q525.2969 324.79688 525.0625 324.59375Q524.8281 324.39062 524.1719 324.39062Q523.7344 324.39062 523.4844 324.5625Q523.25 324.73438 523.09375 325.17188ZM525.2969 326.51562Q524.9844 326.60938 524.2969 326.76562Q523.6094 326.90625 523.3906 327.04688Q523.0781 327.28125 523.0781 327.625Q523.0781 327.96875 523.3281 328.23438Q523.59375 328.48438 523.9844 328.48438Q524.4375 328.48438 524.84375 328.1875Q525.1406 327.96875 525.2344 327.64062Q525.2969 327.4375 525.2969 326.84375L525.2969 326.51562ZM531.71875 323.28125L531.71875 324.59375L530.59375 324.59375L530.59375 327.09375Q530.59375 327.85938 530.625 327.98438Q530.65625 328.10938 530.7656 328.20312Q530.8906 328.28125 531.0469 328.28125Q531.28125 328.28125 531.7031 328.10938L531.84375 329.39062Q531.28125 329.64062 530.5469 329.64062Q530.1094 329.64062 529.75 329.5Q529.3906 329.34375 529.21875 329.10938Q529.0625 328.85938 528.9844 328.46875Q528.9375 328.17188 528.9375 327.29688L528.9375 324.59375L528.1875 324.59375L528.1875 323.28125L528.9375 323.28125L528.9375 322.04688L530.59375 321.07812L530.59375 323.28125L531.71875 323.28125ZM536.46875 327.51562L538.1094 327.79688Q537.7969 328.70312 537.1094 329.17188Q536.4219 329.64062 535.40625 329.64062Q533.78125 329.64062 533.0 328.57812Q532.375 327.73438 532.375 326.4375Q532.375 324.89062 533.1875 324.01562Q534.0 323.14062 535.2344 323.14062Q536.625 323.14062 537.4219 324.0625Q538.2344 324.96875 538.1875 326.85938L534.0625 326.85938Q534.09375 327.59375 534.46875 328.0Q534.84375 328.40625 535.4219 328.40625Q535.7969 328.40625 536.0625 328.20312Q536.3281 327.98438 536.46875 327.51562ZM536.5625 325.85938Q536.5469 325.14062 536.1875 324.76562Q535.84375 324.39062 535.3281 324.39062Q534.7969 324.39062 534.4375 324.78125Q534.09375 325.1875 534.09375 325.85938L536.5625 325.85938ZM539.7344 323.28125L541.25 323.28125L541.25 324.125Q542.0781 323.14062 543.2031 323.14062Q543.7969 323.14062 544.2344 323.39062Q544.6719 323.625 544.9531 324.125Q545.3594 323.625 545.8281 323.39062Q546.3125 323.14062 546.8594 323.14062Q547.53125 323.14062 548.0 323.42188Q548.4844 323.6875 548.71875 324.23438Q548.8906 324.625 548.8906 325.51562L548.8906 329.5L547.25 329.5L547.25 325.9375Q547.25 325.01562 547.0781 324.75Q546.84375 324.39062 546.375 324.39062Q546.03125 324.39062 545.71875 324.60938Q545.4219 324.8125 545.28125 325.21875Q545.1406 325.625 545.1406 326.51562L545.1406 329.5L543.5 329.5L543.5 326.09375Q543.5 325.1875 543.40625 324.92188Q543.3281 324.65625 543.1406 324.53125Q542.9531 324.39062 542.6406 324.39062Q542.2656 324.39062 541.9531 324.60938Q541.65625 324.8125 541.5156 325.20312Q541.3906 325.57812 541.3906 326.46875L541.3906 329.5L539.7344 329.5L539.7344 323.28125ZM554.46875 327.51562L556.1094 327.79688Q555.7969 328.70312 555.1094 329.17188Q554.4219 329.64062 553.40625 329.64062Q551.78125 329.64062 551.0 328.57812Q550.375 327.73438 550.375 326.4375Q550.375 324.89062 551.1875 324.01562Q552.0 323.14062 553.2344 323.14062Q554.625 323.14062 555.4219 324.0625Q556.2344 324.96875 556.1875 326.85938L552.0625 326.85938Q552.09375 327.59375 552.46875 328.0Q552.84375 328.40625 553.4219 328.40625Q553.7969 328.40625 554.0625 328.20312Q554.3281 327.98438 554.46875 327.51562ZM554.5625 325.85938Q554.5469 325.14062 554.1875 324.76562Q553.84375 324.39062 553.3281 324.39062Q552.7969 324.39062 552.4375 324.78125Q552.09375 325.1875 552.09375 325.85938L554.5625 325.85938ZM563.5156 329.5L561.875 329.5L561.875 326.32812Q561.875 325.3125 561.7656 325.01562Q561.6719 324.71875 561.4219 324.5625Q561.1875 324.39062 560.8594 324.39062Q560.4219 324.39062 560.0781 324.625Q559.75 324.85938 559.625 325.25Q559.5 325.64062 559.5 326.6875L559.5 329.5L557.84375 329.5L557.84375 323.28125L559.375 323.28125L559.375 324.1875Q560.1875 323.14062 561.4375 323.14062Q561.96875 323.14062 562.4219 323.34375Q562.875 323.53125 563.1094 323.84375Q563.34375 324.14062 563.4219 324.53125Q563.5156 324.90625 563.5156 325.625L563.5156 329.5ZM567.71875 323.28125L567.71875 324.59375L566.59375 324.59375L566.59375 327.09375Q566.59375 327.85938 566.625 327.98438Q566.65625 328.10938 566.7656 328.20312Q566.8906 328.28125 567.0469 328.28125Q567.28125 328.28125 567.7031 328.10938L567.84375 329.39062Q567.28125 329.64062 566.5469 329.64062Q566.1094 329.64062 565.75 329.5Q565.3906 329.34375 565.21875 329.10938Q565.0625 328.85938 564.9844 328.46875Q564.9375 328.17188 564.9375 327.29688L564.9375 324.59375L564.1875 324.59375L564.1875 323.28125L564.9375 323.28125L564.9375 322.04688L566.59375 321.07812L566.59375 323.28125L567.71875 323.28125Z" fill-rule="nonzero"/><path fill="#000000" d="M27.234375 194.0L27.046875 192.03125Q28.03125 191.84375 28.5 191.3125Q28.96875 190.76562 28.96875 189.84375Q28.96875 188.85938 28.5625 188.375Q28.140625 187.875 27.59375 187.875Q27.234375 187.875 26.984375 188.07812Q26.734375 188.28125 26.546875 188.8125Q26.421875 189.15625 26.109375 190.42188Q25.703125 192.04688 25.125 192.70312Q24.296875 193.625 23.109375 193.625Q22.34375 193.625 21.671875 193.20312Q21.0 192.76562 20.65625 191.95312Q20.3125 191.125 20.3125 189.96875Q20.3125 188.09375 21.140625 187.14062Q21.96875 186.1875 23.34375 186.125L23.4375 188.15625Q22.65625 188.28125 22.328125 188.71875Q21.984375 189.14062 21.984375 190.0Q21.984375 190.875 22.34375 191.375Q22.578125 191.70312 22.96875 191.70312Q23.328125 191.70312 23.578125 191.39062Q23.890625 191.01562 24.25 189.54688Q24.59375 188.0625 24.96875 187.35938Q25.34375 186.64062 25.984375 186.25Q26.625 185.84375 27.578125 185.84375Q28.4375 185.84375 29.203125 186.32812Q29.953125 186.79688 30.3125 187.67188Q30.671875 188.54688 30.671875 189.85938Q30.671875 191.76562 29.796875 192.78125Q28.921875 193.79688 27.234375 194.0ZM23.234375 181.17188L24.765625 181.17188L24.765625 182.48438L27.703125 182.48438Q28.578125 182.48438 28.734375 182.45312Q28.875 182.40625 28.984375 182.28125Q29.078125 182.14062 29.078125 181.9375Q29.078125 181.67188 28.890625 181.17188L30.375 181.01562Q30.671875 181.67188 30.671875 182.53125Q30.671875 183.04688 30.5 183.46875Q30.3125 183.875 30.046875 184.07812Q29.765625 184.26562 29.296875 184.34375Q28.953125 184.40625 27.9375 184.40625L24.765625 184.40625L24.765625 185.28125L23.234375 185.28125L23.234375 184.40625L21.796875 184.40625L20.671875 182.48438L23.234375 182.48438L23.234375 181.17188ZM25.453125 178.0625L25.140625 179.79688Q24.09375 179.51562 23.59375 178.79688Q23.078125 178.07812 23.078125 176.65625Q23.078125 175.375 23.390625 174.75Q23.6875 174.10938 24.15625 173.85938Q24.625 173.60938 25.875 173.60938L28.109375 173.625Q29.078125 173.625 29.53125 173.53125Q29.984375 173.4375 30.5 173.1875L30.5 175.07812Q30.3125 175.15625 29.9375 175.26562Q29.765625 175.3125 29.703125 175.34375Q30.1875 175.82812 30.4375 176.39062Q30.671875 176.95312 30.671875 177.59375Q30.671875 178.70312 30.0625 179.35938Q29.453125 180.0 28.515625 180.0Q27.90625 180.0 27.421875 179.70312Q26.9375 179.40625 26.6875 178.89062Q26.421875 178.35938 26.234375 177.35938Q25.984375 176.01562 25.765625 175.48438L25.578125 175.48438Q25.015625 175.48438 24.78125 175.76562Q24.546875 176.03125 24.546875 176.79688Q24.546875 177.3125 24.75 177.59375Q24.953125 177.875 25.453125 178.0625ZM27.015625 175.48438Q27.140625 175.85938 27.3125 176.65625Q27.484375 177.45312 27.640625 177.70312Q27.90625 178.07812 28.3125 178.07812Q28.71875 178.07812 29.015625 177.78125Q29.3125 177.48438 29.3125 177.01562Q29.3125 176.5 28.96875 176.01562Q28.703125 175.67188 28.328125 175.5625Q28.09375 175.48438 27.390625 175.48438L27.015625 175.48438ZM23.234375 168.17188L24.765625 168.17188L24.765625 169.48438L27.703125 169.48438Q28.578125 169.48438 28.734375 169.45312Q28.875 169.40625 28.984375 169.28125Q29.078125 169.14062 29.078125 168.9375Q29.078125 168.67188 28.890625 168.17188L30.375 168.01562Q30.671875 168.67188 30.671875 169.53125Q30.671875 170.04688 30.5 170.46875Q30.3125 170.875 30.046875 171.07812Q29.765625 171.26562 29.296875 171.34375Q28.953125 171.40625 27.9375 171.40625L24.765625 171.40625L24.765625 172.28125L23.234375 172.28125L23.234375 171.40625L21.796875 171.40625L20.671875 169.48438L23.234375 169.48438L23.234375 168.17188ZM28.1875 162.29688L28.515625 160.375Q29.5625 160.75 30.125 161.54688Q30.671875 162.34375 30.671875 163.53125Q30.671875 165.42188 29.421875 166.34375Q28.4375 167.0625 26.921875 167.0625Q25.125 167.0625 24.109375 166.125Q23.078125 165.17188 23.078125 163.71875Q23.078125 162.10938 24.15625 161.17188Q25.21875 160.23438 27.421875 160.28125L27.421875 165.09375Q28.28125 165.0625 28.765625 164.625Q29.234375 164.17188 29.234375 163.51562Q29.234375 163.0625 28.984375 162.76562Q28.734375 162.45312 28.1875 162.29688ZM26.25 162.1875Q25.40625 162.20312 24.984375 162.60938Q24.546875 163.01562 24.546875 163.60938Q24.546875 164.23438 25.0 164.65625Q25.46875 165.0625 26.25 165.04688L26.25 162.1875ZM23.234375 157.64062L23.234375 155.875L24.234375 155.875Q23.078125 154.92188 23.078125 153.60938Q23.078125 152.90625 23.375 152.39062Q23.65625 151.875 24.234375 151.54688Q23.65625 151.07812 23.375 150.53125Q23.078125 149.96875 23.078125 149.34375Q23.078125 148.54688 23.40625 148.0Q23.71875 147.4375 24.359375 147.15625Q24.8125 146.95312 25.859375 146.95312L30.5 146.95312L30.5 148.875L26.34375 148.875Q25.265625 148.875 24.953125 149.07812Q24.546875 149.34375 24.546875 149.90625Q24.546875 150.29688 24.796875 150.65625Q25.03125 151.01562 25.515625 151.17188Q25.984375 151.32812 27.015625 151.32812L30.5 151.32812L30.5 153.25L26.515625 153.25Q25.46875 153.25 25.15625 153.35938Q24.84375 153.45312 24.703125 153.67188Q24.546875 153.89062 24.546875 154.25Q24.546875 154.70312 24.796875 155.0625Q25.03125 155.40625 25.484375 155.5625Q25.921875 155.71875 26.96875 155.71875L30.5 155.71875L30.5 157.64062L23.234375 157.64062ZM28.1875 141.29688L28.515625 139.375Q29.5625 139.75 30.125 140.54688Q30.671875 141.34375 30.671875 142.53125Q30.671875 144.42188 29.421875 145.34375Q28.4375 146.0625 26.921875 146.0625Q25.125 146.0625 24.109375 145.125Q23.078125 144.17188 23.078125 142.71875Q23.078125 141.10938 24.15625 140.17188Q25.21875 139.23438 27.421875 139.28125L27.421875 144.09375Q28.28125 144.0625 28.765625 143.625Q29.234375 143.17188 29.234375 142.51562Q29.234375 142.0625 28.984375 141.76562Q28.734375 141.45312 28.1875 141.29688ZM26.25 141.1875Q25.40625 141.20312 24.984375 141.60938Q24.546875 142.01562 24.546875 142.60938Q24.546875 143.23438 25.0 143.65625Q25.46875 144.0625 26.25 144.04688L26.25 141.1875ZM30.5 129.89062L30.5 131.8125L26.796875 131.8125Q25.625 131.8125 25.28125 131.9375Q24.921875 132.0625 24.734375 132.34375Q24.546875 132.60938 24.546875 133.0Q24.546875 133.5 24.828125 133.90625Q25.09375 134.29688 25.546875 134.45312Q26.0 134.59375 27.21875 134.59375L30.5 134.59375L30.5 136.51562L23.234375 136.51562L23.234375 134.71875L24.3125 134.71875Q23.078125 133.78125 23.078125 132.32812Q23.078125 131.70312 23.3125 131.17188Q23.53125 130.64062 23.890625 130.375Q24.25 130.10938 24.703125 130.0Q25.140625 129.89062 25.984375 129.89062L30.5 129.89062ZM23.234375 124.171875L24.765625 124.171875L24.765625 125.484375L27.703125 125.484375Q28.578125 125.484375 28.734375 125.453125Q28.875 125.40625 28.984375 125.28125Q29.078125 125.140625 29.078125 124.9375Q29.078125 124.671875 28.890625 124.171875L30.375 124.015625Q30.671875 124.671875 30.671875 125.53125Q30.671875 126.046875 30.5 126.46875Q30.3125 126.875 30.046875 127.078125Q29.765625 127.265625 29.296875 127.34375Q28.953125 127.40625 27.9375 127.40625L24.765625 127.40625L24.765625 128.28125L23.234375 128.28125L23.234375 127.40625L21.796875 127.40625L20.671875 125.484375L23.234375 125.484375L23.234375 124.171875Z" fill-rule="nonzero"/><path fill="#000000" d="M55.421875 242.57944L55.421875 234.06381L57.15625 234.06381L57.15625 241.12631L61.46875 241.12631L61.46875 242.57944L55.421875 242.57944ZM62.359375 235.51694L62.359375 233.98569L64.015625 233.98569L64.015625 235.51694L62.359375 235.51694ZM62.359375 242.57944L62.359375 236.36069L64.015625 236.36069L64.015625 242.57944L62.359375 242.57944ZM65.296875 242.57944L65.296875 233.98569L66.953125 233.98569L66.953125 238.54819L68.875 236.36069L70.90625 236.36069L68.78125 238.62631L71.0625 242.57944L69.28125 242.57944L67.71875 239.78256L66.953125 240.57944L66.953125 242.57944L65.296875 242.57944ZM75.96875 240.59506L77.609375 240.87631Q77.296875 241.78256 76.609375 242.25131Q75.921875 242.72006 74.90625 242.72006Q73.28125 242.72006 72.5 241.65756Q71.875 240.81381 71.875 239.51694Q71.875 237.97006 72.6875 237.09506Q73.5 236.22006 74.734375 236.22006Q76.125 236.22006 76.921875 237.14194Q77.734375 238.04819 77.6875 239.93881L73.5625 239.93881Q73.59375 240.67319 73.96875 241.07944Q74.34375 241.48569 74.921875 241.48569Q75.296875 241.48569 75.5625 241.28256Q75.828125 241.06381 75.96875 240.59506ZM76.0625 238.93881Q76.046875 238.22006 75.6875 237.84506Q75.34375 237.47006 74.828125 237.47006Q74.296875 237.47006 73.9375 237.86069Q73.59375 238.26694 73.59375 238.93881L76.0625 238.93881ZM85.21875 236.36069L85.21875 237.67319L84.09375 237.67319L84.09375 240.17319Q84.09375 240.93881 84.125 241.06381Q84.15625 241.18881 84.265625 241.28256Q84.390625 241.36069 84.546875 241.36069Q84.78125 241.36069 85.203125 241.18881L85.34375 242.47006Q84.78125 242.72006 84.046875 242.72006Q83.609375 242.72006 83.25 242.57944Q82.890625 242.42319 82.71875 242.18881Q82.5625 241.93881 82.484375 241.54819Q82.4375 241.25131 82.4375 240.37631L82.4375 237.67319L81.6875 237.67319L81.6875 236.36069L82.4375 236.36069L82.4375 235.12631L84.09375 234.15756L84.09375 236.36069L85.21875 236.36069ZM85.984375 239.37631Q85.984375 238.56381 86.390625 237.79819Q86.796875 237.01694 87.53125 236.62631Q88.265625 236.22006 89.1875 236.22006Q90.59375 236.22006 91.5 237.14194Q92.40625 238.04819 92.40625 239.45444Q92.40625 240.86069 91.484375 241.79819Q90.578125 242.72006 89.203125 242.72006Q88.34375 242.72006 87.5625 242.32944Q86.796875 241.93881 86.390625 241.20444Q85.984375 240.45444 85.984375 239.37631ZM87.671875 239.47006Q87.671875 240.39194 88.109375 240.89194Q88.546875 241.37631 89.1875 241.37631Q89.84375 241.37631 90.265625 240.89194Q90.703125 240.39194 90.703125 239.45444Q90.703125 238.54819 90.265625 238.06381Q89.84375 237.56381 89.1875 237.56381Q88.546875 237.56381 88.109375 238.06381Q87.671875 238.54819 87.671875 239.47006ZM100.453125 242.57944L100.453125 241.64194Q100.125 242.14194 99.5625 242.43881Q99.015625 242.72006 98.390625 242.72006Q97.765625 242.72006 97.265625 242.45444Q96.765625 242.17319 96.546875 241.67319Q96.328125 241.17319 96.328125 240.29819L96.328125 236.36069L97.96875 236.36069L97.96875 239.22006Q97.96875 240.53256 98.0625 240.82944Q98.15625 241.12631 98.390625 241.29819Q98.640625 241.47006 99.0 241.47006Q99.421875 241.47006 99.75 241.23569Q100.09375 241.00131 100.21875 240.65756Q100.34375 240.31381 100.34375 238.98569L100.34375 236.36069L101.984375 236.36069L101.984375 242.57944L100.453125 242.57944ZM102.78125 240.79819L104.4375 240.54819Q104.546875 241.03256 104.859375 241.28256Q105.1875 241.53256 105.765625 241.53256Q106.40625 241.53256 106.71875 241.29819Q106.9375 241.12631 106.9375 240.86069Q106.9375 240.67319 106.828125 240.54819Q106.703125 240.42319 106.28125 240.32944Q104.28125 239.89194 103.75 239.53256Q103.015625 239.01694 103.015625 238.12631Q103.015625 237.31381 103.640625 236.76694Q104.28125 236.22006 105.625 236.22006Q106.90625 236.22006 107.53125 236.64194Q108.15625 237.04819 108.390625 237.86069L106.828125 238.14194Q106.734375 237.78256 106.453125 237.59506Q106.171875 237.39194 105.65625 237.39194Q105.015625 237.39194 104.734375 237.57944Q104.546875 237.70444 104.546875 237.90756Q104.546875 238.09506 104.703125 238.22006Q104.921875 238.37631 106.234375 238.67319Q107.5625 238.97006 108.078125 239.40756Q108.59375 239.84506 108.59375 240.62631Q108.59375 241.48569 107.875 242.11069Q107.171875 242.72006 105.765625 242.72006Q104.5 242.72006 103.75 242.20444Q103.015625 241.68881 102.78125 240.79819ZM113.96875 240.59506L115.609375 240.87631Q115.296875 241.78256 114.609375 242.25131Q113.921875 242.72006 112.90625 242.72006Q111.28125 242.72006 110.5 241.65756Q109.875 240.81381 109.875 239.51694Q109.875 237.97006 110.6875 237.09506Q111.5 236.22006 112.734375 236.22006Q114.125 236.22006 114.921875 237.14194Q115.734375 238.04819 115.6875 239.93881L111.5625 239.93881Q111.59375 240.67319 111.96875 241.07944Q112.34375 241.48569 112.921875 241.48569Q113.296875 241.48569 113.5625 241.28256Q113.828125 241.06381 113.96875 240.59506ZM114.0625 238.93881Q114.046875 238.22006 113.6875 237.84506Q113.34375 237.47006 112.828125 237.47006Q112.296875 237.47006 111.9375 237.86069Q111.59375 238.26694 111.59375 238.93881L114.0625 238.93881ZM119.640625 236.36069L120.5625 236.36069L120.5625 235.89194Q120.5625 235.09506 120.71875 234.72006Q120.890625 234.32944 121.328125 234.09506Q121.78125 233.84506 122.46875 233.84506Q123.171875 233.84506 123.84375 234.04819L123.625 235.20444Q123.234375 235.11069 122.875 235.11069Q122.515625 235.11069 122.359375 235.28256Q122.203125 235.43881 122.203125 235.92319L122.203125 236.36069L123.4375 236.36069L123.4375 237.65756L122.203125 237.65756L122.203125 242.57944L120.5625 242.57944L120.5625 237.65756L119.640625 237.65756L119.640625 236.36069ZM125.9375 242.57944L124.296875 242.57944L124.296875 236.36069L125.828125 236.36069L125.828125 237.23569Q126.21875 236.61069 126.53125 236.42319Q126.84375 236.22006 127.234375 236.22006Q127.796875 236.22006 128.32812 236.53256L127.8125 237.95444Q127.390625 237.68881 127.046875 237.68881Q126.6875 237.68881 126.453125 237.89194Q126.21875 238.07944 126.078125 238.57944Q125.9375 239.06381 125.9375 240.65756L125.9375 242.57944ZM132.96875 240.59506L134.60938 240.87631Q134.29688 241.78256 133.60938 242.25131Q132.92188 242.72006 131.90625 242.72006Q130.28125 242.72006 129.5 241.65756Q128.875 240.81381 128.875 239.51694Q128.875 237.97006 129.6875 237.09506Q130.5 236.22006 131.73438 236.22006Q133.125 236.22006 133.92188 237.14194Q134.73438 238.04819 134.6875 239.93881L130.5625 239.93881Q130.59375 240.67319 130.96875 241.07944Q131.34375 241.48569 131.92188 241.48569Q132.29688 241.48569 132.5625 241.28256Q132.82812 241.06381 132.96875 240.59506ZM133.0625 238.93881Q133.04688 238.22006 132.6875 237.84506Q132.34375 237.47006 131.82812 237.47006Q131.29688 237.47006 130.9375 237.86069Q130.59375 238.26694 130.59375 238.93881L133.0625 238.93881ZM140.42188 244.95444L140.42188 241.81381Q140.10938 242.23569 139.625 242.48569Q139.14062 242.72006 138.59375 242.72006Q137.53125 242.72006 136.84375 241.92319Q136.03125 240.98569 136.03125 239.39194Q136.03125 237.89194 136.78125 237.06381Q137.54688 236.22006 138.67188 236.22006Q139.29688 236.22006 139.75 236.48569Q140.20312 236.73569 140.5625 237.28256L140.5625 236.36069L142.07812 236.36069L142.07812 244.95444L140.42188 244.95444ZM140.48438 239.39194Q140.48438 238.43881 140.09375 237.97006Q139.70312 237.50131 139.10938 237.50131Q138.51562 237.50131 138.10938 237.98569Q137.71875 238.45444 137.71875 239.48569Q137.71875 240.51694 138.09375 240.97006Q138.48438 241.42319 139.0625 241.42319Q139.625 241.42319 140.04688 240.90756Q140.48438 240.39194 140.48438 239.39194ZM147.45312 242.57944L147.45312 241.64194Q147.125 242.14194 146.5625 242.43881Q146.01562 242.72006 145.39062 242.72006Q144.76562 242.72006 144.26562 242.45444Q143.76562 242.17319 143.54688 241.67319Q143.32812 241.17319 143.32812 240.29819L143.32812 236.36069L144.96875 236.36069L144.96875 239.22006Q144.96875 240.53256 145.0625 240.82944Q145.15625 241.12631 145.39062 241.29819Q145.64062 241.47006 146.0 241.47006Q146.42188 241.47006 146.75 241.23569Q147.09375 241.00131 147.21875 240.65756Q147.34375 240.31381 147.34375 238.98569L147.34375 236.36069L148.98438 236.36069L148.98438 242.57944L147.45312 242.57944ZM153.96875 240.59506L155.60938 240.87631Q155.29688 241.78256 154.60938 242.25131Q153.92188 242.72006 152.90625 242.72006Q151.28125 242.72006 150.5 241.65756Q149.875 240.81381 149.875 239.51694Q149.875 237.97006 150.6875 237.09506Q151.5 236.22006 152.73438 236.22006Q154.125 236.22006 154.92188 237.14194Q155.73438 238.04819 155.6875 239.93881L151.5625 239.93881Q151.59375 240.67319 151.96875 241.07944Q152.34375 241.48569 152.92188 241.48569Q153.29688 241.48569 153.5625 241.28256Q153.82812 241.06381 153.96875 240.59506ZM154.0625 238.93881Q154.04688 238.22006 153.6875 237.84506Q153.34375 237.47006 152.82812 237.47006Q152.29688 237.47006 151.9375 237.86069Q151.59375 238.26694 151.59375 238.93881L154.0625 238.93881ZM163.01562 242.57944L161.375 242.57944L161.375 239.40756Q161.375 238.39194 161.26562 238.09506Q161.17188 237.79819 160.92188 237.64194Q160.6875 237.47006 160.35938 237.47006Q159.92188 237.47006 159.57812 237.70444Q159.25 237.93881 159.125 238.32944Q159.0 238.72006 159.0 239.76694L159.0 242.57944L157.34375 242.57944L157.34375 236.36069L158.875 236.36069L158.875 237.26694Q159.6875 236.22006 160.9375 236.22006Q161.46875 236.22006 161.92188 236.42319Q162.375 236.61069 162.60938 236.92319Q162.84375 237.22006 162.92188 237.61069Q163.01562 237.98569 163.01562 238.70444L163.01562 242.57944ZM167.21875 236.36069L167.21875 237.67319L166.09375 237.67319L166.09375 240.17319Q166.09375 240.93881 166.125 241.06381Q166.15625 241.18881 166.26562 241.28256Q166.39062 241.36069 166.54688 241.36069Q166.78125 241.36069 167.20312 241.18881L167.34375 242.47006Q166.78125 242.72006 166.04688 242.72006Q165.60938 242.72006 165.25 242.57944Q164.89062 242.42319 164.71875 242.18881Q164.5625 241.93881 164.48438 241.54819Q164.4375 241.25131 164.4375 240.37631L164.4375 237.67319L163.6875 237.67319L163.6875 236.36069L164.4375 236.36069L164.4375 235.12631L166.09375 234.15756L166.09375 236.36069L167.21875 236.36069ZM168.35938 242.57944L168.35938 233.98569L170.01562 233.98569L170.01562 242.57944L168.35938 242.57944ZM170.57812 236.36069L172.32812 236.36069L173.82812 240.76694L175.28125 236.36069L176.98438 236.36069L174.78125 242.34506L174.39062 243.42319Q174.17188 243.97006 173.96875 244.25131Q173.78125 244.54819 173.51562 244.72006Q173.26562 244.90756 172.89062 245.00131Q172.53125 245.11069 172.0625 245.11069Q171.57812 245.11069 171.125 245.00131L170.98438 243.72006Q171.375 243.79819 171.67188 243.79819Q172.25 243.79819 172.51562 243.45444Q172.79688 243.12631 172.95312 242.59506L170.57812 236.36069Z" fill-rule="nonzero"/><path fill="#000000" d="M63.421875 195.28972L63.421875 186.7741L65.15625 186.7741L65.15625 193.8366L69.46875 193.8366L69.46875 195.28972L63.421875 195.28972ZM73.96875 193.30534L75.609375 193.5866Q75.296875 194.49284 74.609375 194.9616Q73.921875 195.43034 72.90625 195.43034Q71.28125 195.43034 70.5 194.36784Q69.875 193.5241 69.875 192.22722Q69.875 190.68034 70.6875 189.80534Q71.5 188.93034 72.734375 188.93034Q74.125 188.93034 74.921875 189.85222Q75.734375 190.75847 75.6875 192.6491L71.5625 192.6491Q71.59375 193.38347 71.96875 193.78972Q72.34375 194.19597 72.921875 194.19597Q73.296875 194.19597 73.5625 193.99284Q73.828125 193.7741 73.96875 193.30534ZM74.0625 191.6491Q74.046875 190.93034 73.6875 190.55534Q73.34375 190.18034 72.828125 190.18034Q72.296875 190.18034 71.9375 190.57097Q71.59375 190.97722 71.59375 191.6491L74.0625 191.6491ZM78.59375 190.9616L77.09375 190.69597Q77.34375 189.78972 77.953125 189.36784Q78.578125 188.93034 79.796875 188.93034Q80.890625 188.93034 81.421875 189.19597Q81.96875 189.44597 82.1875 189.85222Q82.40625 190.24284 82.40625 191.32097L82.390625 193.24284Q82.390625 194.07097 82.46875 194.4616Q82.546875 194.8366 82.765625 195.28972L81.140625 195.28972Q81.078125 195.11784 80.984375 194.80534Q80.9375 194.6491 80.921875 194.60222Q80.5 195.0241 80.015625 195.22722Q79.546875 195.43034 79.0 195.43034Q78.03125 195.43034 77.46875 194.91472Q76.921875 194.38347 76.921875 193.5866Q76.921875 193.05534 77.171875 192.6491Q77.4375 192.24284 77.890625 192.0241Q78.34375 191.78972 79.203125 191.63347Q80.34375 191.41472 80.796875 191.22722L80.796875 191.07097Q80.796875 190.5866 80.5625 190.38347Q80.328125 190.18034 79.671875 190.18034Q79.234375 190.18034 78.984375 190.35222Q78.75 190.5241 78.59375 190.9616ZM80.796875 192.30534Q80.484375 192.3991 79.796875 192.55534Q79.109375 192.69597 78.890625 192.8366Q78.578125 193.07097 78.578125 193.41472Q78.578125 193.75847 78.828125 194.0241Q79.09375 194.2741 79.484375 194.2741Q79.9375 194.2741 80.34375 193.97722Q80.640625 193.75847 80.734375 193.43034Q80.796875 193.22722 80.796875 192.63347L80.796875 192.30534ZM85.9375 195.28972L84.296875 195.28972L84.296875 189.07097L85.828125 189.07097L85.828125 189.94597Q86.21875 189.32097 86.53125 189.13347Q86.84375 188.93034 87.234375 188.93034Q87.796875 188.93034 88.328125 189.24284L87.8125 190.66472Q87.390625 190.3991 87.046875 190.3991Q86.6875 190.3991 86.453125 190.60222Q86.21875 190.78972 86.078125 191.28972Q85.9375 191.7741 85.9375 193.36784L85.9375 195.28972ZM95.015625 195.28972L93.375 195.28972L93.375 192.11784Q93.375 191.10222 93.265625 190.80534Q93.171875 190.50847 92.921875 190.35222Q92.6875 190.18034 92.359375 190.18034Q91.921875 190.18034 91.578125 190.41472Q91.25 190.6491 91.125 191.03972Q91.0 191.43034 91.0 192.47722L91.0 195.28972L89.34375 195.28972L89.34375 189.07097L90.875 189.07097L90.875 189.97722Q91.6875 188.93034 92.9375 188.93034Q93.46875 188.93034 93.921875 189.13347Q94.375 189.32097 94.609375 189.63347Q94.84375 189.93034 94.921875 190.32097Q95.015625 190.69597 95.015625 191.41472L95.015625 195.28972ZM102.21875 189.07097L102.21875 190.38347L101.09375 190.38347L101.09375 192.88347Q101.09375 193.6491 101.125 193.7741Q101.15625 193.8991 101.265625 193.99284Q101.390625 194.07097 101.546875 194.07097Q101.78125 194.07097 102.203125 193.8991L102.34375 195.18034Q101.78125 195.43034 101.046875 195.43034Q100.609375 195.43034 100.25 195.28972Q99.890625 195.13347 99.71875 194.8991Q99.5625 194.6491 99.484375 194.25847Q99.4375 193.9616 99.4375 193.0866L99.4375 190.38347L98.6875 190.38347L98.6875 189.07097L99.4375 189.07097L99.4375 187.8366L101.09375 186.86784L101.09375 189.07097L102.21875 189.07097ZM102.984375 192.0866Q102.984375 191.2741 103.390625 190.50847Q103.796875 189.72722 104.53125 189.3366Q105.265625 188.93034 106.1875 188.93034Q107.59375 188.93034 108.5 189.85222Q109.40625 190.75847 109.40625 192.16472Q109.40625 193.57097 108.484375 194.50847Q107.578125 195.43034 106.203125 195.43034Q105.34375 195.43034 104.5625 195.03972Q103.796875 194.6491 103.390625 193.91472Q102.984375 193.16472 102.984375 192.0866ZM104.671875 192.18034Q104.671875 193.10222 105.109375 193.60222Q105.546875 194.0866 106.1875 194.0866Q106.84375 194.0866 107.265625 193.60222Q107.703125 193.10222 107.703125 192.16472Q107.703125 191.25847 107.265625 190.7741Q106.84375 190.2741 106.1875 190.2741Q105.546875 190.2741 105.109375 190.7741Q104.671875 191.25847 104.671875 192.18034ZM117.453125 195.28972L117.453125 194.35222Q117.125 194.85222 116.5625 195.1491Q116.015625 195.43034 115.390625 195.43034Q114.765625 195.43034 114.265625 195.16472Q113.765625 194.88347 113.546875 194.38347Q113.328125 193.88347 113.328125 193.00847L113.328125 189.07097L114.96875 189.07097L114.96875 191.93034Q114.96875 193.24284 115.0625 193.53972Q115.15625 193.8366 115.390625 194.00847Q115.640625 194.18034 116.0 194.18034Q116.421875 194.18034 116.75 193.94597Q117.09375 193.7116 117.21875 193.36784Q117.34375 193.0241 117.34375 191.69597L117.34375 189.07097L118.984375 189.07097L118.984375 195.28972L117.453125 195.28972ZM119.78125 193.50847L121.4375 193.25847Q121.546875 193.74284 121.859375 193.99284Q122.1875 194.24284 122.765625 194.24284Q123.40625 194.24284 123.71875 194.00847Q123.9375 193.8366 123.9375 193.57097Q123.9375 193.38347 123.828125 193.25847Q123.703125 193.13347 123.28125 193.03972Q121.28125 192.60222 120.75 192.24284Q120.015625 191.72722 120.015625 190.8366Q120.015625 190.0241 120.640625 189.47722Q121.28125 188.93034 122.625 188.93034Q123.90625 188.93034 124.53125 189.35222Q125.15625 189.75847 125.390625 190.57097L123.828125 190.85222Q123.734375 190.49284 123.453125 190.30534Q123.171875 190.10222 122.65625 190.10222Q122.015625 190.10222 121.734375 190.28972Q121.546875 190.41472 121.546875 190.61784Q121.546875 190.80534 121.703125 190.93034Q121.921875 191.0866 123.234375 191.38347Q124.5625 191.68034 125.078125 192.11784Q125.59375 192.55534 125.59375 193.3366Q125.59375 194.19597 124.875 194.82097Q124.171875 195.43034 122.765625 195.43034Q121.5 195.43034 120.75 194.91472Q120.015625 194.3991 119.78125 193.50847ZM130.96875 193.30534L132.60938 193.5866Q132.29688 194.49284 131.60938 194.9616Q130.92188 195.43034 129.90625 195.43034Q128.28125 195.43034 127.5 194.36784Q126.875 193.5241 126.875 192.22722Q126.875 190.68034 127.6875 189.80534Q128.5 188.93034 129.73438 188.93034Q131.125 188.93034 131.92188 189.85222Q132.73438 190.75847 132.6875 192.6491L128.5625 192.6491Q128.59375 193.38347 128.96875 193.78972Q129.34375 194.19597 129.92188 194.19597Q130.29688 194.19597 130.5625 193.99284Q130.82812 193.7741 130.96875 193.30534ZM131.0625 191.6491Q131.04688 190.93034 130.6875 190.55534Q130.34375 190.18034 129.82812 190.18034Q129.29688 190.18034 128.9375 190.57097Q128.59375 190.97722 128.59375 191.6491L131.0625 191.6491ZM141.42188 197.66472L141.42188 194.5241Q141.10938 194.94597 140.625 195.19597Q140.14062 195.43034 139.59375 195.43034Q138.53125 195.43034 137.84375 194.63347Q137.03125 193.69597 137.03125 192.10222Q137.03125 190.60222 137.78125 189.7741Q138.54688 188.93034 139.67188 188.93034Q140.29688 188.93034 140.75 189.19597Q141.20312 189.44597 141.5625 189.99284L141.5625 189.07097L143.07812 189.07097L143.07812 197.66472L141.42188 197.66472ZM141.48438 192.10222Q141.48438 191.1491 141.09375 190.68034Q140.70312 190.2116 140.10938 190.2116Q139.51562 190.2116 139.10938 190.69597Q138.71875 191.16472 138.71875 192.19597Q138.71875 193.22722 139.09375 193.68034Q139.48438 194.13347 140.0625 194.13347Q140.625 194.13347 141.04688 193.61784Q141.48438 193.10222 141.48438 192.10222ZM148.45312 195.28972L148.45312 194.35222Q148.125 194.85222 147.5625 195.1491Q147.01562 195.43034 146.39062 195.43034Q145.76562 195.43034 145.26562 195.16472Q144.76562 194.88347 144.54688 194.38347Q144.32812 193.88347 144.32812 193.00847L144.32812 189.07097L145.96875 189.07097L145.96875 191.93034Q145.96875 193.24284 146.0625 193.53972Q146.15625 193.8366 146.39062 194.00847Q146.64062 194.18034 147.0 194.18034Q147.42188 194.18034 147.75 193.94597Q148.09375 193.7116 148.21875 193.36784Q148.34375 193.0241 148.34375 191.69597L148.34375 189.07097L149.98438 189.07097L149.98438 195.28972L148.45312 195.28972ZM151.35938 188.22722L151.35938 186.69597L153.01562 186.69597L153.01562 188.22722L151.35938 188.22722ZM151.35938 195.28972L151.35938 189.07097L153.01562 189.07097L153.01562 195.28972L151.35938 195.28972ZM159.78125 190.8991L158.17188 191.19597Q158.07812 190.7116 157.78125 190.47722Q157.5 190.22722 157.04688 190.22722Q156.42188 190.22722 156.04688 190.6491Q155.6875 191.07097 155.6875 192.07097Q155.6875 193.18034 156.0625 193.63347Q156.4375 194.0866 157.0625 194.0866Q157.53125 194.0866 157.82812 193.82097Q158.125 193.55534 158.25 192.8991L159.875 193.18034Q159.625 194.28972 158.90625 194.86784Q158.1875 195.43034 156.98438 195.43034Q155.625 195.43034 154.8125 194.57097Q154.0 193.7116 154.0 192.18034Q154.0 190.6491 154.8125 189.78972Q155.625 188.93034 157.01562 188.93034Q158.15625 188.93034 158.82812 189.41472Q159.5 189.8991 159.78125 190.8991ZM161.29688 195.28972L161.29688 186.69597L162.95312 186.69597L162.95312 191.25847L164.875 189.07097L166.90625 189.07097L164.78125 191.3366L167.0625 195.28972L165.28125 195.28972L163.71875 192.49284L162.95312 193.28972L162.95312 195.28972L161.29688 195.28972ZM168.35938 195.28972L168.35938 186.69597L170.01562 186.69597L170.01562 195.28972L168.35938 195.28972ZM170.57812 189.07097L172.32812 189.07097L173.82812 193.47722L175.28125 189.07097L176.98438 189.07097L174.78125 195.05534L174.39062 196.13347Q174.17188 196.68034 173.96875 196.9616Q173.78125 197.25847 173.51562 197.43034Q173.26562 197.61784 172.89062 197.7116Q172.53125 197.82097 172.0625 197.82097Q171.57812 197.82097 171.125 197.7116L170.98438 196.43034Q171.375 196.50847 171.67188 196.50847Q172.25 196.50847 172.51562 196.16472Q172.79688 195.8366 172.95312 195.30534L170.57812 189.07097Z" fill-rule="nonzero"/><path fill="#000000" d="M67.390625 148.0L67.390625 139.40625L73.28125 139.40625L73.28125 140.85938L69.125 140.85938L69.125 142.89062L72.703125 142.89062L72.703125 144.34375L69.125 144.34375L69.125 148.0L67.390625 148.0ZM76.96875 146.01562L78.609375 146.29688Q78.296875 147.20312 77.609375 147.67188Q76.921875 148.14062 75.90625 148.14062Q74.28125 148.14062 73.5 147.07812Q72.875 146.23438 72.875 144.9375Q72.875 143.39062 73.6875 142.51562Q74.5 141.64062 75.734375 141.64062Q77.125 141.64062 77.921875 142.5625Q78.734375 143.46875 78.6875 145.35938L74.5625 145.35938Q74.59375 146.09375 74.96875 146.5Q75.34375 146.90625 75.921875 146.90625Q76.296875 146.90625 76.5625 146.70312Q76.828125 146.48438 76.96875 146.01562ZM77.0625 144.35938Q77.046875 143.64062 76.6875 143.26562Q76.34375 142.89062 75.828125 142.89062Q75.296875 142.89062 74.9375 143.28125Q74.59375 143.6875 74.59375 144.35938L77.0625 144.35938ZM80.359375 148.0L80.359375 139.40625L82.015625 139.40625L82.015625 148.0L80.359375 148.0ZM86.21875 141.78125L86.21875 143.09375L85.09375 143.09375L85.09375 145.59375Q85.09375 146.35938 85.125 146.48438Q85.15625 146.60938 85.265625 146.70312Q85.390625 146.78125 85.546875 146.78125Q85.78125 146.78125 86.203125 146.60938L86.34375 147.89062Q85.78125 148.14062 85.046875 148.14062Q84.609375 148.14062 84.25 148.0Q83.890625 147.84375 83.71875 147.60938Q83.5625 147.35938 83.484375 146.96875Q83.4375 146.67188 83.4375 145.79688L83.4375 143.09375L82.6875 143.09375L82.6875 141.78125L83.4375 141.78125L83.4375 140.54688L85.09375 139.57812L85.09375 141.78125L86.21875 141.78125ZM95.78125 143.60938L94.171875 143.90625Q94.078125 143.42188 93.78125 143.1875Q93.5 142.9375 93.046875 142.9375Q92.421875 142.9375 92.046875 143.35938Q91.6875 143.78125 91.6875 144.78125Q91.6875 145.89062 92.0625 146.34375Q92.4375 146.79688 93.0625 146.79688Q93.53125 146.79688 93.828125 146.53125Q94.125 146.26562 94.25 145.60938L95.875 145.89062Q95.625 147.0 94.90625 147.57812Q94.1875 148.14062 92.984375 148.14062Q91.625 148.14062 90.8125 147.28125Q90.0 146.42188 90.0 144.89062Q90.0 143.35938 90.8125 142.5Q91.625 141.64062 93.015625 141.64062Q94.15625 141.64062 94.828125 142.125Q95.5 142.60938 95.78125 143.60938ZM96.984375 144.79688Q96.984375 143.98438 97.390625 143.21875Q97.796875 142.4375 98.53125 142.04688Q99.265625 141.64062 100.1875 141.64062Q101.59375 141.64062 102.5 142.5625Q103.40625 143.46875 103.40625 144.875Q103.40625 146.28125 102.484375 147.21875Q101.578125 148.14062 100.203125 148.14062Q99.34375 148.14062 98.5625 147.75Q97.796875 147.35938 97.390625 146.625Q96.984375 145.875 96.984375 144.79688ZM98.671875 144.89062Q98.671875 145.8125 99.109375 146.3125Q99.546875 146.79688 100.1875 146.79688Q100.84375 146.79688 101.265625 146.3125Q101.703125 145.8125 101.703125 144.875Q101.703125 143.96875 101.265625 143.48438Q100.84375 142.98438 100.1875 142.98438Q99.546875 142.98438 99.109375 143.48438Q98.671875 143.96875 98.671875 144.89062ZM110.015625 148.0L108.375 148.0L108.375 144.82812Q108.375 143.8125 108.265625 143.51562Q108.171875 143.21875 107.921875 143.0625Q107.6875 142.89062 107.359375 142.89062Q106.921875 142.89062 106.578125 143.125Q106.25 143.35938 106.125 143.75Q106.0 144.14062 106.0 145.1875L106.0 148.0L104.34375 148.0L104.34375 141.78125L105.875 141.78125L105.875 142.6875Q106.6875 141.64062 107.9375 141.64062Q108.46875 141.64062 108.921875 141.84375Q109.375 142.03125 109.609375 142.34375Q109.84375 142.64062 109.921875 143.03125Q110.015625 143.40625 110.015625 144.125L110.015625 148.0ZM110.640625 141.78125L111.5625 141.78125L111.5625 141.3125Q111.5625 140.51562 111.71875 140.14062Q111.890625 139.75 112.328125 139.51562Q112.78125 139.26562 113.46875 139.26562Q114.171875 139.26562 114.84375 139.46875L114.625 140.625Q114.234375 140.53125 113.875 140.53125Q113.515625 140.53125 113.359375 140.70312Q113.203125 140.85938 113.203125 141.34375L113.203125 141.78125L114.4375 141.78125L114.4375 143.07812L113.203125 143.07812L113.203125 148.0L111.5625 148.0L111.5625 143.07812L110.640625 143.07812L110.640625 141.78125ZM115.359375 140.9375L115.359375 139.40625L117.015625 139.40625L117.015625 140.9375L115.359375 140.9375ZM115.359375 148.0L115.359375 141.78125L117.015625 141.78125L117.015625 148.0L115.359375 148.0ZM124.0625 148.0L122.546875 148.0L122.546875 147.07812Q122.15625 147.625 121.640625 147.89062Q121.125 148.14062 120.59375 148.14062Q119.515625 148.14062 118.75 147.28125Q118.0 146.40625 118.0 144.85938Q118.0 143.28125 118.734375 142.46875Q119.484375 141.64062 120.625 141.64062Q121.65625 141.64062 122.421875 142.5L122.421875 139.40625L124.0625 139.40625L124.0625 148.0ZM119.671875 144.75Q119.671875 145.75 119.953125 146.1875Q120.34375 146.84375 121.0625 146.84375Q121.625 146.84375 122.015625 146.35938Q122.421875 145.875 122.421875 144.90625Q122.421875 143.84375 122.03125 143.375Q121.65625 142.89062 121.046875 142.89062Q120.46875 142.89062 120.0625 143.35938Q119.671875 143.82812 119.671875 144.75ZM128.96875 146.01562L130.60938 146.29688Q130.29688 147.20312 129.60938 147.67188Q128.92188 148.14062 127.90625 148.14062Q126.28125 148.14062 125.5 147.07812Q124.875 146.23438 124.875 144.9375Q124.875 143.39062 125.6875 142.51562Q126.5 141.64062 127.734375 141.64062Q129.125 141.64062 129.92188 142.5625Q130.73438 143.46875 130.6875 145.35938L126.5625 145.35938Q126.59375 146.09375 126.96875 146.5Q127.34375 146.90625 127.921875 146.90625Q128.29688 146.90625 128.5625 146.70312Q128.82812 146.48438 128.96875 146.01562ZM129.0625 144.35938Q129.04688 143.64062 128.6875 143.26562Q128.34375 142.89062 127.828125 142.89062Q127.296875 142.89062 126.9375 143.28125Q126.59375 143.6875 126.59375 144.35938L129.0625 144.35938ZM138.01562 148.0L136.375 148.0L136.375 144.82812Q136.375 143.8125 136.26562 143.51562Q136.17188 143.21875 135.92188 143.0625Q135.6875 142.89062 135.35938 142.89062Q134.92188 142.89062 134.57812 143.125Q134.25 143.35938 134.125 143.75Q134.0 144.14062 134.0 145.1875L134.0 148.0L132.34375 148.0L132.34375 141.78125L133.875 141.78125L133.875 142.6875Q134.6875 141.64062 135.9375 141.64062Q136.46875 141.64062 136.92188 141.84375Q137.375 142.03125 137.60938 142.34375Q137.84375 142.64062 137.92188 143.03125Q138.01562 143.40625 138.01562 144.125L138.01562 148.0ZM142.21875 141.78125L142.21875 143.09375L141.09375 143.09375L141.09375 145.59375Q141.09375 146.35938 141.125 146.48438Q141.15625 146.60938 141.26562 146.70312Q141.39062 146.78125 141.54688 146.78125Q141.78125 146.78125 142.20312 146.60938L142.34375 147.89062Q141.78125 148.14062 141.04688 148.14062Q140.60938 148.14062 140.25 148.0Q139.89062 147.84375 139.71875 147.60938Q139.5625 147.35938 139.48438 146.96875Q139.4375 146.67188 139.4375 145.79688L139.4375 143.09375L138.6875 143.09375L138.6875 141.78125L139.4375 141.78125L139.4375 140.54688L141.09375 139.57812L141.09375 141.78125L142.21875 141.78125ZM150.45312 148.0L150.45312 147.0625Q150.125 147.5625 149.5625 147.85938Q149.01562 148.14062 148.39062 148.14062Q147.76562 148.14062 147.26562 147.875Q146.76562 147.59375 146.54688 147.09375Q146.32812 146.59375 146.32812 145.71875L146.32812 141.78125L147.96875 141.78125L147.96875 144.64062Q147.96875 145.95312 148.0625 146.25Q148.15625 146.54688 148.39062 146.71875Q148.64062 146.89062 149.0 146.89062Q149.42188 146.89062 149.75 146.65625Q150.09375 146.42188 150.21875 146.07812Q150.34375 145.73438 150.34375 144.40625L150.34375 141.78125L151.98438 141.78125L151.98438 148.0L150.45312 148.0ZM152.78125 146.21875L154.4375 145.96875Q154.54688 146.45312 154.85938 146.70312Q155.1875 146.95312 155.76562 146.95312Q156.40625 146.95312 156.71875 146.71875Q156.9375 146.54688 156.9375 146.28125Q156.9375 146.09375 156.82812 145.96875Q156.70312 145.84375 156.28125 145.75Q154.28125 145.3125 153.75 144.95312Q153.01562 144.4375 153.01562 143.54688Q153.01562 142.73438 153.64062 142.1875Q154.28125 141.64062 155.625 141.64062Q156.90625 141.64062 157.53125 142.0625Q158.15625 142.46875 158.39062 143.28125L156.82812 143.5625Q156.73438 143.20312 156.45312 143.01562Q156.17188 142.8125 155.65625 142.8125Q155.01562 142.8125 154.73438 143.0Q154.54688 143.125 154.54688 143.32812Q154.54688 143.51562 154.70312 143.64062Q154.92188 143.79688 156.23438 144.09375Q157.5625 144.39062 158.07812 144.82812Q158.59375 145.26562 158.59375 146.04688Q158.59375 146.90625 157.875 147.53125Q157.17188 148.14062 155.76562 148.14062Q154.5 148.14062 153.75 147.625Q153.01562 147.10938 152.78125 146.21875ZM160.35938 140.9375L160.35938 139.40625L162.01562 139.40625L162.01562 140.9375L160.35938 140.9375ZM160.35938 148.0L160.35938 141.78125L162.01562 141.78125L162.01562 148.0L160.35938 148.0ZM169.01562 148.0L167.375 148.0L167.375 144.82812Q167.375 143.8125 167.26562 143.51562Q167.17188 143.21875 166.92188 143.0625Q166.6875 142.89062 166.35938 142.89062Q165.92188 142.89062 165.57812 143.125Q165.25 143.35938 165.125 143.75Q165.0 144.14062 165.0 145.1875L165.0 148.0L163.34375 148.0L163.34375 141.78125L164.875 141.78125L164.875 142.6875Q165.6875 141.64062 166.9375 141.64062Q167.46875 141.64062 167.92188 141.84375Q168.375 142.03125 168.60938 142.34375Q168.84375 142.64062 168.92188 143.03125Q169.01562 143.40625 169.01562 144.125L169.01562 148.0ZM170.20312 148.40625L172.09375 148.64062Q172.14062 148.96875 172.3125 149.09375Q172.54688 149.26562 173.04688 149.26562Q173.6875 149.26562 174.01562 149.07812Q174.23438 148.9375 174.34375 148.65625Q174.42188 148.45312 174.42188 147.90625L174.42188 146.98438Q173.67188 148.0 172.54688 148.0Q171.29688 148.0 170.5625 146.9375Q170.0 146.09375 170.0 144.85938Q170.0 143.28125 170.75 142.46875Q171.5 141.64062 172.625 141.64062Q173.76562 141.64062 174.51562 142.65625L174.51562 141.78125L176.0625 141.78125L176.0625 147.35938Q176.0625 148.46875 175.875 149.0Q175.70312 149.54688 175.375 149.85938Q175.04688 150.17188 174.5 150.34375Q173.95312 150.53125 173.10938 150.53125Q171.53125 150.53125 170.85938 149.98438Q170.20312 149.4375 170.20312 148.60938Q170.20312 148.53125 170.20312 148.40625ZM171.6875 144.76562Q171.6875 145.75 172.0625 146.21875Q172.45312 146.67188 173.01562 146.67188Q173.60938 146.67188 174.03125 146.20312Q174.45312 145.71875 174.45312 144.79688Q174.45312 143.82812 174.04688 143.35938Q173.65625 142.89062 173.04688 142.89062Q172.45312 142.89062 172.0625 143.35938Q171.6875 143.8125 171.6875 144.76562Z" fill-rule="nonzero"/><path fill="#000000" d="M92.59375 100.71028L90.546875 92.11653L92.3125 92.11653L93.609375 98.02278L95.1875 92.11653L97.25 92.11653L98.75 98.11653L100.0625 92.11653L101.8125 92.11653L99.734375 100.71028L97.890625 100.71028L96.171875 94.28841L94.46875 100.71028L92.59375 100.71028ZM106.96875 98.72591L108.609375 99.00716Q108.296875 99.91341 107.609375 100.38216Q106.921875 100.85091 105.90625 100.85091Q104.28125 100.85091 103.5 99.78841Q102.875 98.94466 102.875 97.64778Q102.875 96.10091 103.6875 95.22591Q104.5 94.35091 105.734375 94.35091Q107.125 94.35091 107.921875 95.27278Q108.734375 96.17903 108.6875 98.06966L104.5625 98.06966Q104.59375 98.80403 104.96875 99.21028Q105.34375 99.61653 105.921875 99.61653Q106.296875 99.61653 106.5625 99.41341Q106.828125 99.19466 106.96875 98.72591ZM107.0625 97.06966Q107.046875 96.35091 106.6875 95.97591Q106.34375 95.60091 105.828125 95.60091Q105.296875 95.60091 104.9375 95.99153Q104.59375 96.39778 104.59375 97.06966L107.0625 97.06966ZM110.359375 100.71028L110.359375 92.11653L112.015625 92.11653L112.015625 100.71028L110.359375 100.71028ZM113.359375 100.71028L113.359375 92.11653L115.015625 92.11653L115.015625 100.71028L113.359375 100.71028ZM119.359375 93.64778L119.359375 92.11653L121.015625 92.11653L121.015625 93.64778L119.359375 93.64778ZM119.359375 100.71028L119.359375 94.49153L121.015625 94.49153L121.015625 100.71028L119.359375 100.71028ZM128.01562 100.71028L126.375 100.71028L126.375 97.53841Q126.375 96.52278 126.265625 96.22591Q126.171875 95.92903 125.921875 95.77278Q125.6875 95.60091 125.359375 95.60091Q124.921875 95.60091 124.578125 95.83528Q124.25 96.06966 124.125 96.46028Q124.0 96.85091 124.0 97.89778L124.0 100.71028L122.34375 100.71028L122.34375 94.49153L123.875 94.49153L123.875 95.39778Q124.6875 94.35091 125.9375 94.35091Q126.46875 94.35091 126.921875 94.55403Q127.375 94.74153 127.609375 95.05403Q127.84375 95.35091 127.921875 95.74153Q128.01562 96.11653 128.01562 96.83528L128.01562 100.71028ZM132.21875 94.49153L132.21875 95.80403L131.09375 95.80403L131.09375 98.30403Q131.09375 99.06966 131.125 99.19466Q131.15625 99.31966 131.26562 99.41341Q131.39062 99.49153 131.54688 99.49153Q131.78125 99.49153 132.20312 99.31966L132.34375 100.60091Q131.78125 100.85091 131.04688 100.85091Q130.60938 100.85091 130.25 100.71028Q129.89062 100.55403 129.71875 100.31966Q129.5625 100.06966 129.48438 99.67903Q129.4375 99.38216 129.4375 98.50716L129.4375 95.80403L128.6875 95.80403L128.6875 94.49153L129.4375 94.49153L129.4375 93.25716L131.09375 92.28841L131.09375 94.49153L132.21875 94.49153ZM136.96875 98.72591L138.60938 99.00716Q138.29688 99.91341 137.60938 100.38216Q136.92188 100.85091 135.90625 100.85091Q134.28125 100.85091 133.5 99.78841Q132.875 98.94466 132.875 97.64778Q132.875 96.10091 133.6875 95.22591Q134.5 94.35091 135.73438 94.35091Q137.125 94.35091 137.92188 95.27278Q138.73438 96.17903 138.6875 98.06966L134.5625 98.06966Q134.59375 98.80403 134.96875 99.21028Q135.34375 99.61653 135.92188 99.61653Q136.29688 99.61653 136.5625 99.41341Q136.82812 99.19466 136.96875 98.72591ZM137.0625 97.06966Q137.04688 96.35091 136.6875 95.97591Q136.34375 95.60091 135.82812 95.60091Q135.29688 95.60091 134.9375 95.99153Q134.59375 96.39778 134.59375 97.06966L137.0625 97.06966ZM140.20312 101.11653L142.09375 101.35091Q142.14062 101.67903 142.3125 101.80403Q142.54688 101.97591 143.04688 101.97591Q143.6875 101.97591 144.01562 101.78841Q144.23438 101.64778 144.34375 101.36653Q144.42188 101.16341 144.42188 100.61653L144.42188 99.69466Q143.67188 100.71028 142.54688 100.71028Q141.29688 100.71028 140.5625 99.64778Q140.0 98.80403 140.0 97.56966Q140.0 95.99153 140.75 95.17903Q141.5 94.35091 142.625 94.35091Q143.76562 94.35091 144.51562 95.36653L144.51562 94.49153L146.0625 94.49153L146.0625 100.06966Q146.0625 101.17903 145.875 101.71028Q145.70312 102.25716 145.375 102.56966Q145.04688 102.88216 144.5 103.05403Q143.95312 103.24153 143.10938 103.24153Q141.53125 103.24153 140.85938 102.69466Q140.20312 102.14778 140.20312 101.31966Q140.20312 101.24153 140.20312 101.11653ZM141.6875 97.47591Q141.6875 98.46028 142.0625 98.92903Q142.45312 99.38216 143.01562 99.38216Q143.60938 99.38216 144.03125 98.91341Q144.45312 98.42903 144.45312 97.50716Q144.45312 96.53841 144.04688 96.06966Q143.65625 95.60091 143.04688 95.60091Q142.45312 95.60091 142.0625 96.06966Q141.6875 96.52278 141.6875 97.47591ZM148.9375 100.71028L147.29688 100.71028L147.29688 94.49153L148.82812 94.49153L148.82812 95.36653Q149.21875 94.74153 149.53125 94.55403Q149.84375 94.35091 150.23438 94.35091Q150.79688 94.35091 151.32812 94.66341L150.8125 96.08528Q150.39062 95.81966 150.04688 95.81966Q149.6875 95.81966 149.45312 96.02278Q149.21875 96.21028 149.07812 96.71028Q148.9375 97.19466 148.9375 98.78841L148.9375 100.71028ZM153.59375 96.38216L152.09375 96.11653Q152.34375 95.21028 152.95312 94.78841Q153.57812 94.35091 154.79688 94.35091Q155.89062 94.35091 156.42188 94.61653Q156.96875 94.86653 157.1875 95.27278Q157.40625 95.66341 157.40625 96.74153L157.39062 98.66341Q157.39062 99.49153 157.46875 99.88216Q157.54688 100.25716 157.76562 100.71028L156.14062 100.71028Q156.07812 100.53841 155.98438 100.22591Q155.9375 100.06966 155.92188 100.02278Q155.5 100.44466 155.01562 100.64778Q154.54688 100.85091 154.0 100.85091Q153.03125 100.85091 152.46875 100.33528Q151.92188 99.80403 151.92188 99.00716Q151.92188 98.47591 152.17188 98.06966Q152.4375 97.66341 152.89062 97.44466Q153.34375 97.21028 154.20312 97.05403Q155.34375 96.83528 155.79688 96.64778L155.79688 96.49153Q155.79688 96.00716 155.5625 95.80403Q155.32812 95.60091 154.67188 95.60091Q154.23438 95.60091 153.98438 95.77278Q153.75 95.94466 153.59375 96.38216ZM155.79688 97.72591Q155.48438 97.81966 154.79688 97.97591Q154.10938 98.11653 153.89062 98.25716Q153.57812 98.49153 153.57812 98.83528Q153.57812 99.17903 153.82812 99.44466Q154.09375 99.69466 154.48438 99.69466Q154.9375 99.69466 155.34375 99.39778Q155.64062 99.17903 155.73438 98.85091Q155.79688 98.64778 155.79688 98.05403L155.79688 97.72591ZM162.21875 94.49153L162.21875 95.80403L161.09375 95.80403L161.09375 98.30403Q161.09375 99.06966 161.125 99.19466Q161.15625 99.31966 161.26562 99.41341Q161.39062 99.49153 161.54688 99.49153Q161.78125 99.49153 162.20312 99.31966L162.34375 100.60091Q161.78125 100.85091 161.04688 100.85091Q160.60938 100.85091 160.25 100.71028Q159.89062 100.55403 159.71875 100.31966Q159.5625 100.06966 159.48438 99.67903Q159.4375 99.38216 159.4375 98.50716L159.4375 95.80403L158.6875 95.80403L158.6875 94.49153L159.4375 94.49153L159.4375 93.25716L161.09375 92.28841L161.09375 94.49153L162.21875 94.49153ZM166.96875 98.72591L168.60938 99.00716Q168.29688 99.91341 167.60938 100.38216Q166.92188 100.85091 165.90625 100.85091Q164.28125 100.85091 163.5 99.78841Q162.875 98.94466 162.875 97.64778Q162.875 96.10091 163.6875 95.22591Q164.5 94.35091 165.73438 94.35091Q167.125 94.35091 167.92188 95.27278Q168.73438 96.17903 168.6875 98.06966L164.5625 98.06966Q164.59375 98.80403 164.96875 99.21028Q165.34375 99.61653 165.92188 99.61653Q166.29688 99.61653 166.5625 99.41341Q166.82812 99.19466 166.96875 98.72591ZM167.0625 97.06966Q167.04688 96.35091 166.6875 95.97591Q166.34375 95.60091 165.82812 95.60091Q165.29688 95.60091 164.9375 95.99153Q164.59375 96.39778 164.59375 97.06966L167.0625 97.06966ZM176.0625 100.71028L174.54688 100.71028L174.54688 99.78841Q174.15625 100.33528 173.64062 100.60091Q173.125 100.85091 172.59375 100.85091Q171.51562 100.85091 170.75 99.99153Q170.0 99.11653 170.0 97.56966Q170.0 95.99153 170.73438 95.17903Q171.48438 94.35091 172.625 94.35091Q173.65625 94.35091 174.42188 95.21028L174.42188 92.11653L176.0625 92.11653L176.0625 100.71028ZM171.67188 97.46028Q171.67188 98.46028 171.95312 98.89778Q172.34375 99.55403 173.0625 99.55403Q173.625 99.55403 174.01562 99.06966Q174.42188 98.58528 174.42188 97.61653Q174.42188 96.55403 174.03125 96.08528Q173.65625 95.60091 173.04688 95.60091Q172.46875 95.60091 172.0625 96.06966Q171.67188 96.53841 171.67188 97.46028Z" fill-rule="nonzero"/><path fill="#000000" d="M111.375 53.42056L111.375 44.82681L117.75 44.82681L117.75 46.279934L113.109375 46.279934L113.109375 48.186184L117.421875 48.186184L117.421875 49.63931L113.109375 49.63931L113.109375 51.967434L117.90625 51.967434L117.90625 53.42056L111.375 53.42056ZM119.59375 49.092434L118.09375 48.82681Q118.34375 47.92056 118.953125 47.498684Q119.578125 47.061184 120.796875 47.061184Q121.890625 47.061184 122.421875 47.32681Q122.96875 47.57681 123.1875 47.98306Q123.40625 48.373684 123.40625 49.45181L123.390625 51.373684Q123.390625 52.20181 123.46875 52.592434Q123.546875 52.967434 123.765625 53.42056L122.140625 53.42056Q122.078125 53.248684 121.984375 52.936184Q121.9375 52.779934 121.921875 52.73306Q121.5 53.154934 121.015625 53.35806Q120.546875 53.561184 120.0 53.561184Q119.03125 53.561184 118.46875 53.04556Q117.921875 52.51431 117.921875 51.717434Q117.921875 51.186184 118.171875 50.779934Q118.4375 50.373684 118.890625 50.154934Q119.34375 49.92056 120.203125 49.76431Q121.34375 49.54556 121.796875 49.35806L121.796875 49.20181Q121.796875 48.717434 121.5625 48.51431Q121.328125 48.311184 120.671875 48.311184Q120.234375 48.311184 119.984375 48.48306Q119.75 48.654934 119.59375 49.092434ZM121.796875 50.436184Q121.484375 50.529934 120.796875 50.686184Q120.109375 50.82681 119.890625 50.967434Q119.578125 51.20181 119.578125 51.54556Q119.578125 51.88931 119.828125 52.154934Q120.09375 52.404934 120.484375 52.404934Q120.9375 52.404934 121.34375 52.10806Q121.640625 51.88931 121.734375 51.561184Q121.796875 51.35806 121.796875 50.76431L121.796875 50.436184ZM124.78125 51.63931L126.4375 51.38931Q126.546875 51.873684 126.859375 52.123684Q127.1875 52.373684 127.765625 52.373684Q128.40625 52.373684 128.71875 52.13931Q128.9375 51.967434 128.9375 51.70181Q128.9375 51.51431 128.82812 51.38931Q128.70312 51.26431 128.28125 51.17056Q126.28125 50.73306 125.75 50.373684Q125.015625 49.85806 125.015625 48.967434Q125.015625 48.154934 125.640625 47.60806Q126.28125 47.061184 127.625 47.061184Q128.90625 47.061184 129.53125 47.48306Q130.15625 47.88931 130.39062 48.70181L128.82812 48.98306Q128.73438 48.623684 128.45312 48.436184Q128.17188 48.23306 127.65625 48.23306Q127.015625 48.23306 126.734375 48.42056Q126.546875 48.54556 126.546875 48.748684Q126.546875 48.936184 126.703125 49.061184Q126.921875 49.217434 128.23438 49.51431Q129.5625 49.811184 130.07812 50.248684Q130.59375 50.686184 130.59375 51.467434Q130.59375 52.32681 129.875 52.95181Q129.17188 53.561184 127.765625 53.561184Q126.5 53.561184 125.75 53.04556Q125.015625 52.529934 124.78125 51.63931ZM135.96875 51.436184L137.60938 51.717434Q137.29688 52.623684 136.60938 53.092434Q135.92188 53.561184 134.90625 53.561184Q133.28125 53.561184 132.5 52.498684Q131.875 51.654934 131.875 50.35806Q131.875 48.811184 132.6875 47.936184Q133.5 47.061184 134.73438 47.061184Q136.125 47.061184 136.92188 47.98306Q137.73438 48.88931 137.6875 50.779934L133.5625 50.779934Q133.59375 51.51431 133.96875 51.92056Q134.34375 52.32681 134.92188 52.32681Q135.29688 52.32681 135.5625 52.123684Q135.82812 51.904934 135.96875 51.436184ZM136.0625 49.779934Q136.04688 49.061184 135.6875 48.686184Q135.34375 48.311184 134.82812 48.311184Q134.29688 48.311184 133.9375 48.70181Q133.59375 49.10806 133.59375 49.779934L136.0625 49.779934ZM145.21875 47.20181L145.21875 48.51431L144.09375 48.51431L144.09375 51.01431Q144.09375 51.779934 144.125 51.904934Q144.15625 52.029934 144.26562 52.123684Q144.39062 52.20181 144.54688 52.20181Q144.78125 52.20181 145.20312 52.029934L145.34375 53.311184Q144.78125 53.561184 144.04688 53.561184Q143.60938 53.561184 143.25 53.42056Q142.89062 53.26431 142.71875 53.029934Q142.5625 52.779934 142.48438 52.38931Q142.4375 52.092434 142.4375 51.217434L142.4375 48.51431L141.6875 48.51431L141.6875 47.20181L142.4375 47.20181L142.4375 45.967434L144.09375 44.998684L144.09375 47.20181L145.21875 47.20181ZM145.98438 50.217434Q145.98438 49.404934 146.39062 48.63931Q146.79688 47.85806 147.53125 47.467434Q148.26562 47.061184 149.1875 47.061184Q150.59375 47.061184 151.5 47.98306Q152.40625 48.88931 152.40625 50.29556Q152.40625 51.70181 151.48438 52.63931Q150.57812 53.561184 149.20312 53.561184Q148.34375 53.561184 147.5625 53.17056Q146.79688 52.779934 146.39062 52.04556Q145.98438 51.29556 145.98438 50.217434ZM147.67188 50.311184Q147.67188 51.23306 148.10938 51.73306Q148.54688 52.217434 149.1875 52.217434Q149.84375 52.217434 150.26562 51.73306Q150.70312 51.23306 150.70312 50.29556Q150.70312 49.38931 150.26562 48.904934Q149.84375 48.404934 149.1875 48.404934Q148.54688 48.404934 148.10938 48.904934Q147.67188 49.38931 147.67188 50.311184ZM160.45312 53.42056L160.45312 52.48306Q160.125 52.98306 159.5625 53.279934Q159.01562 53.561184 158.39062 53.561184Q157.76562 53.561184 157.26562 53.29556Q156.76562 53.01431 156.54688 52.51431Q156.32812 52.01431 156.32812 51.13931L156.32812 47.20181L157.96875 47.20181L157.96875 50.061184Q157.96875 51.373684 158.0625 51.67056Q158.15625 51.967434 158.39062 52.13931Q158.64062 52.311184 159.0 52.311184Q159.42188 52.311184 159.75 52.07681Q160.09375 51.842434 160.21875 51.498684Q160.34375 51.154934 160.34375 49.82681L160.34375 47.20181L161.98438 47.20181L161.98438 53.42056L160.45312 53.42056ZM162.78125 51.63931L164.4375 51.38931Q164.54688 51.873684 164.85938 52.123684Q165.1875 52.373684 165.76562 52.373684Q166.40625 52.373684 166.71875 52.13931Q166.9375 51.967434 166.9375 51.70181Q166.9375 51.51431 166.82812 51.38931Q166.70312 51.26431 166.28125 51.17056Q164.28125 50.73306 163.75 50.373684Q163.01562 49.85806 163.01562 48.967434Q163.01562 48.154934 163.64062 47.60806Q164.28125 47.061184 165.625 47.061184Q166.90625 47.061184 167.53125 47.48306Q168.15625 47.88931 168.39062 48.70181L166.82812 48.98306Q166.73438 48.623684 166.45312 48.436184Q166.17188 48.23306 165.65625 48.23306Q165.01562 48.23306 164.73438 48.42056Q164.54688 48.54556 164.54688 48.748684Q164.54688 48.936184 164.70312 49.061184Q164.92188 49.217434 166.23438 49.51431Q167.5625 49.811184 168.07812 50.248684Q168.59375 50.686184 168.59375 51.467434Q168.59375 52.32681 167.875 52.95181Q167.17188 53.561184 165.76562 53.561184Q164.5 53.561184 163.75 53.04556Q163.01562 52.529934 162.78125 51.63931ZM173.96875 51.436184L175.60938 51.717434Q175.29688 52.623684 174.60938 53.092434Q173.92188 53.561184 172.90625 53.561184Q171.28125 53.561184 170.5 52.498684Q169.875 51.654934 169.875 50.35806Q169.875 48.811184 170.6875 47.936184Q171.5 47.061184 172.73438 47.061184Q174.125 47.061184 174.92188 47.98306Q175.73438 48.88931 175.6875 50.779934L171.5625 50.779934Q171.59375 51.51431 171.96875 51.92056Q172.34375 52.32681 172.92188 52.32681Q173.29688 52.32681 173.5625 52.123684Q173.82812 51.904934 173.96875 51.436184ZM174.0625 49.779934Q174.04688 49.061184 173.6875 48.686184Q173.34375 48.311184 172.82812 48.311184Q172.29688 48.311184 171.9375 48.70181Q171.59375 49.10806 171.59375 49.779934L174.0625 49.779934Z" fill-rule="nonzero"/><path fill="#000000" d="M194.25 290.3125Q195.28125 290.3125 195.875 291.04688Q196.5625 291.9375 196.5625 293.96875Q196.5625 296.0 195.85938 296.89062Q195.28125 297.625 194.25 297.625Q193.20312 297.625 192.5625 296.82812Q191.92188 296.01562 191.92188 293.95312Q191.92188 291.9375 192.625 291.04688Q193.20312 290.3125 194.25 290.3125ZM194.25 291.45312Q194.0 291.45312 193.79688 291.60938Q193.60938 291.76562 193.5 292.17188Q193.35938 292.70312 193.35938 293.96875Q193.35938 295.23438 193.48438 295.70312Q193.60938 296.17188 193.79688 296.32812Q194.0 296.48438 194.25 296.48438Q194.5 296.48438 194.6875 296.32812Q194.89062 296.17188 194.98438 295.75Q195.14062 295.23438 195.14062 293.96875Q195.14062 292.70312 195.0 292.23438Q194.875 291.76562 194.6875 291.60938Q194.5 291.45312 194.25 291.45312Z" fill-rule="nonzero"/><path fill="#000000" d="M313.3125 296.21875L313.3125 297.5L308.5 297.5Q308.57812 296.78125 308.96875 296.14062Q309.35938 295.48438 310.51562 294.40625Q311.4375 293.54688 311.65625 293.23438Q311.9375 292.8125 311.9375 292.40625Q311.9375 291.9375 311.6875 291.70312Q311.4375 291.45312 311.0 291.45312Q310.57812 291.45312 310.3125 291.71875Q310.0625 291.96875 310.03125 292.5625L308.65625 292.4375Q308.78125 291.29688 309.42188 290.8125Q310.07812 290.3125 311.03125 290.3125Q312.09375 290.3125 312.70312 290.89062Q313.3125 291.45312 313.3125 292.29688Q313.3125 292.78125 313.14062 293.21875Q312.96875 293.65625 312.59375 294.14062Q312.34375 294.45312 311.6875 295.0625Q311.03125 295.65625 310.85938 295.85938Q310.6875 296.04688 310.57812 296.21875L313.3125 296.21875ZM314.6875 295.65625L316.0625 295.51562Q316.125 295.98438 316.40625 296.25Q316.70312 296.51562 317.07812 296.51562Q317.5 296.51562 317.79688 296.17188Q318.09375 295.82812 318.09375 295.125Q318.09375 294.46875 317.79688 294.14062Q317.5 293.79688 317.03125 293.79688Q316.4375 293.79688 315.96875 294.32812L314.85938 294.17188L315.5625 290.4375L319.1875 290.4375L319.1875 291.71875L316.60938 291.71875L316.39062 292.9375Q316.84375 292.70312 317.32812 292.70312Q318.23438 292.70312 318.875 293.375Q319.51562 294.03125 319.51562 295.09375Q319.51562 295.98438 319.0 296.67188Q318.29688 297.625 317.0625 297.625Q316.0625 297.625 315.4375 297.09375Q314.8125 296.5625 314.6875 295.65625Z" fill-rule="nonzero"/><path fill="#000000" d="M428.4375 295.65625L429.8125 295.51562Q429.875 295.98438 430.15625 296.25Q430.45312 296.51562 430.82812 296.51562Q431.25 296.51562 431.54688 296.17188Q431.84375 295.82812 431.84375 295.125Q431.84375 294.46875 431.54688 294.14062Q431.25 293.79688 430.78125 293.79688Q430.1875 293.79688 429.71875 294.32812L428.60938 294.17188L429.3125 290.4375L432.9375 290.4375L432.9375 291.71875L430.35938 291.71875L430.14062 292.9375Q430.59375 292.70312 431.07812 292.70312Q431.98438 292.70312 432.625 293.375Q433.26562 294.03125 433.26562 295.09375Q433.26562 295.98438 432.75 296.67188Q432.04688 297.625 430.8125 297.625Q429.8125 297.625 429.1875 297.09375Q428.5625 296.5625 428.4375 295.65625ZM436.75 290.3125Q437.78125 290.3125 438.375 291.04688Q439.0625 291.9375 439.0625 293.96875Q439.0625 296.0 438.35938 296.89062Q437.78125 297.625 436.75 297.625Q435.70312 297.625 435.0625 296.82812Q434.42188 296.01562 434.42188 293.95312Q434.42188 291.9375 435.125 291.04688Q435.70312 290.3125 436.75 290.3125ZM436.75 291.45312Q436.5 291.45312 436.29688 291.60938Q436.10938 291.76562 436.0 292.17188Q435.85938 292.70312 435.85938 293.96875Q435.85938 295.23438 435.98438 295.70312Q436.10938 296.17188 436.29688 296.32812Q436.5 296.48438 436.75 296.48438Q437.0 296.48438 437.1875 296.32812Q437.39062 296.17188 437.48438 295.75Q437.64062 295.23438 437.64062 293.96875Q437.64062 292.70312 437.5 292.23438Q437.375 291.76562 437.1875 291.60938Q437.0 291.45312 436.75 291.45312Z" fill-rule="nonzero"/><path fill="#000000" d="M548.1719 291.71875L548.1719 290.4375L552.875 290.4375L552.875 291.4375Q552.28125 292.0 551.6719 293.07812Q551.0781 294.14062 550.7656 295.34375Q550.4531 296.54688 550.4531 297.5L549.1406 297.5Q549.1719 296.01562 549.75 294.46875Q550.3281 292.92188 551.2969 291.71875L548.1719 291.71875ZM554.1875 295.65625L555.5625 295.51562Q555.625 295.98438 555.90625 296.25Q556.2031 296.51562 556.5781 296.51562Q557.0 296.51562 557.2969 296.17188Q557.59375 295.82812 557.59375 295.125Q557.59375 294.46875 557.2969 294.14062Q557.0 293.79688 556.53125 293.79688Q555.9375 293.79688 555.46875 294.32812L554.3594 294.17188L555.0625 290.4375L558.6875 290.4375L558.6875 291.71875L556.1094 291.71875L555.8906 292.9375Q556.34375 292.70312 556.8281 292.70312Q557.7344 292.70312 558.375 293.375Q559.0156 294.03125 559.0156 295.09375Q559.0156 295.98438 558.5 296.67188Q557.7969 297.625 556.5625 297.625Q555.5625 297.625 554.9375 297.09375Q554.3125 296.5625 554.1875 295.65625Z" fill-rule="nonzero"/><path fill="#000000" d="M668.4375 297.5L667.0625 297.5L667.0625 292.32812Q666.3125 293.03125 665.2969 293.375L665.2969 292.125Q665.8281 291.95312 666.4531 291.46875Q667.09375 290.96875 667.3281 290.3125L668.4375 290.3125L668.4375 297.5ZM673.25 290.3125Q674.28125 290.3125 674.875 291.04688Q675.5625 291.9375 675.5625 293.96875Q675.5625 296.0 674.8594 296.89062Q674.28125 297.625 673.25 297.625Q672.2031 297.625 671.5625 296.82812Q670.9219 296.01562 670.9219 293.95312Q670.9219 291.9375 671.625 291.04688Q672.2031 290.3125 673.25 290.3125ZM673.25 291.45312Q673.0 291.45312 672.7969 291.60938Q672.6094 291.76562 672.5 292.17188Q672.3594 292.70312 672.3594 293.96875Q672.3594 295.23438 672.4844 295.70312Q672.6094 296.17188 672.7969 296.32812Q673.0 296.48438 673.25 296.48438Q673.5 296.48438 673.6875 296.32812Q673.8906 296.17188 673.9844 295.75Q674.1406 295.23438 674.1406 293.96875Q674.1406 292.70312 674.0 292.23438Q673.875 291.76562 673.6875 291.60938Q673.5 291.45312 673.25 291.45312ZM679.25 290.3125Q680.28125 290.3125 680.875 291.04688Q681.5625 291.9375 681.5625 293.96875Q681.5625 296.0 680.8594 296.89062Q680.28125 297.625 679.25 297.625Q678.2031 297.625 677.5625 296.82812Q676.9219 296.01562 676.9219 293.95312Q676.9219 291.9375 677.625 291.04688Q678.2031 290.3125 679.25 290.3125ZM679.25 291.45312Q679.0 291.45312 678.7969 291.60938Q678.6094 291.76562 678.5 292.17188Q678.3594 292.70312 678.3594 293.96875Q678.3594 295.23438 678.4844 295.70312Q678.6094 296.17188 678.7969 296.32812Q679.0 296.48438 679.25 296.48438Q679.5 296.48438 679.6875 296.32812Q679.8906 296.17188 679.9844 295.75Q680.1406 295.23438 680.1406 293.96875Q680.1406 292.70312 680.0 292.23438Q679.875 291.76562 679.6875 291.60938Q679.5 291.45312 679.25 291.45312Z" fill-rule="nonzero"/></svg>