<svg version="1.1" viewBox="0.0 0.0 600.0 371.0" fill="none" stroke="none" stroke-linecap="square" stroke-miterlimit="10" width="600" height="371" xmlns:xlink="http://www.w3.org/1999/xlink" xmlns="http://www.w3.org/2000/svg"><path fill="#ffffff" d="M0 0L600.0 0L600.0 371.0L0 371.0L0 0Z" fill-rule="nonzero"/><path stroke="#333333" stroke-width="1.0" stroke-linecap="butt" d="M45.5 332.5L581.5 332.5" fill-rule="nonzero"/><path stroke="#cccccc" stroke-width="1.0" stroke-linecap="butt" d="M45.5 271.5L581.5 271.5" fill-rule="nonzero"/><path stroke="#cccccc" stroke-width="1.0" stroke-linecap="butt" d="M45.5 210.5L581.5 210.5" fill-rule="nonzero"/><path stroke="#cccccc" stroke-width="1.0" stroke-linecap="butt" d="M45.5 149.5L581.5 149.5" fill-rule="nonzero"/><path stroke="#cccccc" stroke-width="1.0" stroke-linecap="butt" d="M45.5 88.5L581.5 88.5" fill-rule="nonzero"/><clipPath id="id_0"><path d="M45.55 88.28333L581.45 88.28333L581.45 332.45L45.55 332.45L45.55 88.28333Z" clip-rule="nonzero"/></clipPath><path stroke="#000000" stroke-width="2.0" stroke-linecap="butt" stroke-opacity="0.0" clip-path="url(#id_0)" d="M81.0 332.0L69.0 332.0L69.0 90.0C69.0 88.89543 69.89543 88.0 71.0 88.0L79.0 88.0C80.10457 88.0 81.0 88.89543 81.0 90.0Z" fill-rule="nonzero"/><path fill="#4285f4" clip-path="url(#id_0)" d="M81.0 332.0L69.0 332.0L69.0 90.0C69.0 88.89543 69.89543 88.0 71.0 88.0L79.0 88.0C80.10457 88.0 81.0 88.89543 81.0 90.0Z" fill-rule="nonzero"/><path stroke="#000000" stroke-width="2.0" stroke-linecap="butt" stroke-opacity="0.0" clip-path="url(#id_0)" d="M145.0 332.0L133.0 332.0L133.0 90.0C133.0 88.89543 133.89543 88.0 135.0 88.0L143.0 88.0C144.10457 88.0 145.0 88.89543 145.0 90.0Z" fill-rule="nonzero"/><path fill="#4285f4" clip-path="url(#id_0)" d="M145.0 332.0L133.0 332.0L133.0 90.0C133.0 88.89543 133.89543 88.0 135.0 88.0L143.0 88.0C144.10457 88.0 145.0 88.89543 145.0 90.0Z" fill-rule="nonzero"/><path stroke="#000000" stroke-width="2.0" stroke-linecap="butt" stroke-opacity="0.0" clip-path="url(#id_0)" d="M209.0 332.0L197.0 332.0L197.0 197.0C197.0 195.89543 197.89543 195.0 199.0 195.0L207.0 195.0C208.10457 195.0 209.0 195.89543 209.0 197.0Z" fill-rule="nonzero"/><path fill="#4285f4" clip-path="url(#id_0)" d="M209.0 332.0L197.0 332.0L197.0 197.0C197.0 195.89543 197.89543 195.0 199.0 195.0L207.0 195.0C208.10457 195.0 209.0 195.89543 209.0 197.0Z" fill-rule="nonzero"/><path stroke="#000000" stroke-width="2.0" stroke-linecap="butt" stroke-opacity="0.0" clip-path="url(#id_0)" d="M273.0 332.0L261.0 332.0L261.0 167.0C261.0 165.89543 261.89542 165.0 263.0 165.0L271.0 165.0C272.10458 165.0 273.0 165.89543 273.0 167.0Z" fill-rule="nonzero"/><path fill="#4285f4" clip-path="url(#id_0)" d="M273.0 332.0L261.0 332.0L261.0 167.0C261.0 165.89543 261.89542 165.0 263.0 165.0L271.0 165.0C272.10458 165.0 273.0 165.89543 273.0 167.0Z" fill-rule="nonzero"/><path stroke="#000000" stroke-width="2.0" stroke-linecap="butt" stroke-opacity="0.0" clip-path="url(#id_0)" d="M338.0 332.0L326.0 332.0L326.0 258.0C326.0 256.89542 326.89542 256.0 328.0 256.0L336.0 256.0C337.10458 256.0 338.0 256.89542 338.0 258.0Z" fill-rule="nonzero"/><path fill="#4285f4" clip-path="url(#id_0)" d="M338.0 332.0L326.0 332.0L326.0 258.0C326.0 256.89542 326.89542 256.0 328.0 256.0L336.0 256.0C337.10458 256.0 338.0 256.89542 338.0 258.0Z" fill-rule="nonzero"/><path stroke="#000000" stroke-width="2.0" stroke-linecap="butt" stroke-opacity="0.0" clip-path="url(#id_0)" d="M402.0 332.0L390.0 332.0L390.0 197.0C390.0 195.89543 390.89542 195.0 392.0 195.0L400.0 195.0C401.10458 195.0 402.0 195.89543 402.0 197.0Z" fill-rule="nonzero"/><path fill="#4285f4" clip-path="url(#id_0)" d="M402.0 332.0L390.0 332.0L390.0 197.0C390.0 195.89543 390.89542 195.0 392.0 195.0L400.0 195.0C401.10458 195.0 402.0 195.89543 402.0 197.0Z" fill-rule="nonzero"/><path stroke="#000000" stroke-width="2.0" stroke-linecap="butt" stroke-opacity="0.0" clip-path="url(#id_0)" d="M466.0 332.0L454.0 332.0L454.0 212.0C454.0 210.89543 454.89542 210.0 456.0 210.0L464.0 210.0C465.10458 210.0 466.0 210.89543 466.0 212.0Z" fill-rule="nonzero"/><path fill="#4285f4" clip-path="url(#id_0)" d="M466.0 332.0L454.0 332.0L454.0 212.0C454.0 210.89543 454.89542 210.0 456.0 210.0L464.0 210.0C465.10458 210.0 466.0 210.89543 466.0 212.0Z" fill-rule="nonzero"/><path stroke="#000000" stroke-width="2.0" stroke-linecap="butt" stroke-opacity="0.0" clip-path="url(#id_0)" d="M530.0 332.0L518.0 332.0L518.0 167.0C518.0 165.89543 518.89545 165.0 520.0 165.0L528.0 165.0C529.10455 165.0 530.0 165.89543 530.0 167.0Z" fill-rule="nonzero"/><path fill="#4285f4" clip-path="url(#id_0)" d="M530.0 332.0L518.0 332.0L518.0 167.0C518.0 165.89543 518.89545 165.0 520.0 165.0L528.0 165.0C529.10455 165.0 530.0 165.89543 530.0 167.0Z" fill-rule="nonzero"/><path stroke="#000000" stroke-width="2.0" stroke-linecap="butt" stroke-opacity="0.0" clip-path="url(#id_0)" d="M95.0 332.0L83.0 332.0L83.0 90.0C83.0 88.89543 83.89543 88.0 85.0 88.0L93.0 88.0C94.10457 88.0 95.0 88.89543 95.0 90.0Z" fill-rule="nonzero"/><path fill="#ea4335" clip-path="url(#id_0)" d="M95.0 332.0L83.0 332.0L83.0 90.0C83.0 88.89543 83.89543 88.0 85.0 88.0L93.0 88.0C94.10457 88.0 95.0 88.89543 95.0 90.0Z" fill-rule="nonzero"/><path stroke="#000000" stroke-width="2.0" stroke-linecap="butt" stroke-opacity="0.0" clip-path="url(#id_0)" d="M159.0 332.0L147.0 332.0L147.0 90.0C147.0 88.89543 147.89543 88.0 149.0 88.0L157.0 88.0C158.10457 88.0 159.0 88.89543 159.0 90.0Z" fill-rule="nonzero"/><path fill="#ea4335" clip-path="url(#id_0)" d="M159.0 332.0L147.0 332.0L147.0 90.0C147.0 88.89543 147.89543 88.0 149.0 88.0L157.0 88.0C158.10457 88.0 159.0 88.89543 159.0 90.0Z" fill-rule="nonzero"/><path stroke="#000000" stroke-width="2.0" stroke-linecap="butt" stroke-opacity="0.0" clip-path="url(#id_0)" d="M223.0 332.0L211.0 332.0L211.0 202.0C211.0 200.89543 211.89543 200.0 213.0 200.0L221.0 200.0C222.10457 200.0 223.0 200.89543 223.0 202.0Z" fill-rule="nonzero"/><path fill="#ea4335" clip-path="url(#id_0)" d="M223.0 332.0L211.0 332.0L211.0 202.0C211.0 200.89543 211.89543 200.0 213.0 200.0L221.0 200.0C222.10457 200.0 223.0 200.89543 223.0 202.0Z" fill-rule="nonzero"/><path stroke="#000000" stroke-width="2.0" stroke-linecap="butt" stroke-opacity="0.0" clip-path="url(#id_0)" d="M287.0 332.0L275.0 332.0L275.0 182.0C275.0 180.89543 275.89542 180.0 277.0 180.0L285.0 180.0C286.10458 180.0 287.0 180.89543 287.0 182.0Z" fill-rule="nonzero"/><path fill="#ea4335" clip-path="url(#id_0)" d="M287.0 332.0L275.0 332.0L275.0 182.0C275.0 180.89543 275.89542 180.0 277.0 180.0L285.0 180.0C286.10458 180.0 287.0 180.89543 287.0 182.0Z" fill-rule="nonzero"/><path stroke="#000000" stroke-width="2.0" stroke-linecap="butt" stroke-opacity="0.0" clip-path="url(#id_0)" d="M352.0 332.0L340.0 332.0L340.0 202.0C340.0 200.89543 340.89542 200.0 342.0 200.0L350.0 200.0C351.10458 200.0 352.0 200.89543 352.0 202.0Z" fill-rule="nonzero"/><path fill="#ea4335" clip-path="url(#id_0)" d="M352.0 332.0L340.0 332.0L340.0 202.0C340.0 200.89543 340.89542 200.0 342.0 200.0L350.0 200.0C351.10458 200.0 352.0 200.89543 352.0 202.0Z" fill-rule="nonzero"/><path stroke="#000000" stroke-width="2.0" stroke-linecap="butt" stroke-opacity="0.0" clip-path="url(#id_0)" d="M416.0 332.0L404.0 332.0L404.0 182.0C404.0 180.89543 404.89542 180.0 406.0 180.0L414.0 180.0C415.10458 180.0 416.0 180.89543 416.0 182.0Z" fill-rule="nonzero"/><path fill="#ea4335" clip-path="url(#id_0)" d="M416.0 332.0L404.0 332.0L404.0 182.0C404.0 180.89543 404.89542 180.0 406.0 180.0L414.0 180.0C415.10458 180.0 416.0 180.89543 416.0 182.0Z" fill-rule="nonzero"/><path stroke="#000000" stroke-width="2.0" stroke-linecap="butt" stroke-opacity="0.0" clip-path="url(#id_0)" d="M480.0 332.0L468.0 332.0L468.0 223.0C468.0 221.89543 468.89542 221.0 470.0 221.0L478.0 221.0C479.10458 221.0 480.0 221.89543 480.0 223.0Z" fill-rule="nonzero"/><path fill="#ea4335" clip-path="url(#id_0)" d="M480.0 332.0L468.0 332.0L468.0 223.0C468.0 221.89543 468.89542 221.0 470.0 221.0L478.0 221.0C479.10458 221.0 480.0 221.89543 480.0 223.0Z" fill-rule="nonzero"/><path stroke="#000000" stroke-width="2.0" stroke-linecap="butt" stroke-opacity="0.0" clip-path="url(#id_0)" d="M544.0 332.0L532.0 332.0L532.0 182.0C532.0 180.89543 532.89545 180.0 534.0 180.0L542.0 180.0C543.10455 180.0 544.0 180.89543 544.0 182.0Z" fill-rule="nonzero"/><path fill="#ea4335" clip-path="url(#id_0)" d="M544.0 332.0L532.0 332.0L532.0 182.0C532.0 180.89543 532.89545 180.0 534.0 180.0L542.0 180.0C543.10455 180.0 544.0 180.89543 544.0 182.0Z" fill-rule="nonzero"/><path stroke="#000000" stroke-width="2.0" stroke-linecap="butt" stroke-opacity="0.0" clip-path="url(#id_0)" d="M109.0 332.0L97.0 332.0L97.0 96.0C97.0 94.89543 97.89543 94.0 99.0 94.0L107.0 94.0C108.10457 94.0 109.0 94.89543 109.0 96.0Z" fill-rule="nonzero"/><path fill="#fbbc04" clip-path="url(#id_0)" d="M109.0 332.0L97.0 332.0L97.0 96.0C97.0 94.89543 97.89543 94.0 99.0 94.0L107.0 94.0C108.10457 94.0 109.0 94.89543 109.0 96.0Z" fill-rule="nonzero"/><path stroke="#000000" stroke-width="2.0" stroke-linecap="butt" stroke-opacity="0.0" clip-path="url(#id_0)" d="M173.0 332.0L161.0 332.0L161.0 90.0C161.0 88.89543 161.89543 88.0 163.0 88.0L171.0 88.0C172.10457 88.0 173.0 88.89543 173.0 90.0Z" fill-rule="nonzero"/><path fill="#fbbc04" clip-path="url(#id_0)" d="M173.0 332.0L161.0 332.0L161.0 90.0C161.0 88.89543 161.89543 88.0 163.0 88.0L171.0 88.0C172.10457 88.0 173.0 88.89543 173.0 90.0Z" fill-rule="nonzero"/><path stroke="#000000" stroke-width="2.0" stroke-linecap="butt" stroke-opacity="0.0" clip-path="url(#id_0)" d="M237.0 332.0L225.0 332.0L225.0 176.0C225.0 174.89543 225.89543 174.0 227.0 174.0L235.0 174.0C236.10457 174.0 237.0 174.89543 237.0 176.0Z" fill-rule="nonzero"/><path fill="#fbbc04" clip-path="url(#id_0)" d="M237.0 332.0L225.0 332.0L225.0 176.0C225.0 174.89543 225.89543 174.0 227.0 174.0L235.0 174.0C236.10457 174.0 237.0 174.89543 237.0 176.0Z" fill-rule="nonzero"/><path stroke="#000000" stroke-width="2.0" stroke-linecap="butt" stroke-opacity="0.0" clip-path="url(#id_0)" d="M301.0 332.0L289.0 332.0L289.0 157.0C289.0 155.89543 289.89542 155.0 291.0 155.0L299.0 155.0C300.10458 155.0 301.0 155.89543 301.0 157.0Z" fill-rule="nonzero"/><path fill="#fbbc04" clip-path="url(#id_0)" d="M301.0 332.0L289.0 332.0L289.0 157.0C289.0 155.89543 289.89542 155.0 291.0 155.0L299.0 155.0C300.10458 155.0 301.0 155.89543 301.0 157.0Z" fill-rule="nonzero"/><path stroke="#000000" stroke-width="2.0" stroke-linecap="butt" stroke-opacity="0.0" clip-path="url(#id_0)" d="M366.0 332.0L354.0 332.0L354.0 139.0C354.0 137.89543 354.89542 137.0 356.0 137.0L364.0 137.0C365.10458 137.0 366.0 137.89543 366.0 139.0Z" fill-rule="nonzero"/><path fill="#fbbc04" clip-path="url(#id_0)" d="M366.0 332.0L354.0 332.0L354.0 139.0C354.0 137.89543 354.89542 137.0 356.0 137.0L364.0 137.0C365.10458 137.0 366.0 137.89543 366.0 139.0Z" fill-rule="nonzero"/><path stroke="#000000" stroke-width="2.0" stroke-linecap="butt" stroke-opacity="0.0" clip-path="url(#id_0)" d="M430.0 332.0L418.0 332.0L418.0 176.0C418.0 174.89543 418.89542 174.0 420.0 174.0L428.0 174.0C429.10458 174.0 430.0 174.89543 430.0 176.0Z" fill-rule="nonzero"/><path fill="#fbbc04" clip-path="url(#id_0)" d="M430.0 332.0L418.0 332.0L418.0 176.0C418.0 174.89543 418.89542 174.0 420.0 174.0L428.0 174.0C429.10458 174.0 430.0 174.89543 430.0 176.0Z" fill-rule="nonzero"/><path stroke="#000000" stroke-width="2.0" stroke-linecap="butt" stroke-opacity="0.0" clip-path="url(#id_0)" d="M494.0 332.0L482.0 332.0L482.0 157.0C482.0 155.89543 482.89542 155.0 484.0 155.0L492.0 155.0C493.10458 155.0 494.0 155.89543 494.0 157.0Z" fill-rule="nonzero"/><path fill="#fbbc04" clip-path="url(#id_0)" d="M494.0 332.0L482.0 332.0L482.0 157.0C482.0 155.89543 482.89542 155.0 484.0 155.0L492.0 155.0C493.10458 155.0 494.0 155.89543 494.0 157.0Z" fill-rule="nonzero"/><path stroke="#000000" stroke-width="2.0" stroke-linecap="butt" stroke-opacity="0.0" clip-path="url(#id_0)" d="M558.0 332.0L546.0 332.0L546.0 139.0C546.0 137.89543 546.89545 137.0 548.0 137.0L556.0 137.0C557.10455 137.0 558.0 137.89543 558.0 139.0Z" fill-rule="nonzero"/><path fill="#fbbc04" clip-path="url(#id_0)" d="M558.0 332.0L546.0 332.0L546.0 139.0C546.0 137.89543 546.89545 137.0 548.0 137.0L556.0 137.0C557.10455 137.0 558.0 137.89543 558.0 139.0Z" fill-rule="nonzero"/><path fill="#000000" d="M33.05 332.21564Q33.05 330.6844 33.3625 329.7625Q33.675 328.825 34.284374 328.325Q34.909374 327.825 35.846874 327.825Q36.534374 327.825 37.05 328.10626Q37.58125 328.3875 37.925 328.91876Q38.26875 329.4344 38.45625 330.1844Q38.64375 330.9344 38.64375 332.21564Q38.64375 333.73126 38.33125 334.65314Q38.034374 335.575 37.409374 336.09064Q36.8 336.59064 35.846874 336.59064Q34.6125 336.59064 33.89375 335.7Q33.05 334.6375 33.05 332.21564ZM34.128124 332.21564Q34.128124 334.325 34.628124 335.02814Q35.128124 335.73126 35.846874 335.73126Q36.58125 335.73126 37.065624 335.02814Q37.565624 334.325 37.565624 332.21564Q37.565624 330.09064 37.065624 329.40314Q36.58125 328.7 35.83125 328.7Q35.1125 328.7 34.675 329.3094Q34.128124 330.09064 34.128124 332.21564Z" fill-rule="nonzero"/><path fill="#000000" d="M38.596874 274.3927L38.596874 275.40833L32.909374 275.40833Q32.909374 275.03333 33.034374 274.67395Q33.253124 274.09583 33.721874 273.53333Q34.20625 272.97083 35.1125 272.23645Q36.51875 271.0802 37.003124 270.40833Q37.503124 269.73645 37.503124 269.1427Q37.503124 268.5177 37.05 268.09583Q36.596874 267.65833 35.878124 267.65833Q35.1125 267.65833 34.659374 268.11145Q34.20625 268.56458 34.190624 269.37708L33.1125 269.2677Q33.221874 268.04895 33.940624 267.42395Q34.675 266.78333 35.909374 266.78333Q37.14375 266.78333 37.8625 267.47083Q38.58125 268.15833 38.58125 269.17395Q38.58125 269.68958 38.3625 270.18958Q38.159374 270.67395 37.659374 271.23645Q37.175 271.78333 36.05 272.73645Q35.096874 273.53333 34.815624 273.8302Q34.55 274.11145 34.378124 274.3927L38.596874 274.3927Z" fill-rule="nonzero"/><path fill="#000000" d="M36.425 214.36667L36.425 212.30417L32.70625 212.30417L32.70625 211.33542L36.628124 205.77292L37.4875 205.77292L37.4875 211.33542L38.64375 211.33542L38.64375 212.30417L37.4875 212.30417L37.4875 214.36667L36.425 214.36667ZM36.425 211.33542L36.425 207.47604L33.7375 211.33542L36.425 211.33542Z" fill-rule="nonzero"/><path fill="#000000" d="M38.51875 146.84062L37.471874 146.91875Q37.33125 146.29375 37.08125 146.0125Q36.64375 145.55937 36.01875 145.55937Q35.51875 145.55937 35.128124 145.84062Q34.64375 146.21562 34.346874 146.91875Q34.065624 147.60625 34.05 148.8875Q34.425 148.30937 34.971874 148.02812Q35.534374 147.74687 36.14375 147.74687Q37.190624 147.74687 37.925 148.52812Q38.675 149.30937 38.675 150.52812Q38.675 151.34062 38.315624 152.04375Q37.971874 152.73125 37.3625 153.10625Q36.753124 153.46562 35.9875 153.46562Q34.659374 153.46562 33.83125 152.49687Q33.003124 151.52812 33.003124 149.30937Q33.003124 146.80937 33.925 145.68437Q34.721874 144.7 36.08125 144.7Q37.096874 144.7 37.7375 145.27812Q38.39375 145.84062 38.51875 146.84062ZM34.221874 150.54375Q34.221874 151.09062 34.440624 151.59062Q34.675 152.075 35.08125 152.34062Q35.503124 152.60625 35.971874 152.60625Q36.628124 152.60625 37.1125 152.075Q37.596874 151.52812 37.596874 150.60625Q37.596874 149.71562 37.1125 149.2Q36.64375 148.68437 35.925 148.68437Q35.20625 148.68437 34.70625 149.2Q34.221874 149.71562 34.221874 150.54375Z" fill-rule="nonzero"/><path fill="#000000" d="M34.675 87.62708Q34.01875 87.37708 33.690624 86.93958Q33.378124 86.48646 33.378124 85.87708Q33.378124 84.93958 34.05 84.29896Q34.7375 83.65833 35.846874 83.65833Q36.971874 83.65833 37.659374 84.31458Q38.346874 84.97083 38.346874 85.90833Q38.346874 86.50208 38.034374 86.93958Q37.721874 87.37708 37.08125 87.62708Q37.878124 87.87708 38.284374 88.45521Q38.690624 89.03333 38.690624 89.83021Q38.690624 90.92396 37.909374 91.67396Q37.14375 92.42396 35.8625 92.42396Q34.596874 92.42396 33.815624 91.67396Q33.034374 90.92396 33.034374 89.79896Q33.034374 88.95521 33.45625 88.39271Q33.89375 87.83021 34.675 87.62708ZM34.45625 85.83021Q34.45625 86.43958 34.846874 86.83021Q35.253124 87.22083 35.878124 87.22083Q36.4875 87.22083 36.878124 86.84583Q37.26875 86.45521 37.26875 85.89271Q37.26875 85.31458 36.8625 84.92396Q36.45625 84.51771 35.8625 84.51771Q35.253124 84.51771 34.846874 84.90833Q34.45625 85.29896 34.45625 85.83021ZM34.128124 89.79896Q34.128124 90.25208 34.33125 90.67396Q34.55 91.09583 34.971874 91.33021Q35.39375 91.56458 35.878124 91.56458Q36.628124 91.56458 37.1125 91.08021Q37.6125 90.59583 37.6125 89.84583Q37.6125 89.08021 37.1125 88.58021Q36.6125 88.08021 35.846874 88.08021Q35.096874 88.08021 34.6125 88.58021Q34.128124 89.06458 34.128124 89.79896Z" fill-rule="nonzero"/><path fill="#000000" d="M70.41813 349.45L73.746254 344.96564L70.82438 340.85626L72.16813 340.85626L73.73063 343.0594Q74.215004 343.7469 74.41813 344.1219Q74.715004 343.65314 75.10563 343.1375L76.82438 340.85626L78.058754 340.85626L75.04313 344.90314L78.29313 349.45L76.88688 349.45L74.73063 346.3875Q74.54313 346.1219 74.35563 345.8094Q74.07438 346.27814 73.94938 346.45L71.79313 349.45L70.41813 349.45ZM77.746254 346.8719L77.746254 345.8094L80.996254 345.8094L80.996254 346.8719L77.746254 346.8719ZM82.152504 349.45L82.152504 343.23126L83.10563 343.23126L83.10563 344.16876Q83.465004 343.5125 83.76188 343.3094Q84.07438 343.09064 84.44938 343.09064Q84.98063 343.09064 85.527504 343.41876L85.16813 344.40314Q84.777504 344.16876 84.402504 344.16876Q84.04313 344.16876 83.76188 344.3875Q83.496254 344.59064 83.38688 344.96564Q83.19938 345.52814 83.19938 346.1844L83.19938 349.45L82.152504 349.45ZM90.23063 348.6844Q89.63688 349.1844 89.090004 349.3875Q88.558754 349.59064 87.933754 349.59064Q86.902504 349.59064 86.35563 349.09064Q85.808754 348.59064 85.808754 347.8094Q85.808754 347.35626 86.01188 346.98126Q86.215004 346.59064 86.558754 346.3719Q86.902504 346.1375 87.32438 346.02814Q87.621254 345.9344 88.26188 345.85626Q89.527504 345.71564 90.13688 345.4969Q90.13688 345.27814 90.13688 345.23126Q90.13688 344.575 89.840004 344.3094Q89.433754 343.96564 88.63688 343.96564Q87.902504 343.96564 87.54313 344.23126Q87.183754 344.48126 87.01188 345.1375L85.98063 344.9969Q86.121254 344.34064 86.44938 343.9344Q86.777504 343.52814 87.38688 343.3094Q87.996254 343.09064 88.79313 343.09064Q89.590004 343.09064 90.090004 343.27814Q90.590004 343.46564 90.82438 343.7469Q91.058754 344.02814 91.152504 344.46564Q91.19938 344.73126 91.19938 345.4344L91.19938 346.84064Q91.19938 348.3094 91.26188 348.7Q91.340004 349.09064 91.54313 349.45L90.433754 349.45Q90.277504 349.1219 90.23063 348.6844ZM90.13688 346.325Q89.558754 346.5594 88.41813 346.73126Q87.76188 346.825 87.496254 346.95Q87.23063 347.0594 87.07438 347.27814Q86.933754 347.4969 86.933754 347.77814Q86.933754 348.2 87.246254 348.48126Q87.57438 348.7625 88.183754 348.7625Q88.79313 348.7625 89.26188 348.4969Q89.746254 348.23126 89.965004 347.7625Q90.13688 347.40314 90.13688 346.71564L90.13688 346.325ZM93.121254 351.84064L92.996254 350.85626Q93.340004 350.95 93.60563 350.95Q93.94938 350.95 94.152504 350.825Q94.371254 350.71564 94.51188 350.5125Q94.60563 350.34064 94.840004 349.71564Q94.85563 349.6375 94.933754 349.46564L92.558754 343.23126L93.69938 343.23126L94.996254 346.825Q95.246254 347.5125 95.44938 348.27814Q95.63688 347.54376 95.88688 346.85626L97.215004 343.23126L98.26188 343.23126L95.902504 349.5594Q95.51188 350.575 95.308754 350.96564Q95.027504 351.4969 94.652504 351.73126Q94.29313 351.98126 93.79313 351.98126Q93.496254 351.98126 93.121254 351.84064ZM104.840004 349.45L103.79313 349.45L103.79313 342.73126Q103.402504 343.09064 102.777504 343.46564Q102.16813 343.825 101.683754 343.9969L101.683754 342.98126Q102.558754 342.5594 103.215004 341.98126Q103.88688 341.3875 104.16813 340.825L104.840004 340.825L104.840004 349.45Z" fill-rule="nonzero"/><path fill="#000000" d="M134.59778 349.45L137.9259 344.96564L135.00403 340.85626L136.34778 340.85626L137.91028 343.0594Q138.39465 343.7469 138.59778 344.1219Q138.89465 343.65314 139.28528 343.1375L141.00403 340.85626L142.2384 340.85626L139.22278 344.90314L142.47278 349.45L141.06653 349.45L138.91028 346.3875Q138.72278 346.1219 138.53528 345.8094Q138.25403 346.27814 138.12903 346.45L135.97278 349.45L134.59778 349.45ZM141.9259 346.8719L141.9259 345.8094L145.1759 345.8094L145.1759 346.8719L141.9259 346.8719ZM146.33215 349.45L146.33215 343.23126L147.28528 343.23126L147.28528 344.16876Q147.64465 343.5125 147.94153 343.3094Q148.25403 343.09064 148.62903 343.09064Q149.16028 343.09064 149.70715 343.41876L149.34778 344.40314Q148.95715 344.16876 148.58215 344.16876Q148.22278 344.16876 147.94153 344.3875Q147.6759 344.59064 147.56653 344.96564Q147.37903 345.52814 147.37903 346.1844L147.37903 349.45L146.33215 349.45ZM154.41028 348.6844Q153.81653 349.1844 153.26965 349.3875Q152.7384 349.59064 152.1134 349.59064Q151.08215 349.59064 150.53528 349.09064Q149.9884 348.59064 149.9884 347.8094Q149.9884 347.35626 150.19153 346.98126Q150.39465 346.59064 150.7384 346.3719Q151.08215 346.1375 151.50403 346.02814Q151.8009 345.9344 152.44153 345.85626Q153.70715 345.71564 154.31653 345.4969Q154.31653 345.27814 154.31653 345.23126Q154.31653 344.575 154.01965 344.3094Q153.6134 343.96564 152.81653 343.96564Q152.08215 343.96564 151.72278 344.23126Q151.3634 344.48126 151.19153 345.1375L150.16028 344.9969Q150.3009 344.34064 150.62903 343.9344Q150.95715 343.52814 151.56653 343.3094Q152.1759 343.09064 152.97278 343.09064Q153.76965 343.09064 154.26965 343.27814Q154.76965 343.46564 155.00403 343.7469Q155.2384 344.02814 155.33215 344.46564Q155.37903 344.73126 155.37903 345.4344L155.37903 346.84064Q155.37903 348.3094 155.44153 348.7Q155.51965 349.09064 155.72278 349.45L154.6134 349.45Q154.45715 349.1219 154.41028 348.6844ZM154.31653 346.325Q153.7384 346.5594 152.59778 346.73126Q151.94153 346.825 151.6759 346.95Q151.41028 347.0594 151.25403 347.27814Q151.1134 347.4969 151.1134 347.77814Q151.1134 348.2 151.4259 348.48126Q151.75403 348.7625 152.3634 348.7625Q152.97278 348.7625 153.44153 348.4969Q153.9259 348.23126 154.14465 347.7625Q154.31653 347.40314 154.31653 346.71564L154.31653 346.325ZM157.3009 351.84064L157.1759 350.85626Q157.51965 350.95 157.78528 350.95Q158.12903 350.95 158.33215 350.825Q158.5509 350.71564 158.69153 350.5125Q158.78528 350.34064 159.01965 349.71564Q159.03528 349.6375 159.1134 349.46564L156.7384 343.23126L157.87903 343.23126L159.1759 346.825Q159.4259 347.5125 159.62903 348.27814Q159.81653 347.54376 160.06653 346.85626L161.39465 343.23126L162.44153 343.23126L160.08215 349.5594Q159.69153 350.575 159.4884 350.96564Q159.20715 351.4969 158.83215 351.73126Q158.47278 351.98126 157.97278 351.98126Q157.6759 351.98126 157.3009 351.84064ZM170.59778 348.4344L170.59778 349.45L164.91028 349.45Q164.91028 349.075 165.03528 348.71564Q165.25403 348.1375 165.72278 347.575Q166.20715 347.0125 167.1134 346.27814Q168.51965 345.1219 169.00403 344.45Q169.50403 343.77814 169.50403 343.1844Q169.50403 342.5594 169.0509 342.1375Q168.59778 341.7 167.87903 341.7Q167.1134 341.7 166.66028 342.15314Q166.20715 342.60626 166.19153 343.41876L165.1134 343.3094Q165.22278 342.09064 165.94153 341.46564Q166.6759 340.825 167.91028 340.825Q169.14465 340.825 169.8634 341.5125Q170.58215 342.2 170.58215 343.21564Q170.58215 343.73126 170.3634 344.23126Q170.16028 344.71564 169.66028 345.27814Q169.1759 345.825 168.0509 346.77814Q167.09778 347.575 166.81653 347.8719Q166.5509 348.15314 166.37903 348.4344L170.59778 348.4344Z" fill-rule="nonzero"/><path fill="#000000" d="M198.77742 349.45L202.10555 344.96564L199.18367 340.85626L200.52742 340.85626L202.08992 343.0594Q202.5743 343.7469 202.77742 344.1219Q203.0743 343.65314 203.46492 343.1375L205.18367 340.85626L206.41805 340.85626L203.40242 344.90314L206.65242 349.45L205.24617 349.45L203.08992 346.3875Q202.90242 346.1219 202.71492 345.8094Q202.43367 346.27814 202.30867 346.45L200.15242 349.45L198.77742 349.45ZM206.10555 346.8719L206.10555 345.8094L209.35555 345.8094L209.35555 346.8719L206.10555 346.8719ZM210.5118 349.45L210.5118 343.23126L211.46492 343.23126L211.46492 344.16876Q211.8243 343.5125 212.12117 343.3094Q212.43367 343.09064 212.80867 343.09064Q213.33992 343.09064 213.8868 343.41876L213.52742 344.40314Q213.1368 344.16876 212.7618 344.16876Q212.40242 344.16876 212.12117 344.3875Q211.85555 344.59064 211.74617 344.96564Q211.55867 345.52814 211.55867 346.1844L211.55867 349.45L210.5118 349.45ZM218.58992 348.6844Q217.99617 349.1844 217.4493 349.3875Q216.91805 349.59064 216.29305 349.59064Q215.2618 349.59064 214.71492 349.09064Q214.16805 348.59064 214.16805 347.8094Q214.16805 347.35626 214.37117 346.98126Q214.5743 346.59064 214.91805 346.3719Q215.2618 346.1375 215.68367 346.02814Q215.98055 345.9344 216.62117 345.85626Q217.8868 345.71564 218.49617 345.4969Q218.49617 345.27814 218.49617 345.23126Q218.49617 344.575 218.1993 344.3094Q217.79305 343.96564 216.99617 343.96564Q216.2618 343.96564 215.90242 344.23126Q215.54305 344.48126 215.37117 345.1375L214.33992 344.9969Q214.48055 344.34064 214.80867 343.9344Q215.1368 343.52814 215.74617 343.3094Q216.35555 343.09064 217.15242 343.09064Q217.9493 343.09064 218.4493 343.27814Q218.9493 343.46564 219.18367 343.7469Q219.41805 344.02814 219.5118 344.46564Q219.55867 344.73126 219.55867 345.4344L219.55867 346.84064Q219.55867 348.3094 219.62117 348.7Q219.6993 349.09064 219.90242 349.45L218.79305 349.45Q218.6368 349.1219 218.58992 348.6844ZM218.49617 346.325Q217.91805 346.5594 216.77742 346.73126Q216.12117 346.825 215.85555 346.95Q215.58992 347.0594 215.43367 347.27814Q215.29305 347.4969 215.29305 347.77814Q215.29305 348.2 215.60555 348.48126Q215.93367 348.7625 216.54305 348.7625Q217.15242 348.7625 217.62117 348.4969Q218.10555 348.23126 218.3243 347.7625Q218.49617 347.40314 218.49617 346.71564L218.49617 346.325ZM221.48055 351.84064L221.35555 350.85626Q221.6993 350.95 221.96492 350.95Q222.30867 350.95 222.5118 350.825Q222.73055 350.71564 222.87117 350.5125Q222.96492 350.34064 223.1993 349.71564Q223.21492 349.6375 223.29305 349.46564L220.91805 343.23126L222.05867 343.23126L223.35555 346.825Q223.60555 347.5125 223.80867 348.27814Q223.99617 347.54376 224.24617 346.85626L225.5743 343.23126L226.62117 343.23126L224.2618 349.5594Q223.87117 350.575 223.66805 350.96564Q223.3868 351.4969 223.0118 351.73126Q222.65242 351.98126 222.15242 351.98126Q221.85555 351.98126 221.48055 351.84064ZM229.23055 347.1844L230.29305 347.04376Q230.46492 347.9344 230.90242 348.34064Q231.33992 348.73126 231.96492 348.73126Q232.71492 348.73126 233.23055 348.21564Q233.74617 347.7 233.74617 346.9344Q233.74617 346.21564 233.2618 345.7469Q232.79305 345.2625 232.05867 345.2625Q231.7618 345.2625 231.30867 345.3875L231.43367 344.45Q231.54305 344.46564 231.60555 344.46564Q232.27742 344.46564 232.80867 344.1219Q233.35555 343.7625 233.35555 343.02814Q233.35555 342.45 232.96492 342.075Q232.5743 341.6844 231.9493 341.6844Q231.33992 341.6844 230.91805 342.075Q230.5118 342.46564 230.40242 343.23126L229.33992 343.04376Q229.52742 341.9969 230.21492 341.41876Q230.90242 340.825 231.91805 340.825Q232.62117 340.825 233.21492 341.1375Q233.80867 341.4344 234.12117 341.95Q234.43367 342.46564 234.43367 343.0594Q234.43367 343.60626 234.1368 344.075Q233.83992 344.52814 233.2618 344.79376Q234.0118 344.96564 234.43367 345.52814Q234.85555 346.075 234.85555 346.91876Q234.85555 348.04376 234.02742 348.825Q233.21492 349.60626 231.96492 349.60626Q230.83992 349.60626 230.08992 348.9344Q229.33992 348.2469 229.23055 347.1844Z" fill-rule="nonzero"/><path fill="#000000" d="M262.95706 349.45L266.2852 344.96564L263.3633 340.85626L264.70706 340.85626L266.26956 343.0594Q266.75394 343.7469 266.95706 344.1219Q267.25394 343.65314 267.64456 343.1375L269.3633 340.85626L270.5977 340.85626L267.58206 344.90314L270.83206 349.45L269.4258 349.45L267.26956 346.3875Q267.08206 346.1219 266.89456 345.8094Q266.6133 346.27814 266.4883 346.45L264.33206 349.45L262.95706 349.45ZM270.2852 346.8719L270.2852 345.8094L273.5352 345.8094L273.5352 346.8719L270.2852 346.8719ZM274.69144 349.45L274.69144 343.23126L275.64456 343.23126L275.64456 344.16876Q276.00394 343.5125 276.3008 343.3094Q276.6133 343.09064 276.9883 343.09064Q277.51956 343.09064 278.06644 343.41876L277.70706 344.40314Q277.31644 344.16876 276.94144 344.16876Q276.58206 344.16876 276.3008 344.3875Q276.0352 344.59064 275.9258 344.96564Q275.7383 345.52814 275.7383 346.1844L275.7383 349.45L274.69144 349.45ZM282.76956 348.6844Q282.1758 349.1844 281.62894 349.3875Q281.0977 349.59064 280.4727 349.59064Q279.44144 349.59064 278.89456 349.09064Q278.3477 348.59064 278.3477 347.8094Q278.3477 347.35626 278.5508 346.98126Q278.75394 346.59064 279.0977 346.3719Q279.44144 346.1375 279.8633 346.02814Q280.1602 345.9344 280.8008 345.85626Q282.06644 345.71564 282.6758 345.4969Q282.6758 345.27814 282.6758 345.23126Q282.6758 344.575 282.37894 344.3094Q281.9727 343.96564 281.1758 343.96564Q280.44144 343.96564 280.08206 344.23126Q279.7227 344.48126 279.5508 345.1375L278.51956 344.9969Q278.6602 344.34064 278.9883 343.9344Q279.31644 343.52814 279.9258 343.3094Q280.5352 343.09064 281.33206 343.09064Q282.12894 343.09064 282.62894 343.27814Q283.12894 343.46564 283.3633 343.7469Q283.5977 344.02814 283.69144 344.46564Q283.7383 344.73126 283.7383 345.4344L283.7383 346.84064Q283.7383 348.3094 283.8008 348.7Q283.87894 349.09064 284.08206 349.45L282.9727 349.45Q282.81644 349.1219 282.76956 348.6844ZM282.6758 346.325Q282.0977 346.5594 280.95706 346.73126Q280.3008 346.825 280.0352 346.95Q279.76956 347.0594 279.6133 347.27814Q279.4727 347.4969 279.4727 347.77814Q279.4727 348.2 279.7852 348.48126Q280.1133 348.7625 280.7227 348.7625Q281.33206 348.7625 281.8008 348.4969Q282.2852 348.23126 282.50394 347.7625Q282.6758 347.40314 282.6758 346.71564L282.6758 346.325ZM285.6602 351.84064L285.5352 350.85626Q285.87894 350.95 286.14456 350.95Q286.4883 350.95 286.69144 350.825Q286.9102 350.71564 287.0508 350.5125Q287.14456 350.34064 287.37894 349.71564Q287.39456 349.6375 287.4727 349.46564L285.0977 343.23126L286.2383 343.23126L287.5352 346.825Q287.7852 347.5125 287.9883 348.27814Q288.1758 347.54376 288.4258 346.85626L289.75394 343.23126L290.8008 343.23126L288.44144 349.5594Q288.0508 350.575 287.8477 350.96564Q287.56644 351.4969 287.19144 351.73126Q286.83206 351.98126 286.33206 351.98126Q286.0352 351.98126 285.6602 351.84064ZM296.7852 349.45L296.7852 347.3875L293.06644 347.3875L293.06644 346.41876L296.9883 340.85626L297.8477 340.85626L297.8477 346.41876L299.00394 346.41876L299.00394 347.3875L297.8477 347.3875L297.8477 349.45L296.7852 349.45ZM296.7852 346.41876L296.7852 342.5594L294.0977 346.41876L296.7852 346.41876Z" fill-rule="nonzero"/><path fill="#000000" d="M327.1367 349.45L330.4648 344.96564L327.54294 340.85626L328.8867 340.85626L330.4492 343.0594Q330.93356 343.7469 331.1367 344.1219Q331.43356 343.65314 331.8242 343.1375L333.54294 340.85626L334.7773 340.85626L331.7617 344.90314L335.0117 349.45L333.60544 349.45L331.4492 346.3875Q331.2617 346.1219 331.0742 345.8094Q330.79294 346.27814 330.66794 346.45L328.5117 349.45L327.1367 349.45ZM334.4648 346.8719L334.4648 345.8094L337.7148 345.8094L337.7148 346.8719L334.4648 346.8719ZM338.87106 349.45L338.87106 343.23126L339.8242 343.23126L339.8242 344.16876Q340.18356 343.5125 340.48044 343.3094Q340.79294 343.09064 341.16794 343.09064Q341.6992 343.09064 342.24606 343.41876L341.8867 344.40314Q341.49606 344.16876 341.12106 344.16876Q340.7617 344.16876 340.48044 344.3875Q340.2148 344.59064 340.10544 344.96564Q339.91794 345.52814 339.91794 346.1844L339.91794 349.45L338.87106 349.45ZM346.9492 348.6844Q346.35544 349.1844 345.80856 349.3875Q345.2773 349.59064 344.6523 349.59064Q343.62106 349.59064 343.0742 349.09064Q342.5273 348.59064 342.5273 347.8094Q342.5273 347.35626 342.73044 346.98126Q342.93356 346.59064 343.2773 346.3719Q343.62106 346.1375 344.04294 346.02814Q344.3398 345.9344 344.98044 345.85626Q346.24606 345.71564 346.85544 345.4969Q346.85544 345.27814 346.85544 345.23126Q346.85544 344.575 346.55856 344.3094Q346.1523 343.96564 345.35544 343.96564Q344.62106 343.96564 344.2617 344.23126Q343.9023 344.48126 343.73044 345.1375L342.6992 344.9969Q342.8398 344.34064 343.16794 343.9344Q343.49606 343.52814 344.10544 343.3094Q344.7148 343.09064 345.5117 343.09064Q346.30856 343.09064 346.80856 343.27814Q347.30856 343.46564 347.54294 343.7469Q347.7773 344.02814 347.87106 344.46564Q347.91794 344.73126 347.91794 345.4344L347.91794 346.84064Q347.91794 348.3094 347.98044 348.7Q348.05856 349.09064 348.2617 349.45L347.1523 349.45Q346.99606 349.1219 346.9492 348.6844ZM346.85544 346.325Q346.2773 346.5594 345.1367 346.73126Q344.48044 346.825 344.2148 346.95Q343.9492 347.0594 343.79294 347.27814Q343.6523 347.4969 343.6523 347.77814Q343.6523 348.2 343.9648 348.48126Q344.29294 348.7625 344.9023 348.7625Q345.5117 348.7625 345.98044 348.4969Q346.4648 348.23126 346.68356 347.7625Q346.85544 347.40314 346.85544 346.71564L346.85544 346.325ZM349.8398 351.84064L349.7148 350.85626Q350.05856 350.95 350.3242 350.95Q350.66794 350.95 350.87106 350.825Q351.0898 350.71564 351.23044 350.5125Q351.3242 350.34064 351.55856 349.71564Q351.5742 349.6375 351.6523 349.46564L349.2773 343.23126L350.41794 343.23126L351.7148 346.825Q351.9648 347.5125 352.16794 348.27814Q352.35544 347.54376 352.60544 346.85626L353.93356 343.23126L354.98044 343.23126L352.62106 349.5594Q352.23044 350.575 352.0273 350.96564Q351.74606 351.4969 351.37106 351.73126Q351.0117 351.98126 350.5117 351.98126Q350.2148 351.98126 349.8398 351.84064ZM357.5898 347.2L358.6992 347.10626Q358.8242 347.91876 359.2617 348.325Q359.7148 348.73126 360.35544 348.73126Q361.10544 348.73126 361.6367 348.15314Q362.16794 347.575 362.16794 346.6375Q362.16794 345.73126 361.6523 345.21564Q361.1523 344.6844 360.3242 344.6844Q359.8242 344.6844 359.4023 344.91876Q358.99606 345.15314 358.7617 345.5125L357.7773 345.3875L358.60544 340.98126L362.8867 340.98126L362.8867 341.98126L359.4492 341.98126L358.99606 344.29376Q359.7617 343.7469 360.60544 343.7469Q361.73044 343.7469 362.49606 344.52814Q363.2773 345.3094 363.2773 346.54376Q363.2773 347.7 362.60544 348.5594Q361.7773 349.59064 360.35544 349.59064Q359.18356 349.59064 358.43356 348.9344Q357.6992 348.27814 357.5898 347.2Z" fill-rule="nonzero"/><path fill="#000000" d="M391.31635 349.45L394.64447 344.96564L391.7226 340.85626L393.06635 340.85626L394.62885 343.0594Q395.11322 343.7469 395.31635 344.1219Q395.61322 343.65314 396.00385 343.1375L397.7226 340.85626L398.95697 340.85626L395.94135 344.90314L399.19135 349.45L397.7851 349.45L395.62885 346.3875Q395.44135 346.1219 395.25385 345.8094Q394.9726 346.27814 394.8476 346.45L392.69135 349.45L391.31635 349.45ZM398.64447 346.8719L398.64447 345.8094L401.89447 345.8094L401.89447 346.8719L398.64447 346.8719ZM403.05072 349.45L403.05072 343.23126L404.00385 343.23126L404.00385 344.16876Q404.36322 343.5125 404.6601 343.3094Q404.9726 343.09064 405.3476 343.09064Q405.87885 343.09064 406.42572 343.41876L406.06635 344.40314Q405.67572 344.16876 405.30072 344.16876Q404.94135 344.16876 404.6601 344.3875Q404.39447 344.59064 404.2851 344.96564Q404.0976 345.52814 404.0976 346.1844L404.0976 349.45L403.05072 349.45ZM411.12885 348.6844Q410.5351 349.1844 409.98822 349.3875Q409.45697 349.59064 408.83197 349.59064Q407.80072 349.59064 407.25385 349.09064Q406.70697 348.59064 406.70697 347.8094Q406.70697 347.35626 406.9101 346.98126Q407.11322 346.59064 407.45697 346.3719Q407.80072 346.1375 408.2226 346.02814Q408.51947 345.9344 409.1601 345.85626Q410.42572 345.71564 411.0351 345.4969Q411.0351 345.27814 411.0351 345.23126Q411.0351 344.575 410.73822 344.3094Q410.33197 343.96564 409.5351 343.96564Q408.80072 343.96564 408.44135 344.23126Q408.08197 344.48126 407.9101 345.1375L406.87885 344.9969Q407.01947 344.34064 407.3476 343.9344Q407.67572 343.52814 408.2851 343.3094Q408.89447 343.09064 409.69135 343.09064Q410.48822 343.09064 410.98822 343.27814Q411.48822 343.46564 411.7226 343.7469Q411.95697 344.02814 412.05072 344.46564Q412.0976 344.73126 412.0976 345.4344L412.0976 346.84064Q412.0976 348.3094 412.1601 348.7Q412.23822 349.09064 412.44135 349.45L411.33197 349.45Q411.17572 349.1219 411.12885 348.6844ZM411.0351 346.325Q410.45697 346.5594 409.31635 346.73126Q408.6601 346.825 408.39447 346.95Q408.12885 347.0594 407.9726 347.27814Q407.83197 347.4969 407.83197 347.77814Q407.83197 348.2 408.14447 348.48126Q408.4726 348.7625 409.08197 348.7625Q409.69135 348.7625 410.1601 348.4969Q410.64447 348.23126 410.86322 347.7625Q411.0351 347.40314 411.0351 346.71564L411.0351 346.325ZM414.01947 351.84064L413.89447 350.85626Q414.23822 350.95 414.50385 350.95Q414.8476 350.95 415.05072 350.825Q415.26947 350.71564 415.4101 350.5125Q415.50385 350.34064 415.73822 349.71564Q415.75385 349.6375 415.83197 349.46564L413.45697 343.23126L414.5976 343.23126L415.89447 346.825Q416.14447 347.5125 416.3476 348.27814Q416.5351 347.54376 416.7851 346.85626L418.11322 343.23126L419.1601 343.23126L416.80072 349.5594Q416.4101 350.575 416.20697 350.96564Q415.92572 351.4969 415.55072 351.73126Q415.19135 351.98126 414.69135 351.98126Q414.39447 351.98126 414.01947 351.84064ZM427.23822 342.96564L426.19135 343.04376Q426.05072 342.41876 425.80072 342.1375Q425.36322 341.6844 424.73822 341.6844Q424.23822 341.6844 423.8476 341.96564Q423.36322 342.34064 423.06635 343.04376Q422.7851 343.73126 422.76947 345.0125Q423.14447 344.4344 423.69135 344.15314Q424.25385 343.8719 424.86322 343.8719Q425.9101 343.8719 426.64447 344.65314Q427.39447 345.4344 427.39447 346.65314Q427.39447 347.46564 427.0351 348.16876Q426.69135 348.85626 426.08197 349.23126Q425.4726 349.59064 424.70697 349.59064Q423.37885 349.59064 422.55072 348.6219Q421.7226 347.65314 421.7226 345.4344Q421.7226 342.9344 422.64447 341.8094Q423.44135 340.825 424.80072 340.825Q425.81635 340.825 426.45697 341.40314Q427.11322 341.96564 427.23822 342.96564ZM422.94135 346.66876Q422.94135 347.21564 423.1601 347.71564Q423.39447 348.2 423.80072 348.46564Q424.2226 348.73126 424.69135 348.73126Q425.3476 348.73126 425.83197 348.2Q426.31635 347.65314 426.31635 346.73126Q426.31635 345.84064 425.83197 345.325Q425.36322 344.8094 424.64447 344.8094Q423.92572 344.8094 423.42572 345.325Q422.94135 345.84064 422.94135 346.66876Z" fill-rule="nonzero"/><path fill="#000000" d="M455.49597 349.45L458.8241 344.96564L455.90222 340.85626L457.24597 340.85626L458.80847 343.0594Q459.29285 343.7469 459.49597 344.1219Q459.79285 343.65314 460.18347 343.1375L461.90222 340.85626L463.1366 340.85626L460.12097 344.90314L463.37097 349.45L461.96472 349.45L459.80847 346.3875Q459.62097 346.1219 459.43347 345.8094Q459.15222 346.27814 459.02722 346.45L456.87097 349.45L455.49597 349.45ZM462.8241 346.8719L462.8241 345.8094L466.0741 345.8094L466.0741 346.8719L462.8241 346.8719ZM467.23035 349.45L467.23035 343.23126L468.18347 343.23126L468.18347 344.16876Q468.54285 343.5125 468.83972 343.3094Q469.15222 343.09064 469.52722 343.09064Q470.05847 343.09064 470.60535 343.41876L470.24597 344.40314Q469.85535 344.16876 469.48035 344.16876Q469.12097 344.16876 468.83972 344.3875Q468.5741 344.59064 468.46472 344.96564Q468.27722 345.52814 468.27722 346.1844L468.27722 349.45L467.23035 349.45ZM475.30847 348.6844Q474.71472 349.1844 474.16785 349.3875Q473.6366 349.59064 473.0116 349.59064Q471.98035 349.59064 471.43347 349.09064Q470.8866 348.59064 470.8866 347.8094Q470.8866 347.35626 471.08972 346.98126Q471.29285 346.59064 471.6366 346.3719Q471.98035 346.1375 472.40222 346.02814Q472.6991 345.9344 473.33972 345.85626Q474.60535 345.71564 475.21472 345.4969Q475.21472 345.27814 475.21472 345.23126Q475.21472 344.575 474.91785 344.3094Q474.5116 343.96564 473.71472 343.96564Q472.98035 343.96564 472.62097 344.23126Q472.2616 344.48126 472.08972 345.1375L471.05847 344.9969Q471.1991 344.34064 471.52722 343.9344Q471.85535 343.52814 472.46472 343.3094Q473.0741 343.09064 473.87097 343.09064Q474.66785 343.09064 475.16785 343.27814Q475.66785 343.46564 475.90222 343.7469Q476.1366 344.02814 476.23035 344.46564Q476.27722 344.73126 476.27722 345.4344L476.27722 346.84064Q476.27722 348.3094 476.33972 348.7Q476.41785 349.09064 476.62097 349.45L475.5116 349.45Q475.35535 349.1219 475.30847 348.6844ZM475.21472 346.325Q474.6366 346.5594 473.49597 346.73126Q472.83972 346.825 472.5741 346.95Q472.30847 347.0594 472.15222 347.27814Q472.0116 347.4969 472.0116 347.77814Q472.0116 348.2 472.3241 348.48126Q472.65222 348.7625 473.2616 348.7625Q473.87097 348.7625 474.33972 348.4969Q474.8241 348.23126 475.04285 347.7625Q475.21472 347.40314 475.21472 346.71564L475.21472 346.325ZM478.1991 351.84064L478.0741 350.85626Q478.41785 350.95 478.68347 350.95Q479.02722 350.95 479.23035 350.825Q479.4491 350.71564 479.58972 350.5125Q479.68347 350.34064 479.91785 349.71564Q479.93347 349.6375 480.0116 349.46564L477.6366 343.23126L478.77722 343.23126L480.0741 346.825Q480.3241 347.5125 480.52722 348.27814Q480.71472 347.54376 480.96472 346.85626L482.29285 343.23126L483.33972 343.23126L480.98035 349.5594Q480.58972 350.575 480.3866 350.96564Q480.10535 351.4969 479.73035 351.73126Q479.37097 351.98126 478.87097 351.98126Q478.5741 351.98126 478.1991 351.84064ZM486.0116 341.98126L486.0116 340.96564L491.5741 340.96564L491.5741 341.79376Q490.7616 342.66876 489.9491 344.1219Q489.15222 345.5594 488.71472 347.09064Q488.3866 348.16876 488.30847 349.45L487.21472 349.45Q487.23035 348.4344 487.60535 346.9969Q487.99597 345.5594 488.6991 344.23126Q489.41785 342.90314 490.23035 341.98126L486.0116 341.98126Z" fill-rule="nonzero"/><path fill="#000000" d="M519.6756 349.45L523.0037 344.96564L520.08185 340.85626L521.4256 340.85626L522.9881 343.0594Q523.4725 343.7469 523.6756 344.1219Q523.9725 343.65314 524.3631 343.1375L526.08185 340.85626L527.3162 340.85626L524.3006 344.90314L527.5506 349.45L526.14435 349.45L523.9881 346.3875Q523.8006 346.1219 523.6131 345.8094Q523.33185 346.27814 523.20685 346.45L521.0506 349.45L519.6756 349.45ZM527.0037 346.8719L527.0037 345.8094L530.2537 345.8094L530.2537 346.8719L527.0037 346.8719ZM531.41 349.45L531.41 343.23126L532.3631 343.23126L532.3631 344.16876Q532.7225 343.5125 533.01935 343.3094Q533.33185 343.09064 533.70685 343.09064Q534.2381 343.09064 534.785 343.41876L534.4256 344.40314Q534.035 344.16876 533.66 344.16876Q533.3006 344.16876 533.01935 344.3875Q532.7537 344.59064 532.64435 344.96564Q532.45685 345.52814 532.45685 346.1844L532.45685 349.45L531.41 349.45ZM539.4881 348.6844Q538.89435 349.1844 538.3475 349.3875Q537.8162 349.59064 537.1912 349.59064Q536.16 349.59064 535.6131 349.09064Q535.0662 348.59064 535.0662 347.8094Q535.0662 347.35626 535.26935 346.98126Q535.4725 346.59064 535.8162 346.3719Q536.16 346.1375 536.58185 346.02814Q536.8787 345.9344 537.51935 345.85626Q538.785 345.71564 539.39435 345.4969Q539.39435 345.27814 539.39435 345.23126Q539.39435 344.575 539.0975 344.3094Q538.6912 343.96564 537.89435 343.96564Q537.16 343.96564 536.8006 344.23126Q536.4412 344.48126 536.26935 345.1375L535.2381 344.9969Q535.3787 344.34064 535.70685 343.9344Q536.035 343.52814 536.64435 343.3094Q537.2537 343.09064 538.0506 343.09064Q538.8475 343.09064 539.3475 343.27814Q539.8475 343.46564 540.08185 343.7469Q540.3162 344.02814 540.41 344.46564Q540.45685 344.73126 540.45685 345.4344L540.45685 346.84064Q540.45685 348.3094 540.51935 348.7Q540.5975 349.09064 540.8006 349.45L539.6912 349.45Q539.535 349.1219 539.4881 348.6844ZM539.39435 346.325Q538.8162 346.5594 537.6756 346.73126Q537.01935 346.825 536.7537 346.95Q536.4881 347.0594 536.33185 347.27814Q536.1912 347.4969 536.1912 347.77814Q536.1912 348.2 536.5037 348.48126Q536.83185 348.7625 537.4412 348.7625Q538.0506 348.7625 538.51935 348.4969Q539.0037 348.23126 539.2225 347.7625Q539.39435 347.40314 539.39435 346.71564L539.39435 346.325ZM542.3787 351.84064L542.2537 350.85626Q542.5975 350.95 542.8631 350.95Q543.20685 350.95 543.41 350.825Q543.6287 350.71564 543.76935 350.5125Q543.8631 350.34064 544.0975 349.71564Q544.1131 349.6375 544.1912 349.46564L541.8162 343.23126L542.95685 343.23126L544.2537 346.825Q544.5037 347.5125 544.70685 348.27814Q544.89435 347.54376 545.14435 346.85626L546.4725 343.23126L547.51935 343.23126L545.16 349.5594Q544.76935 350.575 544.5662 350.96564Q544.285 351.4969 543.91 351.73126Q543.5506 351.98126 543.0506 351.98126Q542.7537 351.98126 542.3787 351.84064ZM551.7537 344.79376Q551.0975 344.54376 550.76935 344.10626Q550.45685 343.65314 550.45685 343.04376Q550.45685 342.10626 551.1287 341.46564Q551.8162 340.825 552.9256 340.825Q554.0506 340.825 554.7381 341.48126Q555.4256 342.1375 555.4256 343.075Q555.4256 343.66876 555.1131 344.10626Q554.8006 344.54376 554.16 344.79376Q554.95685 345.04376 555.3631 345.6219Q555.76935 346.2 555.76935 346.9969Q555.76935 348.09064 554.9881 348.84064Q554.2225 349.59064 552.9412 349.59064Q551.6756 349.59064 550.89435 348.84064Q550.1131 348.09064 550.1131 346.96564Q550.1131 346.1219 550.535 345.5594Q550.9725 344.9969 551.7537 344.79376ZM551.535 342.9969Q551.535 343.60626 551.9256 343.9969Q552.33185 344.3875 552.95685 344.3875Q553.5662 344.3875 553.95685 344.0125Q554.3475 343.6219 554.3475 343.0594Q554.3475 342.48126 553.9412 342.09064Q553.535 341.6844 552.9412 341.6844Q552.33185 341.6844 551.9256 342.075Q551.535 342.46564 551.535 342.9969ZM551.20685 346.96564Q551.20685 347.41876 551.41 347.84064Q551.6287 348.2625 552.0506 348.4969Q552.4725 348.73126 552.95685 348.73126Q553.70685 348.73126 554.1912 348.2469Q554.6912 347.7625 554.6912 347.0125Q554.6912 346.2469 554.1912 345.7469Q553.6912 345.2469 552.9256 345.2469Q552.1756 345.2469 551.6912 345.7469Q551.20685 346.23126 551.20685 346.96564Z" fill-rule="nonzero"/><path fill="#4285f4" d="M183.5 56.916668C183.5 56.364384 183.94771 55.916668 184.5 55.916668L194.5 55.916668C195.05229 55.916668 195.5 56.364384 195.5 56.916668L195.5 66.916664C195.5 67.46895 195.05229 67.916664 194.5 67.916664L184.5 67.916664C183.94771 67.916664 183.5 67.46895 183.5 66.916664Z" fill-rule="nonzero"/><path fill="#1a1a1a" d="M204.4375 65.916664L204.4375 57.322914L208.25 57.322914Q209.40625 57.322914 210.0 57.55729Q210.59375 57.791664 210.95312 58.385414Q211.3125 58.96354 211.3125 59.666664Q211.3125 60.58854 210.71875 61.21354Q210.125 61.83854 208.89062 62.010414Q209.34375 62.229164 209.57812 62.43229Q210.07812 62.885414 210.51562 63.572914L212.01562 65.916664L210.57812 65.916664L209.45312 64.135414Q208.95312 63.354164 208.625 62.947914Q208.3125 62.541664 208.04688 62.385414Q207.79688 62.21354 207.53125 62.135414Q207.34375 62.104164 206.90625 62.104164L205.57812 62.104164L205.57812 65.916664L204.4375 65.916664ZM205.57812 61.11979L208.03125 61.11979Q208.79688 61.11979 209.23438 60.96354Q209.6875 60.791664 209.90625 60.447914Q210.14062 60.08854 210.14062 59.666664Q210.14062 59.05729 209.6875 58.666664Q209.25 58.27604 208.29688 58.27604L205.57812 58.27604L205.57812 61.11979ZM217.35938 65.15104Q216.76562 65.65104 216.21875 65.854164Q215.6875 66.05729 215.0625 66.05729Q214.03125 66.05729 213.48438 65.55729Q212.9375 65.05729 212.9375 64.27604Q212.9375 63.822914 213.14062 63.447914Q213.34375 63.05729 213.6875 62.83854Q214.03125 62.604164 214.45312 62.49479Q214.75 62.40104 215.39062 62.322914Q216.65625 62.18229 217.26562 61.96354Q217.26562 61.74479 217.26562 61.697914Q217.26562 61.041664 216.96875 60.77604Q216.5625 60.43229 215.76562 60.43229Q215.03125 60.43229 214.67188 60.697914Q214.3125 60.947914 214.14062 61.604164L213.10938 61.46354Q213.25 60.80729 213.57812 60.40104Q213.90625 59.99479 214.51562 59.77604Q215.125 59.55729 215.92188 59.55729Q216.71875 59.55729 217.21875 59.74479Q217.71875 59.93229 217.95312 60.21354Q218.1875 60.49479 218.28125 60.93229Q218.32812 61.197914 218.32812 61.90104L218.32812 63.30729Q218.32812 64.77604 218.39062 65.166664Q218.46875 65.55729 218.67188 65.916664L217.5625 65.916664Q217.40625 65.58854 217.35938 65.15104ZM217.26562 62.791664Q216.6875 63.02604 215.54688 63.197914Q214.89062 63.291664 214.625 63.416664Q214.35938 63.52604 214.20312 63.74479Q214.0625 63.96354 214.0625 64.24479Q214.0625 64.666664 214.375 64.947914Q214.70312 65.229164 215.3125 65.229164Q215.92188 65.229164 216.39062 64.96354Q216.875 64.697914 217.09375 64.229164Q217.26562 63.86979 217.26562 63.18229L217.26562 62.791664ZM224.32812 65.916664L224.32812 65.135414Q223.73438 66.05729 222.59375 66.05729Q221.84375 66.05729 221.21875 65.65104Q220.59375 65.229164 220.25 64.49479Q219.90625 63.760414 219.90625 62.80729Q219.90625 61.885414 220.21875 61.11979Q220.53125 60.354164 221.15625 59.96354Q221.78125 59.55729 222.54688 59.55729Q223.10938 59.55729 223.54688 59.791664Q223.98438 60.02604 224.26562 60.40104L224.26562 57.322914L225.3125 57.322914L225.3125 65.916664L224.32812 65.916664ZM221.0 62.80729Q221.0 64.010414 221.5 64.604164Q222.0 65.18229 222.6875 65.18229Q223.375 65.18229 223.85938 64.61979Q224.34375 64.05729 224.34375 62.90104Q224.34375 61.61979 223.84375 61.02604Q223.35938 60.43229 222.64062 60.43229Q221.9375 60.43229 221.46875 61.010414Q221.0 61.572914 221.0 62.80729ZM227.29688 58.541664L227.29688 57.322914L228.35938 57.322914L228.35938 58.541664L227.29688 58.541664ZM227.29688 65.916664L227.29688 59.697914L228.35938 59.697914L228.35938 65.916664L227.29688 65.916664ZM229.90625 62.80729Q229.90625 61.072914 230.85938 60.24479Q231.65625 59.55729 232.8125 59.55729Q234.09375 59.55729 234.90625 60.40104Q235.73438 61.229164 235.73438 62.71354Q235.73438 63.916664 235.375 64.604164Q235.01562 65.291664 234.3125 65.68229Q233.625 66.05729 232.8125 66.05729Q231.51562 66.05729 230.70312 65.229164Q229.90625 64.385414 229.90625 62.80729ZM230.98438 62.80729Q230.98438 63.99479 231.5 64.58854Q232.03125 65.18229 232.8125 65.18229Q233.60938 65.18229 234.125 64.58854Q234.64062 63.99479 234.64062 62.77604Q234.64062 61.61979 234.10938 61.02604Q233.59375 60.43229 232.8125 60.43229Q232.03125 60.43229 231.5 61.02604Q230.98438 61.604164 230.98438 62.80729ZM237.26562 65.916664L237.26562 57.322914L238.32812 57.322914L238.32812 65.916664L237.26562 65.916664ZM239.90625 62.80729Q239.90625 61.072914 240.85938 60.24479Q241.65625 59.55729 242.8125 59.55729Q244.09375 59.55729 244.90625 60.40104Q245.73438 61.229164 245.73438 62.71354Q245.73438 63.916664 245.375 64.604164Q245.01562 65.291664 244.3125 65.68229Q243.625 66.05729 242.8125 66.05729Q241.51562 66.05729 240.70312 65.229164Q239.90625 64.385414 239.90625 62.80729ZM240.98438 62.80729Q240.98438 63.99479 241.5 64.58854Q242.03125 65.18229 242.8125 65.18229Q243.60938 65.18229 244.125 64.58854Q244.64062 63.99479 244.64062 62.77604Q244.64062 61.61979 244.10938 61.02604Q243.59375 60.43229 242.8125 60.43229Q242.03125 60.43229 241.5 61.02604Q240.98438 61.604164 240.98438 62.80729ZM247.09375 66.43229L248.125 66.58854Q248.1875 67.05729 248.48438 67.27604Q248.875 67.572914 249.54688 67.572914Q250.28125 67.572914 250.67188 67.27604Q251.07812 66.979164 251.21875 66.46354Q251.3125 66.135414 251.29688 65.104164Q250.60938 65.916664 249.57812 65.916664Q248.29688 65.916664 247.59375 64.99479Q246.89062 64.05729 246.89062 62.77604Q246.89062 61.885414 247.20312 61.135414Q247.53125 60.36979 248.14062 59.96354Q248.75 59.55729 249.57812 59.55729Q250.6875 59.55729 251.40625 60.447914L251.40625 59.697914L252.375 59.697914L252.375 65.072914Q252.375 66.52604 252.07812 67.135414Q251.78125 67.74479 251.14062 68.08854Q250.5 68.447914 249.5625 68.447914Q248.45312 68.447914 247.76562 67.947914Q247.07812 67.447914 247.09375 66.43229ZM247.96875 62.697914Q247.96875 63.916664 248.45312 64.479164Q248.9375 65.041664 249.67188 65.041664Q250.40625 65.041664 250.89062 64.479164Q251.39062 63.916664 251.39062 62.729164Q251.39062 61.58854 250.875 61.010414Q250.375 60.43229 249.65625 60.43229Q248.95312 60.43229 248.45312 61.010414Q247.96875 61.572914 247.96875 62.697914ZM254.29688 58.541664L254.29688 57.322914L255.35938 57.322914L255.35938 58.541664L254.29688 58.541664ZM254.29688 65.916664L254.29688 59.697914L255.35938 59.697914L255.35938 65.916664L254.29688 65.916664ZM256.875 64.05729L257.90625 63.90104Q258.0 64.52604 258.39062 64.854164Q258.79688 65.18229 259.53125 65.18229Q260.25 65.18229 260.59375 64.90104Q260.95312 64.604164 260.95312 64.197914Q260.95312 63.83854 260.64062 63.635414Q260.42188 63.49479 259.5625 63.27604Q258.40625 62.979164 257.95312 62.77604Q257.51562 62.55729 257.28125 62.18229Q257.04688 61.80729 257.04688 61.33854Q257.04688 60.93229 257.23438 60.572914Q257.42188 60.21354 257.75 59.979164Q258.0 59.80729 258.42188 59.68229Q258.84375 59.55729 259.34375 59.55729Q260.0625 59.55729 260.60938 59.77604Q261.17188 59.979164 261.4375 60.33854Q261.70312 60.697914 261.79688 61.291664L260.76562 61.43229Q260.70312 60.96354 260.35938 60.697914Q260.03125 60.416664 259.40625 60.416664Q258.6875 60.416664 258.375 60.666664Q258.0625 60.90104 258.0625 61.229164Q258.0625 61.43229 258.1875 61.58854Q258.32812 61.760414 258.59375 61.86979Q258.75 61.93229 259.53125 62.135414Q260.65625 62.447914 261.09375 62.635414Q261.53125 62.822914 261.78125 63.18229Q262.03125 63.541664 262.03125 64.08854Q262.03125 64.61979 261.71875 65.08854Q261.42188 65.541664 260.84375 65.80729Q260.26562 66.05729 259.53125 66.05729Q258.3125 66.05729 257.67188 65.55729Q257.04688 65.041664 256.875 64.05729ZM266.59375 64.979164L266.75 65.90104Q266.29688 65.99479 265.95312 65.99479Q265.375 65.99479 265.0625 65.822914Q264.75 65.635414 264.60938 65.33854Q264.48438 65.041664 264.48438 64.08854L264.48438 60.510414L263.71875 60.510414L263.71875 59.697914L264.48438 59.697914L264.48438 58.15104L265.53125 57.52604L265.53125 59.697914L266.59375 59.697914L266.59375 60.510414L265.53125 60.510414L265.53125 64.15104Q265.53125 64.604164 265.57812 64.729164Q265.64062 64.854164 265.76562 64.93229Q265.89062 65.010414 266.125 65.010414Q266.3125 65.010414 266.59375 64.979164Z" fill-rule="nonzero"/><path fill="#ea4335" d="M282.5 56.916668C282.5 56.364384 282.94772 55.916668 283.5 55.916668L293.5 55.916668C294.05228 55.916668 294.5 56.364384 294.5 56.916668L294.5 66.916664C294.5 67.46895 294.05228 67.916664 293.5 67.916664L283.5 67.916664C282.94772 67.916664 282.5 67.46895 282.5 66.916664Z" fill-rule="nonzero"/><path fill="#1a1a1a" d="M303.42188 65.916664L303.42188 57.322914L306.39062 57.322914Q307.39062 57.322914 307.92188 57.447914Q308.65625 57.61979 309.17188 58.05729Q309.85938 58.635414 310.1875 59.541664Q310.53125 60.43229 310.53125 61.572914Q310.53125 62.55729 310.29688 63.30729Q310.07812 64.05729 309.71875 64.55729Q309.35938 65.05729 308.92188 65.33854Q308.5 65.61979 307.90625 65.77604Q307.3125 65.916664 306.53125 65.916664L303.42188 65.916664ZM304.5625 64.90104L306.39062 64.90104Q307.25 64.90104 307.73438 64.74479Q308.21875 64.58854 308.5 64.291664Q308.90625 63.90104 309.125 63.21354Q309.35938 62.52604 309.35938 61.55729Q309.35938 60.21354 308.90625 59.49479Q308.46875 58.760414 307.84375 58.510414Q307.375 58.33854 306.375 58.33854L304.5625 58.33854L304.5625 64.90104ZM311.90625 62.80729Q311.90625 61.072914 312.85938 60.24479Q313.65625 59.55729 314.8125 59.55729Q316.09375 59.55729 316.90625 60.40104Q317.73438 61.229164 317.73438 62.71354Q317.73438 63.916664 317.375 64.604164Q317.01562 65.291664 316.3125 65.68229Q315.625 66.05729 314.8125 66.05729Q313.51562 66.05729 312.70312 65.229164Q311.90625 64.385414 311.90625 62.80729ZM312.98438 62.80729Q312.98438 63.99479 313.5 64.58854Q314.03125 65.18229 314.8125 65.18229Q315.60938 65.18229 316.125 64.58854Q316.64062 63.99479 316.64062 62.77604Q316.64062 61.61979 316.10938 61.02604Q315.59375 60.43229 314.8125 60.43229Q314.03125 60.43229 313.5 61.02604Q312.98438 61.604164 312.98438 62.80729ZM323.35938 63.635414L324.39062 63.77604Q324.21875 64.83854 323.51562 65.447914Q322.8125 66.05729 321.79688 66.05729Q320.51562 66.05729 319.73438 65.229164Q318.96875 64.385414 318.96875 62.822914Q318.96875 61.822914 319.29688 61.072914Q319.64062 60.30729 320.3125 59.93229Q321.0 59.55729 321.8125 59.55729Q322.8125 59.55729 323.45312 60.072914Q324.10938 60.572914 324.29688 61.52604L323.26562 61.68229Q323.125 61.05729 322.75 60.74479Q322.375 60.416664 321.84375 60.416664Q321.04688 60.416664 320.54688 60.99479Q320.04688 61.55729 320.04688 62.791664Q320.04688 64.05729 320.53125 64.61979Q321.01562 65.18229 321.78125 65.18229Q322.40625 65.18229 322.8125 64.80729Q323.23438 64.43229 323.35938 63.635414ZM327.59375 64.979164L327.75 65.90104Q327.29688 65.99479 326.95312 65.99479Q326.375 65.99479 326.0625 65.822914Q325.75 65.635414 325.60938 65.33854Q325.48438 65.041664 325.48438 64.08854L325.48438 60.510414L324.71875 60.510414L324.71875 59.697914L325.48438 59.697914L325.48438 58.15104L326.53125 57.52604L326.53125 59.697914L327.59375 59.697914L327.59375 60.510414L326.53125 60.510414L326.53125 64.15104Q326.53125 64.604164 326.57812 64.729164Q326.64062 64.854164 326.76562 64.93229Q326.89062 65.010414 327.125 65.010414Q327.3125 65.010414 327.59375 64.979164ZM327.90625 62.80729Q327.90625 61.072914 328.85938 60.24479Q329.65625 59.55729 330.8125 59.55729Q332.09375 59.55729 332.90625 60.40104Q333.73438 61.229164 333.73438 62.71354Q333.73438 63.916664 333.375 64.604164Q333.01562 65.291664 332.3125 65.68229Q331.625 66.05729 330.8125 66.05729Q329.51562 66.05729 328.70312 65.229164Q327.90625 64.385414 327.90625 62.80729ZM328.98438 62.80729Q328.98438 63.99479 329.5 64.58854Q330.03125 65.18229 330.8125 65.18229Q331.60938 65.18229 332.125 64.58854Q332.64062 63.99479 332.64062 62.77604Q332.64062 61.61979 332.10938 61.02604Q331.59375 60.43229 330.8125 60.43229Q330.03125 60.43229 329.5 61.02604Q328.98438 61.604164 328.98438 62.80729ZM335.28125 65.916664L335.28125 59.697914L336.23438 59.697914L336.23438 60.635414Q336.59375 59.979164 336.89062 59.77604Q337.20312 59.55729 337.57812 59.55729Q338.10938 59.55729 338.65625 59.885414L338.29688 60.86979Q337.90625 60.635414 337.53125 60.635414Q337.17188 60.635414 336.89062 60.854164Q336.625 61.05729 336.51562 61.43229Q336.32812 61.99479 336.32812 62.65104L336.32812 65.916664L335.28125 65.916664Z" fill-rule="nonzero"/><path fill="#fbbc04" d="M354.5 56.916668C354.5 56.364384 354.94772 55.916668 355.5 55.916668L365.5 55.916668C366.05228 55.916668 366.5 56.364384 366.5 56.916668L366.5 66.916664C366.5 67.46895 366.05228 67.916664 365.5 67.916664L355.5 67.916664C354.94772 67.916664 354.5 67.46895 354.5 66.916664Z" fill-rule="nonzero"/><path fill="#1a1a1a" d="M375.04688 63.15104L376.10938 63.05729Q376.1875 63.71354 376.46875 64.11979Q376.75 64.52604 377.32812 64.791664Q377.92188 65.041664 378.65625 65.041664Q379.29688 65.041664 379.79688 64.854164Q380.29688 64.65104 380.53125 64.322914Q380.78125 63.979164 380.78125 63.58854Q380.78125 63.18229 380.54688 62.885414Q380.3125 62.572914 379.78125 62.36979Q379.42188 62.229164 378.23438 61.947914Q377.0625 61.666664 376.59375 61.416664Q375.96875 61.08854 375.67188 60.61979Q375.375 60.135414 375.375 59.541664Q375.375 58.90104 375.73438 58.33854Q376.10938 57.760414 376.8125 57.479164Q377.53125 57.18229 378.39062 57.18229Q379.34375 57.18229 380.07812 57.49479Q380.8125 57.791664 381.20312 58.40104Q381.59375 58.99479 381.625 59.74479L380.53125 59.822914Q380.4375 59.010414 379.92188 58.604164Q379.42188 58.18229 378.4375 58.18229Q377.40625 58.18229 376.9375 58.55729Q376.46875 58.93229 376.46875 59.46354Q376.46875 59.93229 376.79688 60.229164Q377.125 60.52604 378.5 60.83854Q379.89062 61.15104 380.40625 61.385414Q381.15625 61.74479 381.51562 62.27604Q381.875 62.791664 381.875 63.49479Q381.875 64.18229 381.48438 64.791664Q381.09375 65.385414 380.35938 65.729164Q379.625 66.05729 378.70312 66.05729Q377.53125 66.05729 376.73438 65.729164Q375.95312 65.385414 375.5 64.697914Q375.0625 64.010414 375.04688 63.15104ZM385.59375 64.979164L385.75 65.90104Q385.29688 65.99479 384.95312 65.99479Q384.375 65.99479 384.0625 65.822914Q383.75 65.635414 383.60938 65.33854Q383.48438 65.041664 383.48438 64.08854L383.48438 60.510414L382.71875 60.510414L382.71875 59.697914L383.48438 59.697914L383.48438 58.15104L384.53125 57.52604L384.53125 59.697914L385.59375 59.697914L385.59375 60.510414L384.53125 60.510414L384.53125 64.15104Q384.53125 64.604164 384.57812 64.729164Q384.64062 64.854164 384.76562 64.93229Q384.89062 65.010414 385.125 65.010414Q385.3125 65.010414 385.59375 64.979164ZM390.375 65.916664L390.375 64.99479Q389.64062 66.05729 388.39062 66.05729Q387.84375 66.05729 387.35938 65.854164Q386.89062 65.635414 386.65625 65.322914Q386.42188 64.99479 386.32812 64.52604Q386.26562 64.229164 386.26562 63.541664L386.26562 59.697914L387.32812 59.697914L387.32812 63.15104Q387.32812 63.96354 387.39062 64.260414Q387.48438 64.666664 387.79688 64.916664Q388.125 65.15104 388.60938 65.15104Q389.07812 65.15104 389.48438 64.916664Q389.90625 64.666664 390.07812 64.24479Q390.26562 63.822914 390.26562 63.02604L390.26562 59.697914L391.3125 59.697914L391.3125 65.916664L390.375 65.916664ZM397.32812 65.916664L397.32812 65.135414Q396.73438 66.05729 395.59375 66.05729Q394.84375 66.05729 394.21875 65.65104Q393.59375 65.229164 393.25 64.49479Q392.90625 63.760414 392.90625 62.80729Q392.90625 61.885414 393.21875 61.11979Q393.53125 60.354164 394.15625 59.96354Q394.78125 59.55729 395.54688 59.55729Q396.10938 59.55729 396.54688 59.791664Q396.98438 60.02604 397.26562 60.40104L397.26562 57.322914L398.3125 57.322914L398.3125 65.916664L397.32812 65.916664ZM394.0 62.80729Q394.0 64.010414 394.5 64.604164Q395.0 65.18229 395.6875 65.18229Q396.375 65.18229 396.85938 64.61979Q397.34375 64.05729 397.34375 62.90104Q397.34375 61.61979 396.84375 61.02604Q396.35938 60.43229 395.64062 60.43229Q394.9375 60.43229 394.46875 61.010414Q394.0 61.572914 394.0 62.80729ZM404.54688 63.916664L405.64062 64.041664Q405.39062 64.99479 404.6875 65.52604Q403.98438 66.05729 402.90625 66.05729Q401.54688 66.05729 400.73438 65.21354Q399.9375 64.36979 399.9375 62.854164Q399.9375 61.291664 400.75 60.43229Q401.5625 59.55729 402.84375 59.55729Q404.09375 59.55729 404.875 60.40104Q405.67188 61.24479 405.67188 62.791664Q405.67188 62.885414 405.67188 63.072914L401.03125 63.072914Q401.09375 64.104164 401.60938 64.65104Q402.125 65.18229 402.90625 65.18229Q403.48438 65.18229 403.89062 64.885414Q404.3125 64.572914 404.54688 63.916664ZM401.09375 62.21354L404.5625 62.21354Q404.5 61.416664 404.17188 61.02604Q403.65625 60.416664 402.85938 60.416664Q402.125 60.416664 401.625 60.90104Q401.14062 61.385414 401.09375 62.21354ZM407.29688 65.916664L407.29688 59.697914L408.23438 59.697914L408.23438 60.572914Q408.92188 59.55729 410.21875 59.55729Q410.78125 59.55729 411.25 59.760414Q411.73438 59.96354 411.96875 60.291664Q412.20312 60.61979 412.29688 61.05729Q412.34375 61.354164 412.34375 62.08854L412.34375 65.916664L411.29688 65.916664L411.29688 62.135414Q411.29688 61.479164 411.17188 61.166664Q411.04688 60.854164 410.73438 60.666664Q410.42188 60.46354 410.0 60.46354Q409.32812 60.46354 408.82812 60.90104Q408.34375 61.322914 408.34375 62.510414L408.34375 65.916664L407.29688 65.916664ZM416.59375 64.979164L416.75 65.90104Q416.29688 65.99479 415.95312 65.99479Q415.375 65.99479 415.0625 65.822914Q414.75 65.635414 414.60938 65.33854Q414.48438 65.041664 414.48438 64.08854L414.48438 60.510414L413.71875 60.510414L413.71875 59.697914L414.48438 59.697914L414.48438 58.15104L415.53125 57.52604L415.53125 59.697914L416.59375 59.697914L416.59375 60.510414L415.53125 60.510414L415.53125 64.15104Q415.53125 64.604164 415.57812 64.729164Q415.64062 64.854164 415.76562 64.93229Q415.89062 65.010414 416.125 65.010414Q416.3125 65.010414 416.59375 64.979164Z" fill-rule="nonzero"/><path fill="#000000" d="M187.35938 37.55L184.21875 37.55L182.96875 34.3L177.25 34.3L176.0625 37.55L173.0 37.55L178.57812 23.2375L181.64062 23.2375L187.35938 37.55ZM182.04688 31.878124L180.07812 26.565624L178.14062 31.878124L182.04688 31.878124ZM192.1875 27.175L192.1875 29.3625L190.3125 29.3625L190.3125 33.55Q190.3125 34.815624 190.35938 35.034374Q190.42188 35.2375 190.60938 35.378124Q190.8125 35.503124 191.07812 35.503124Q191.45312 35.503124 192.1875 35.2375L192.42188 37.378124Q191.45312 37.784374 190.25 37.784374Q189.5 37.784374 188.90625 37.534374Q188.3125 37.284374 188.03125 36.89375Q187.76562 36.4875 187.65625 35.815624Q187.5625 35.346874 187.5625 33.89375L187.5625 29.3625L186.29688 29.3625L186.29688 27.175L187.5625 27.175L187.5625 25.1125L190.3125 23.51875L190.3125 27.175L192.1875 27.175ZM199.1875 27.175L199.1875 29.3625L197.3125 29.3625L197.3125 33.55Q197.3125 34.815624 197.35938 35.034374Q197.42188 35.2375 197.60938 35.378124Q197.8125 35.503124 198.07812 35.503124Q198.45312 35.503124 199.1875 35.2375L199.42188 37.378124Q198.45312 37.784374 197.25 37.784374Q196.5 37.784374 195.90625 37.534374Q195.3125 37.284374 195.03125 36.89375Q194.76562 36.4875 194.65625 35.815624Q194.5625 35.346874 194.5625 33.89375L194.5625 29.3625L193.29688 29.3625L193.29688 27.175L194.5625 27.175L194.5625 25.1125L197.3125 23.51875L197.3125 27.175L199.1875 27.175ZM207.4375 34.253124L210.17188 34.70625Q209.65625 36.20625 208.51562 37.003124Q207.375 37.784374 205.67188 37.784374Q202.95312 37.784374 201.65625 36.01875Q200.64062 34.596874 200.64062 32.440624Q200.64062 29.8625 201.98438 28.409374Q203.32812 26.940624 205.39062 26.940624Q207.70312 26.940624 209.03125 28.471874Q210.375 30.003124 210.32812 33.159374L203.45312 33.159374Q203.48438 34.378124 204.10938 35.065624Q204.75 35.7375 205.6875 35.7375Q206.34375 35.7375 206.78125 35.39375Q207.21875 35.034374 207.4375 34.253124ZM207.59375 31.471874Q207.5625 30.284374 206.96875 29.675Q206.39062 29.05 205.5625 29.05Q204.65625 29.05 204.07812 29.690624Q203.48438 30.346874 203.5 31.471874L207.59375 31.471874ZM221.875 37.55L219.125 37.55L219.125 32.253124Q219.125 30.58125 218.95312 30.096874Q218.78125 29.596874 218.375 29.33125Q217.98438 29.05 217.42188 29.05Q216.71875 29.05 216.14062 29.440624Q215.57812 29.83125 215.35938 30.471874Q215.15625 31.1125 215.15625 32.846874L215.15625 37.55L212.42188 37.55L212.42188 27.175L214.96875 27.175L214.96875 28.70625Q216.32812 26.940624 218.39062 26.940624Q219.29688 26.940624 220.04688 27.26875Q220.79688 27.596874 221.17188 28.1125Q221.5625 28.6125 221.71875 29.26875Q221.875 29.909374 221.875 31.096874L221.875 37.55ZM229.1875 27.175L229.1875 29.3625L227.3125 29.3625L227.3125 33.55Q227.3125 34.815624 227.35938 35.034374Q227.42188 35.2375 227.60938 35.378124Q227.8125 35.503124 228.07812 35.503124Q228.45312 35.503124 229.1875 35.2375L229.42188 37.378124Q228.45312 37.784374 227.25 37.784374Q226.5 37.784374 225.90625 37.534374Q225.3125 37.284374 225.03125 36.89375Q224.76562 36.4875 224.65625 35.815624Q224.5625 35.346874 224.5625 33.89375L224.5625 29.3625L223.29688 29.3625L223.29688 27.175L224.5625 27.175L224.5625 25.1125L227.3125 23.51875L227.3125 27.175L229.1875 27.175ZM231.4375 25.76875L231.4375 23.2375L234.1875 23.2375L234.1875 25.76875L231.4375 25.76875ZM231.4375 37.55L231.4375 27.175L234.1875 27.175L234.1875 37.55L231.4375 37.55ZM235.79688 32.221874Q235.79688 30.846874 236.46875 29.565624Q237.15625 28.284374 238.39062 27.6125Q239.625 26.940624 241.14062 26.940624Q243.5 26.940624 245.0 28.471874Q246.5 30.003124 246.5 32.33125Q246.5 34.690624 244.98438 36.2375Q243.46875 37.784374 241.15625 37.784374Q239.73438 37.784374 238.4375 37.14375Q237.15625 36.4875 236.46875 35.253124Q235.79688 34.003124 235.79688 32.221874ZM238.60938 32.3625Q238.60938 33.909374 239.34375 34.7375Q240.07812 35.55 241.15625 35.55Q242.23438 35.55 242.95312 34.7375Q243.6875 33.909374 243.6875 32.346874Q243.6875 30.815624 242.95312 30.003124Q242.23438 29.175 241.15625 29.175Q240.07812 29.175 239.34375 30.003124Q238.60938 30.815624 238.60938 32.3625ZM257.875 37.55L255.125 37.55L255.125 32.253124Q255.125 30.58125 254.95312 30.096874Q254.78125 29.596874 254.375 29.33125Q253.98438 29.05 253.42188 29.05Q252.71875 29.05 252.14062 29.440624Q251.57812 29.83125 251.35938 30.471874Q251.15625 31.1125 251.15625 32.846874L251.15625 37.55L248.42188 37.55L248.42188 27.175L250.96875 27.175L250.96875 28.70625Q252.32812 26.940624 254.39062 26.940624Q255.29688 26.940624 256.04688 27.26875Q256.79688 27.596874 257.17188 28.1125Q257.5625 28.6125 257.71875 29.26875Q257.875 29.909374 257.875 31.096874L257.875 37.55ZM266.42188 37.55L266.42188 23.2375L270.75 23.2375L273.34375 33.003124L275.90625 23.2375L280.25 23.2375L280.25 37.55L277.5625 37.55L277.5625 26.284374L274.71875 37.55L271.9375 37.55L269.10938 26.284374L269.10938 37.55L266.42188 37.55ZM285.48438 30.346874L283.0 29.89375Q283.42188 28.39375 284.4375 27.675Q285.46875 26.940624 287.48438 26.940624Q289.32812 26.940624 290.21875 27.378124Q291.125 27.815624 291.48438 28.4875Q291.85938 29.14375 291.85938 30.940624L291.82812 34.14375Q291.82812 35.503124 291.95312 36.159374Q292.09375 36.8 292.45312 37.55L289.73438 37.55Q289.625 37.26875 289.46875 36.7375Q289.40625 36.4875 289.375 36.409374Q288.67188 37.096874 287.85938 37.440624Q287.0625 37.784374 286.15625 37.784374Q284.5625 37.784374 283.64062 36.925Q282.71875 36.05 282.71875 34.721874Q282.71875 33.83125 283.125 33.14375Q283.54688 32.45625 284.29688 32.096874Q285.0625 31.721874 286.5 31.45625Q288.42188 31.096874 289.15625 30.784374L289.15625 30.503124Q289.15625 29.721874 288.76562 29.39375Q288.375 29.05 287.29688 29.05Q286.5625 29.05 286.14062 29.33125Q285.73438 29.6125 285.48438 30.346874ZM289.15625 32.565624Q288.625 32.7375 287.48438 32.9875Q286.34375 33.2375 286.0 33.471874Q285.45312 33.846874 285.45312 34.440624Q285.45312 35.003124 285.875 35.425Q286.3125 35.846874 286.98438 35.846874Q287.71875 35.846874 288.39062 35.3625Q288.89062 34.9875 289.04688 34.45625Q289.15625 34.096874 289.15625 33.1125L289.15625 32.565624ZM294.35938 27.175L296.92188 27.175L296.92188 28.70625Q297.42188 27.925 298.26562 27.440624Q299.10938 26.940624 300.15625 26.940624Q301.95312 26.940624 303.20312 28.3625Q304.46875 29.76875 304.46875 32.3Q304.46875 34.909374 303.20312 36.346874Q301.9375 37.784374 300.125 37.784374Q299.26562 37.784374 298.5625 37.440624Q297.875 37.096874 297.10938 36.26875L297.10938 41.503124L294.35938 41.503124L294.35938 27.175ZM297.07812 32.190624Q297.07812 33.940624 297.76562 34.784374Q298.45312 35.6125 299.45312 35.6125Q300.40625 35.6125 301.04688 34.846874Q301.6875 34.065624 301.6875 32.33125Q301.6875 30.690624 301.03125 29.909374Q300.375 29.1125 299.40625 29.1125Q298.40625 29.1125 297.73438 29.89375Q297.07812 30.659374 297.07812 32.190624ZM321.60938 32.284374L324.42188 33.175Q323.78125 35.51875 322.28125 36.659374Q320.78125 37.8 318.46875 37.8Q315.625 37.8 313.78125 35.846874Q311.95312 33.89375 311.95312 30.51875Q311.95312 26.940624 313.79688 24.971874Q315.64062 22.9875 318.64062 22.9875Q321.28125 22.9875 322.92188 24.534374Q323.89062 25.45625 324.375 27.175L321.51562 27.8625Q321.26562 26.753124 320.45312 26.1125Q319.65625 25.45625 318.5 25.45625Q316.90625 25.45625 315.90625 26.596874Q314.92188 27.7375 314.92188 30.3Q314.92188 33.01875 315.89062 34.175Q316.875 35.315624 318.4375 35.315624Q319.59375 35.315624 320.42188 34.596874Q321.25 33.8625 321.60938 32.284374ZM325.79688 32.221874Q325.79688 30.846874 326.46875 29.565624Q327.15625 28.284374 328.39062 27.6125Q329.625 26.940624 331.14062 26.940624Q333.5 26.940624 335.0 28.471874Q336.5 30.003124 336.5 32.33125Q336.5 34.690624 334.98438 36.2375Q333.46875 37.784374 331.15625 37.784374Q329.73438 37.784374 328.4375 37.14375Q327.15625 36.4875 326.46875 35.253124Q325.79688 34.003124 325.79688 32.221874ZM328.60938 32.3625Q328.60938 33.909374 329.34375 34.7375Q330.07812 35.55 331.15625 35.55Q332.23438 35.55 332.95312 34.7375Q333.6875 33.909374 333.6875 32.346874Q333.6875 30.815624 332.95312 30.003124Q332.23438 29.175 331.15625 29.175Q330.07812 29.175 329.34375 30.003124Q328.60938 30.815624 328.60938 32.3625ZM341.0625 37.55L338.3125 37.55L338.3125 27.175L340.875 27.175L340.875 28.659374Q341.51562 27.6125 342.03125 27.284374Q342.5625 26.940624 343.23438 26.940624Q344.17188 26.940624 345.03125 27.45625L344.1875 29.846874Q343.5 29.409374 342.90625 29.409374Q342.32812 29.409374 341.92188 29.721874Q341.51562 30.034374 341.28125 30.878124Q341.0625 31.70625 341.0625 34.346874L341.0625 37.55ZM349.0625 37.55L346.3125 37.55L346.3125 27.175L348.875 27.175L348.875 28.659374Q349.51562 27.6125 350.03125 27.284374Q350.5625 26.940624 351.23438 26.940624Q352.17188 26.940624 353.03125 27.45625L352.1875 29.846874Q351.5 29.409374 350.90625 29.409374Q350.32812 29.409374 349.92188 29.721874Q349.51562 30.034374 349.28125 30.878124Q349.0625 31.70625 349.0625 34.346874L349.0625 37.55ZM360.4375 34.253124L363.17188 34.70625Q362.65625 36.20625 361.51562 37.003124Q360.375 37.784374 358.67188 37.784374Q355.95312 37.784374 354.65625 36.01875Q353.64062 34.596874 353.64062 32.440624Q353.64062 29.8625 354.98438 28.409374Q356.32812 26.940624 358.39062 26.940624Q360.70312 26.940624 362.03125 28.471874Q363.375 30.003124 363.32812 33.159374L356.45312 33.159374Q356.48438 34.378124 357.10938 35.065624Q357.75 35.7375 358.6875 35.7375Q359.34375 35.7375 359.78125 35.39375Q360.21875 35.034374 360.4375 34.253124ZM360.59375 31.471874Q360.5625 30.284374 359.96875 29.675Q359.39062 29.05 358.5625 29.05Q357.65625 29.05 357.07812 29.690624Q356.48438 30.346874 356.5 31.471874L360.59375 31.471874ZM374.48438 30.2375L371.78125 30.7375Q371.64062 29.925 371.15625 29.51875Q370.67188 29.096874 369.90625 29.096874Q368.875 29.096874 368.26562 29.815624Q367.65625 30.51875 367.65625 32.175Q367.65625 34.01875 368.26562 34.784374Q368.89062 35.55 369.9375 35.55Q370.71875 35.55 371.21875 35.1125Q371.71875 34.659374 371.92188 33.58125L374.60938 34.034374Q374.20312 35.89375 373.0 36.846874Q371.8125 37.784374 369.8125 37.784374Q367.53125 37.784374 366.17188 36.346874Q364.82812 34.909374 364.82812 32.378124Q364.82812 29.8 366.1875 28.378124Q367.54688 26.940624 369.85938 26.940624Q371.75 26.940624 372.85938 27.76875Q373.98438 28.58125 374.48438 30.2375ZM381.1875 27.175L381.1875 29.3625L379.3125 29.3625L379.3125 33.55Q379.3125 34.815624 379.35938 35.034374Q379.42188 35.2375 379.60938 35.378124Q379.8125 35.503124 380.07812 35.503124Q380.45312 35.503124 381.1875 35.2375L381.42188 37.378124Q380.45312 37.784374 379.25 37.784374Q378.5 37.784374 377.90625 37.534374Q377.3125 37.284374 377.03125 36.89375Q376.76562 36.4875 376.65625 35.815624Q376.5625 35.346874 376.5625 33.89375L376.5625 29.3625L375.29688 29.3625L375.29688 27.175L376.5625 27.175L376.5625 25.1125L379.3125 23.51875L379.3125 27.175L381.1875 27.175ZM392.875 37.55L390.125 37.55L390.125 32.253124Q390.125 30.58125 389.95312 30.096874Q389.78125 29.596874 389.375 29.33125Q388.98438 29.05 388.42188 29.05Q387.71875 29.05 387.14062 29.440624Q386.57812 29.83125 386.35938 30.471874Q386.15625 31.1125 386.15625 32.846874L386.15625 37.55L383.42188 37.55L383.42188 27.175L385.96875 27.175L385.96875 28.70625Q387.32812 26.940624 389.39062 26.940624Q390.29688 26.940624 391.04688 27.26875Q391.79688 27.596874 392.17188 28.1125Q392.5625 28.6125 392.71875 29.26875Q392.875 29.909374 392.875 31.096874L392.875 37.55ZM401.4375 34.253124L404.17188 34.70625Q403.65625 36.20625 402.51562 37.003124Q401.375 37.784374 399.67188 37.784374Q396.95312 37.784374 395.65625 36.01875Q394.64062 34.596874 394.64062 32.440624Q394.64062 29.8625 395.98438 28.409374Q397.32812 26.940624 399.39062 26.940624Q401.70312 26.940624 403.03125 28.471874Q404.375 30.003124 404.32812 33.159374L397.45312 33.159374Q397.48438 34.378124 398.10938 35.065624Q398.75 35.7375 399.6875 35.7375Q400.34375 35.7375 400.78125 35.39375Q401.21875 35.034374 401.4375 34.253124ZM401.59375 31.471874Q401.5625 30.284374 400.96875 29.675Q400.39062 29.05 399.5625 29.05Q398.65625 29.05 398.07812 29.690624Q397.48438 30.346874 397.5 31.471874L401.59375 31.471874ZM405.46875 34.596874L408.21875 34.175Q408.40625 34.971874 408.9375 35.39375Q409.46875 35.8 410.4375 35.8Q411.5 35.8 412.04688 35.409374Q412.40625 35.14375 412.40625 34.675Q412.40625 34.3625 412.20312 34.159374Q412.0 33.971874 411.29688 33.8Q407.96875 33.065624 407.07812 32.45625Q405.84375 31.628124 405.84375 30.128124Q405.84375 28.784374 406.90625 27.8625Q407.98438 26.940624 410.21875 26.940624Q412.34375 26.940624 413.375 27.64375Q414.42188 28.33125 414.8125 29.690624L412.21875 30.159374Q412.04688 29.565624 411.57812 29.2375Q411.125 28.909374 410.26562 28.909374Q409.1875 28.909374 408.71875 29.221874Q408.40625 29.440624 408.40625 29.76875Q408.40625 30.065624 408.67188 30.26875Q409.04688 30.55 411.23438 31.05Q413.42188 31.55 414.29688 32.26875Q415.15625 33.003124 415.15625 34.3Q415.15625 35.7375 413.96875 36.76875Q412.78125 37.784374 410.4375 37.784374Q408.32812 37.784374 407.07812 36.925Q405.84375 36.065624 405.46875 34.596874ZM416.46875 34.596874L419.21875 34.175Q419.40625 34.971874 419.9375 35.39375Q420.46875 35.8 421.4375 35.8Q422.5 35.8 423.04688 35.409374Q423.40625 35.14375 423.40625 34.675Q423.40625 34.3625 423.20312 34.159374Q423.0 33.971874 422.29688 33.8Q418.96875 33.065624 418.07812 32.45625Q416.84375 31.628124 416.84375 30.128124Q416.84375 28.784374 417.90625 27.8625Q418.98438 26.940624 421.21875 26.940624Q423.34375 26.940624 424.375 27.64375Q425.42188 28.33125 425.8125 29.690624L423.21875 30.159374Q423.04688 29.565624 422.57812 29.2375Q422.125 28.909374 421.26562 28.909374Q420.1875 28.909374 419.71875 29.221874Q419.40625 29.440624 419.40625 29.76875Q419.40625 30.065624 419.67188 30.26875Q420.04688 30.55 422.23438 31.05Q424.42188 31.55 425.29688 32.26875Q426.15625 33.003124 426.15625 34.3Q426.15625 35.7375 424.96875 36.76875Q423.78125 37.784374 421.4375 37.784374Q419.32812 37.784374 418.07812 36.925Q416.84375 36.065624 416.46875 34.596874Z" fill-rule="nonzero"/></svg>